<?xml version="1.0" encoding="UTF-8" standalone="no"?>
<!-- Created with Inkscape (http://www.inkscape.org/) -->

<svg
   xmlns:dc="http://purl.org/dc/elements/1.1/"
   xmlns:cc="http://creativecommons.org/ns#"
   xmlns:rdf="http://www.w3.org/1999/02/22-rdf-syntax-ns#"
   xmlns:svg="http://www.w3.org/2000/svg"
   xmlns="http://www.w3.org/2000/svg"
   xmlns:sodipodi="http://sodipodi.sourceforge.net/DTD/sodipodi-0.dtd"
   xmlns:inkscape="http://www.inkscape.org/namespaces/inkscape"
   width="210mm"
   height="40mm"
   viewBox="0 0 210 40"
   version="1.1"
   id="svg33483"
   inkscape:version="0.92.4 (5da689c313, 2019-01-14)"
   sodipodi:docname="AddCitySel.svg">
  <defs
     id="defs33477">
    <filter
       inkscape:label="Inset"
       inkscape:menu="Shadows and Glows"
       inkscape:menu-tooltip="Shadowy outer bevel"
       style="color-interpolation-filters:sRGB"
       id="filter1603-0-1-1-5">
      <feMorphology
         result="result1"
         in="SourceAlpha"
         operator="dilate"
         radius="3.6"
         id="feMorphology1591-3-4-7-7" />
      <feGaussianBlur
         stdDeviation="3.6"
         in="result1"
         result="result0"
         id="feGaussianBlur1593-7-7-0-1" />
      <feDiffuseLighting
         surfaceScale="-5"
         id="feDiffuseLighting1597-6-8-7-1">
        <feDistantLight
           elevation="45"
           azimuth="225"
           id="feDistantLight1595-2-0-3-2" />
      </feDiffuseLighting>
      <feComposite
         in2="result0"
         operator="in"
         result="result91"
         id="feComposite1599-7-1-6-6" />
      <feComposite
         in="SourceGraphic"
         in2="result91"
         id="feComposite1601-5-6-0-8" />
    </filter>
    <filter
       inkscape:label="Inset"
       inkscape:menu="Shadows and Glows"
       inkscape:menu-tooltip="Shadowy outer bevel"
       style="color-interpolation-filters:sRGB"
       id="filter1589-0-1-6-6">
      <feMorphology
         result="result1"
         in="SourceAlpha"
         operator="dilate"
         radius="3.6"
         id="feMorphology1577-3-8-5-5" />
      <feGaussianBlur
         stdDeviation="3.6"
         in="result1"
         result="result0"
         id="feGaussianBlur1579-7-1-4-5" />
      <feDiffuseLighting
         surfaceScale="-5"
         id="feDiffuseLighting1583-4-5-7-6">
        <feDistantLight
           elevation="45"
           azimuth="225"
           id="feDistantLight1581-2-0-2-7" />
      </feDiffuseLighting>
      <feComposite
         in2="result0"
         operator="in"
         result="result91"
         id="feComposite1585-5-4-7-6" />
      <feComposite
         in="SourceGraphic"
         in2="result91"
         id="feComposite1587-6-0-2-8" />
    </filter>
  </defs>
  <sodipodi:namedview
     id="base"
     pagecolor="#ffffff"
     bordercolor="#666666"
     borderopacity="1.0"
     inkscape:pageopacity="0.0"
     inkscape:pageshadow="2"
     inkscape:zoom="1.7112659"
     inkscape:cx="-52.688191"
     inkscape:cy="51.354488"
     inkscape:document-units="mm"
     inkscape:current-layer="layer1"
     showgrid="false"
     inkscape:pagecheckerboard="true"
     inkscape:window-width="1920"
     inkscape:window-height="1018"
     inkscape:window-x="-8"
     inkscape:window-y="-8"
     inkscape:window-maximized="1" />
  <metadata
     id="metadata33480">
    <rdf:RDF>
      <cc:Work
         rdf:about="">
        <dc:format>image/svg+xml</dc:format>
        <dc:type
           rdf:resource="http://purl.org/dc/dcmitype/StillImage" />
        <dc:title></dc:title>
      </cc:Work>
    </rdf:RDF>
  </metadata>
  <g
     inkscape:label="Layer 1"
     inkscape:groupmode="layer"
     id="layer1"
     transform="translate(0,-257)">
    <path
       style="display:inline;opacity:0.99500002;fill:#b0b3b3;fill-opacity:0.78039216;stroke:#000000;stroke-width:2.59795618;stroke-miterlimit:4;stroke-dasharray:none;stroke-opacity:1"
       d="m 9.5184068,283.83838 c -1.6454214,-0.13376 -2.8696176,-0.54199 -3.9705456,-1.32404 -0.6108033,-0.43388 -1.6202642,-1.3575 -1.8456494,-1.6887 -1.1098087,-1.63084 -1.614545,-2.9018 -1.9874784,-5.00463 -0.2591086,-1.46102 -0.259506,-1.59521 -0.00847,-2.92764 0.3469134,-1.84159 0.6913877,-2.89212 1.3111877,-3.99878 0.2805708,-0.50095 0.5457213,-0.94008 0.5892332,-0.97587 0.04353,-0.0358 0.2678436,-0.2825 0.4985036,-0.54827 0.7081598,-0.81593 1.2111389,-1.22603 2.0793316,-1.69544 1.1872922,-0.64193 1.76318,-0.76782 3.3839302,-0.73976 0.7866503,0.0137 1.5031403,-0.0139 1.5921923,-0.0611 0.08905,-0.0473 0.414204,-0.53029 0.722562,-1.07338 0.59858,-1.05425 2.267309,-2.89337 3.109995,-3.42755 1.850468,-1.17302 2.4225,-1.39538 4.169073,-1.62067 1.405085,-0.18124 1.539228,-0.17728 2.698887,0.0795 1.243478,0.27526 2.2466,0.64598 2.623405,0.96952 0.115367,0.099 0.262297,0.1801 0.326506,0.1801 0.236257,0 2.136452,1.70805 2.71059,2.43651 0.812803,1.03126 1.589914,2.30306 1.929957,3.15854 0.38598,0.97098 0.480046,1.05923 1.038523,0.97405 0.577035,-0.088 2.348387,0.33622 2.956593,0.70806 0.242569,0.14831 0.503441,0.26964 0.579729,0.26964 0.16698,0 0.604502,0.41861 1.681395,1.60869 0.860908,0.95138 1.604064,2.40439 1.84775,3.61267 0.522684,2.59174 0.518016,2.51427 0.235694,3.91481 -0.56175,2.78674 -1.261451,4.08023 -3.049209,5.63683 -0.905939,0.7888 -2.087971,1.31839 -3.333553,1.49352 -0.813992,0.11445 -20.535255,0.15364 -21.890096,0.0435 z"
       id="path3450-4-4"
       inkscape:connector-curvature="0"
       inkscape:export-filename="C:\Users\Michu\Documents\Serwis - Praca Inż\img\AddCitySel.png"
       inkscape:export-xdpi="91"
       inkscape:export-ydpi="91" />
    <path
       style="display:inline;opacity:0.99500002;fill:#740000;fill-opacity:1;stroke-width:0.26458332;filter:url(#filter1589-0-1-6-6)"
       d="m 25.701334,354.75803 c 0,-0.22748 2.19367,-2.13861 3.38618,-2.95003 0.70157,-0.47738 1.54241,-0.7303 2.96382,-0.89148 1.0914,-0.12377 2.46062,-0.33865 3.0427,-0.47753 0.58209,-0.13888 1.59412,-0.37161 2.24896,-0.51716 0.65485,-0.14556 2.44078,-0.68925 3.96875,-1.2082 3.27553,-1.11248 11.25418,-3.41189 13.89063,-4.0032 1.01864,-0.22847 3.04271,-0.69069 4.49791,-1.02716 1.45521,-0.33646 3.65787,-0.81308 4.8948,-1.05914 1.23692,-0.24606 3.02286,-0.61085 3.96875,-0.81063 0.94588,-0.19979 2.85088,-0.49992 4.23333,-0.66696 1.38245,-0.16704 3.16838,-0.45938 3.96875,-0.64965 1.42997,-0.33994 2.78492,-0.49627 11.24479,-1.29745 6.97244,-0.66032 10.62242,-0.92647 15.081246,-1.09971 7.18728,-0.27924 20.06234,-0.14829 26.72292,0.27179 5.99141,0.37788 19.17454,1.79996 19.7007,2.12515 0.13315,0.0823 1.23183,0.26502 2.44152,0.40607 1.20969,0.14105 3.27101,0.44807 4.58069,0.68227 3.28605,0.5876 16.75969,3.73651 19.18229,4.48307 1.09141,0.33633 2.81782,0.84988 3.83646,1.14123 1.01865,0.29135 2.86412,0.82251 4.10104,1.18036 3.90938,1.13102 7.47303,2.03639 9.55956,2.42869 1.90603,0.35836 4.00845,1.03447 4.59565,1.47789 0.14552,0.10989 1.03165,0.60632 1.96918,1.10317 2.85825,1.51476 2.42082,1.91909 -1.04314,0.96422 -5.73013,-1.57957 -6.01327,-1.66827 -8.86354,-2.77664 -0.87312,-0.33953 -2.12328,-0.73562 -2.77812,-0.8802 -0.65485,-0.14458 -2.44078,-0.69055 -3.96875,-1.21327 -2.94644,-1.00797 -5.86874,-1.84407 -10.18646,-2.91444 -1.45521,-0.36075 -3.65787,-0.94777 -4.89479,-1.30447 -2.96135,-0.85401 -7.97436,-1.84738 -18.78542,-3.7225 -7.68448,-1.33284 -26.20076,-2.75652 -35.85104,-2.75652 -9.75759,0 -27.688366,1.38517 -35.851036,2.76953 -1.38245,0.23446 -3.64464,0.60716 -5.02708,0.82822 -3.05504,0.48853 -14.4544,2.84222 -17.19792,3.55096 -1.09141,0.28195 -3.05594,0.81217 -4.36563,1.17828 -1.30968,0.36611 -3.21468,0.89271 -4.23333,1.17023 -1.01864,0.27752 -5.18583,1.6487 -9.26042,3.04707 -9.70397,3.33036 -11.77395,3.9313 -11.77395,3.41814 z m 7.69706,-5.63363 c 0.92066,-0.71544 2.27413,-1.62628 3.00771,-2.02408 0.73357,-0.39781 1.86955,-1.0158 2.52439,-1.37332 0.65485,-0.35751 1.905,-1.03234 2.77813,-1.49962 0.87312,-0.46727 2.42094,-1.30034 3.43958,-1.85126 1.01865,-0.55091 2.65011,-1.40826 3.62547,-1.90521 0.97536,-0.49695 1.84671,-1.02218 1.93632,-1.16718 0.0896,-0.145 0.54175,-0.42966 1.00474,-0.63258 0.7802,-0.34193 2.39111,-1.70301 2.60221,-2.19863 0.10613,-0.24918 3.33214,-2.71608 3.55187,-2.71608 0.0808,0 0.526,-0.28644 0.98923,-0.63652 0.46323,-0.35009 1.79474,-1.14071 2.95891,-1.75693 1.16417,-0.61623 3.82338,-2.13751 5.90936,-3.38063 l 3.79269,-2.26022 3.3094,1.65551 c 1.82017,0.91053 3.35297,1.61194 3.40622,1.55869 0.0533,-0.0533 -0.67214,-0.6545 -1.61198,-1.33611 -1.58468,-1.14926 -2.09478,-1.78129 -1.43763,-1.78129 0.14916,0 1.11811,0.44648 2.15324,0.99219 1.03512,0.5457 2.31208,1.21715 2.83766,1.49211 1.21868,0.63754 3.20458,0.898 3.20458,0.4203 0,-0.40447 -1.95308,-2.2395 -2.96289,-2.78381 -0.39266,-0.21165 -1.24336,-0.74213 -1.89045,-1.17885 -0.64709,-0.43671 -1.33785,-0.79781 -1.53503,-0.80244 -0.19718,-0.005 -0.58458,-0.17954 -0.8609,-0.38869 -0.27632,-0.20915 -1.09068,-0.57567 -1.8097,-0.81449 -2.16051,-0.7176 -2.25643,0.17873 -0.24998,2.33608 0.73115,0.78614 0.57962,0.88521 -0.68152,0.44558 -1.16129,-0.40484 -3.87719,0.48684 -6.67828,2.19258 -0.50932,0.31016 -1.52135,0.88445 -2.24896,1.27621 -7.37332,3.96994 -8.42333,3.75559 -1.9541,-0.39892 0.23493,-0.15087 0.92516,-0.54749 1.53386,-0.88138 0.60869,-0.33388 1.80426,-1.13756 2.65682,-1.78593 0.85256,-0.64838 1.65846,-1.17887 1.7909,-1.17887 0.36132,0 1.92565,-1.84769 1.92565,-2.27446 0,-0.80735 -1.74089,-0.18342 -4.49792,1.61204 -0.50932,0.33169 -1.23626,0.76525 -1.61541,0.96347 -0.37916,0.19822 -1.37206,0.77712 -2.20645,1.28645 -0.83439,0.50932 -1.91372,1.16416 -2.39851,1.4552 -2.16582,1.30024 -3.82351,2.59349 -3.98778,3.11107 -0.13301,0.41906 -10e-4,0.7036 0.51692,1.11682 0.38247,0.30497 0.6954,0.69034 0.6954,0.85639 0,0.5108 -0.79851,1.13343 -1.45359,1.13343 -0.47985,0 -0.69406,-0.21822 -0.93711,-0.95468 -1.05634,-3.20073 1.04571,-5.09468 11.55555,-10.41157 1.03884,-0.52554 2.05087,-1.08125 2.24896,-1.23491 0.19808,-0.15366 1.23076,-0.59616 2.29485,-0.98335 1.52611,-0.5553 2.05694,-0.64462 2.51354,-0.42293 0.46023,0.22346 0.42673,0.14223 -0.16352,-0.39638 -0.89424,-0.81603 -1.34119,-0.84119 -2.63403,-0.14826 -0.54303,0.29104 -1.13966,0.52917 -1.32585,0.52917 -0.27694,0 -1.98759,0.96472 -4.69047,2.6452 -0.82038,0.51006 -5.1856,2.60475 -5.81876,2.79218 -0.60832,0.18008 -0.62919,0.15882 -0.26954,-0.27453 0.40732,-0.49079 3.76641,-2.7816 4.07876,-2.7816 0.0988,0 0.68072,-0.35822 1.29306,-0.79604 0.61235,-0.43781 2.10316,-1.45185 3.31293,-2.25341 3.02862,-2.00668 4.1374,-3.28509 3.15824,-3.64138 -0.37213,-0.13542 -4.07178,1.77223 -6.28385,3.24013 -0.80037,0.53111 -2.27211,1.41895 -3.27053,1.97297 -0.99842,0.55402 -2.02657,1.20246 -2.28477,1.44096 -0.2582,0.2385 -0.95936,0.76878 -1.55812,1.1784 -1.25516,0.85866 -1.41387,1.63196 -0.42721,2.08151 0.3638,0.16576 0.66146,0.51765 0.66146,0.78198 0,0.64825 -1.15476,1.37557 -1.83913,1.15836 -0.46683,-0.14816 -0.54212,-0.39183 -0.54212,-1.7545 v -1.58245 l 1.86831,-1.84253 c 1.02757,-1.0134 2.30749,-2.02357 2.84427,-2.24481 0.53678,-0.22125 1.09502,-0.55842 1.24054,-0.74927 0.2649,-0.34742 5.14497,-2.97324 9.71985,-5.22996 0.67633,-0.33362 1.64654,-0.27654 2.49569,0.14683 0.41198,0.2054 1.46342,0.69215 2.33655,1.08166 0.87312,0.38951 1.76609,0.81609 1.98437,0.94795 0.21828,0.13186 1.46652,0.79139 2.77386,1.46561 1.30734,0.67423 2.73609,1.49074 3.175,1.81447 0.43891,0.32373 0.97661,0.6704 1.19489,0.77039 0.21828,0.1 0.635,0.3299 0.92604,0.5109 2.65982,1.65423 3.33946,2.13548 3.55415,2.51669 0.22758,0.4041 0.39811,0.38737 2.0512,-0.20136 0.99164,-0.35315 2.3983,-0.99284 3.1259,-1.42153 0.72761,-0.42869 2.3266,-1.24327 3.55331,-1.81018 1.22672,-0.56691 2.59594,-1.30333 3.042706,-1.6365 1.77289,-1.32204 12.86927,-7.37153 13.25199,-7.22466 0.73122,0.28059 11.08312,6.3262 12.59132,7.35344 0.81569,0.55557 2.17621,1.32746 3.02338,1.71531 0.84716,0.38785 2.20384,1.07897 3.01484,1.53582 0.811,0.45685 2.22327,1.10956 3.13839,1.45046 l 1.66386,0.61981 0.98198,-0.77143 c 1.52701,-1.19962 3.09602,-2.19613 4.4554,-2.82974 0.45518,-0.21216 0.91067,-0.52015 1.0122,-0.68443 0.10153,-0.16428 1.15786,-0.78658 2.3474,-1.38289 1.18954,-0.59631 2.46046,-1.2867 2.82426,-1.5342 0.36381,-0.24749 1.07818,-0.60945 1.5875,-0.80435 0.50933,-0.19489 1.11401,-0.51334 1.34375,-0.70765 0.22974,-0.19431 0.64646,-0.35709 0.92605,-0.36171 0.27958,-0.005 0.73945,-0.18323 1.02192,-0.39688 1.00845,-0.76275 2.10846,-0.45638 6.62093,1.84404 2.40858,1.22788 4.71293,2.47012 5.12079,2.76053 0.40785,0.29042 1.09147,0.60693 1.51916,0.70336 0.57996,0.13075 0.30685,-0.14131 -1.07447,-1.07035 -2.10417,-1.41522 -9.42971,-5.85661 -10.35555,-6.27845 -0.53593,-0.24418 -1.17094,0.0562 -5.12108,2.42219 -2.48011,1.48551 -4.89402,2.86171 -5.36425,3.05821 -0.47022,0.1965 -1.15261,0.58819 -1.51641,0.87041 -1.12339,0.87148 -5.80365,2.97452 -6.61974,2.97452 -1.70301,0 -7.66754,-3.06279 -17.12436,-8.79336 -3.05818,-1.85317 -5.75278,-3.44325 -5.98801,-3.53352 -0.26866,-0.10309 -1.83016,0.65333 -4.19936,2.03425 -14.425546,8.40816 -18.131876,10.30095 -20.142936,10.28682 -0.94774,-0.007 -2.78391,-0.77601 -3.27831,-1.3736 -0.28346,-0.34261 -0.2122,-0.4558 0.46302,-0.73548 1.03331,-0.42802 1.06249,-1.3514 0.0704,-2.22843 -1.05949,-0.93663 -5.02965,-3.51861 -6.41499,-4.17197 -0.65548,-0.30913 -1.37038,-0.71114 -1.58866,-0.89334 -0.6693,-0.55866 -5.16982,-2.76221 -5.64154,-2.76221 -0.63826,0 -0.55059,0.86993 0.15144,1.50256 0.6718,0.60541 3.8252,2.7973 4.43177,3.08048 0.21828,0.10191 0.71147,0.39234 1.09598,0.6454 0.38451,0.25306 1.39179,0.87011 2.2384,1.37123 0.84662,0.50111 2.1111,1.33455 2.80996,1.85208 3.50809,2.59785 -3.02782,-0.26086 -8.6536,-3.78496 -1.59837,-1.00125 -3.05785,-1.87868 -3.2433,-1.94984 -0.18545,-0.0712 -1.85426,0.76391 -3.70846,1.85571 -1.8542,1.0918 -3.69852,2.14671 -4.09849,2.34424 -0.39997,0.19753 -1.74712,0.87241 -2.99367,1.49973 -2.75463,1.38626 -3.74145,1.39305 -1.65995,0.0114 0.79932,-0.53056 2.09887,-1.28783 2.8879,-1.68283 0.78903,-0.395 1.67273,-0.93215 1.96377,-1.19366 0.29104,-0.26151 1.06495,-0.74647 1.71979,-1.07768 1.86312,-0.94236 4.23334,-3.0894 4.23334,-3.83474 v -0.63142 l -1.38907,0.54276 c -2.73189,1.06746 -12.34891,6.81973 -12.96053,7.75213 -0.38869,0.59256 -0.18862,1.24076 0.45897,1.48697 1.21802,0.46309 0.67736,1.85208 -0.72092,1.85208 -1.31784,0 -1.71733,-2.19241 -0.66051,-3.62485 0.59055,-0.80046 3.42923,-3.25432 3.76465,-3.25432 0.0935,0 1.02424,-0.56445 2.06837,-1.25434 1.04412,-0.68989 2.083,-1.33211 2.3086,-1.42714 1.03037,-0.43405 4.6068,-3.13935 4.15023,-3.13935 -0.14158,0 -3.1524,1.53034 -3.63438,1.84728 -1.49911,0.9858 -5.59215,3.40997 -6.38998,3.78457 -1.22337,0.57439 -2.49655,0.59086 -2.70983,0.0351 -0.27967,-0.72879 -0.1744,-1.96234 0.23502,-2.75407 0.50588,-0.97827 2.85284,-2.89054 5.26279,-4.28807 1.03521,-0.60031 2.44778,-1.44187 3.13903,-1.87011 2.60789,-1.61564 7.72799,-4.16372 8.36179,-4.16135 0.23956,7.9e-4 0.79274,0.19341 1.22931,0.42781 0.43656,0.2344 1.56765,0.75138 2.51354,1.14885 0.94588,0.39746 2.52556,1.21698 3.51039,1.82114 0.98483,0.60417 1.8804,1.09848 1.99016,1.09848 0.10976,0 1.20899,0.64409 2.44274,1.4313 1.23374,0.78722 2.59198,1.65042 3.0183,1.91823 1.08682,0.68273 1.20279,1.18548 0.20762,0.90007 -1.40446,-0.40279 -3.46732,-1.47236 -8.95064,-4.64077 -3.80611,-2.19927 -4.8644,-2.54943 -4.8644,-1.60946 0,0.33164 1.47603,1.64369 2.91041,2.58709 0.3638,0.23927 1.3163,0.91176 2.11667,1.49442 1.46989,1.07007 5.85807,3.75576 7.80129,4.77462 1.57258,0.82452 1.95254,0.73731 2.14933,-0.49333 0.092,-0.5754 0.39107,-1.24869 0.66458,-1.49622 0.27352,-0.24752 0.4973,-0.53769 0.4973,-0.64481 0,-0.1763 -3.84073,-2.89822 -4.0895,-2.89822 -0.0578,0 -1.03646,-0.57053 -2.17493,-1.26784 -4.90294,-3.00303 -10.71586,-6.17909 -11.06439,-6.04534 -0.20765,0.0797 -2.13838,1.18229 -4.29051,2.45024 -2.15213,1.26795 -4.44874,2.59559 -5.10359,2.9503 -0.65484,0.35472 -1.96453,1.10404 -2.91041,1.66518 -2.01171,1.19341 -3.76364,1.86066 -4.19134,1.59633 -0.58429,-0.36111 -0.64449,-2.46452 -0.0989,-3.4541 0.46969,-0.85187 2.9304,-2.78983 5.08395,-4.00393 0.50932,-0.28714 1.58088,-0.93123 2.38125,-1.43131 0.80036,-0.50009 2.52677,-1.45496 3.83645,-2.12194 1.30969,-0.66699 2.67891,-1.37303 3.04271,-1.56899 2.31923,-1.24923 2.3337,-1.24915 4.90902,0.0271 1.30186,0.64518 2.96234,1.52413 3.68994,1.95321 0.7276,0.42908 1.60636,0.90313 1.95279,1.05345 0.34642,0.15031 0.97123,0.51638 1.38846,0.81347 0.41724,0.29709 1.53982,0.94024 2.49464,1.42921 0.95482,0.48897 1.8881,1.01524 2.07396,1.16949 0.44007,0.36523 2.58829,1.12238 2.74365,0.96702 0.12048,-0.12049 -2.22713,-1.7637 -3.66126,-2.56271 -0.42253,-0.2354 -0.96488,-0.59121 -1.20523,-0.79068 -0.24034,-0.19947 -1.04543,-0.66932 -1.78908,-1.04411 -0.74365,-0.37478 -3.0707,-1.66864 -5.17121,-2.87524 -2.10051,-1.2066 -4.08668,-2.31572 -4.4137,-2.46472 -0.51142,-0.23302 -1.20481,0.0854 -4.95804,2.27686 -2.3999,1.40128 -4.42978,2.54778 -4.51085,2.54778 -0.0811,0 -0.77478,0.40027 -1.5416,0.8895 -1.58871,1.0136 -5.38703,2.81467 -5.93592,2.81467 -0.42124,0 -0.88223,-1.05276 -0.88223,-2.01474 0,-1.05474 0.68182,-2.08687 2.10184,-3.18172 2.38311,-1.8374 10.20924,-6.43134 10.9742,-6.44186 0.13406,-0.002 0.43172,-0.16281 0.66146,-0.3577 0.22974,-0.1949 1.22163,-0.68912 2.2042,-1.09827 1.78384,-0.7428 1.78807,-0.7432 2.84427,-0.26692 1.21801,0.54925 1.37803,1.2241 0.39632,1.6714 -0.84186,0.38358 -0.87227,1.34747 -0.0661,2.09668 0.70299,0.65336 3.34745,2.44938 3.60647,2.44938 0.0989,0 1.00969,0.53747 2.02393,1.19439 2.31335,1.49833 7.05098,3.83269 7.77852,3.83269 1.69995,0 -0.39531,-2.17198 -4.33161,-4.49022 -5.4295,-3.19763 -8.14382,-5.03478 -7.43872,-5.03478 0.10012,0 1.06086,0.40604 2.13498,0.90232 1.67218,0.77259 3.29925,1.66034 7.67117,4.18547 0.43573,0.25167 1.56615,0.82753 2.51203,1.2797 l 1.71979,0.82213 2.64584,-1.34802 c 1.45521,-0.74141 3.5388,-1.87691 4.63021,-2.52331 1.0914,-0.64642 2.63921,-1.54266 3.43958,-1.99166 1.810206,-1.01552 3.463346,-1.96306 5.667786,-3.24867 1.98745,-1.15905 6.64897,-3.49913 7.45167,-3.74073 0.71123,-0.21407 3.63295,1.14563 8.13524,3.78596 2.00584,1.17631 2.91399,1.69955 5.99738,3.45546 0.80037,0.45579 2.46724,1.41682 3.70417,2.13563 1.23693,0.71881 3.21544,1.80311 4.39669,2.40955 l 2.14773,1.10263 1.68873,-0.84373 c 2.49999,-1.24906 3.10544,-1.58818 4.99601,-2.79828 0.94589,-0.60544 1.89839,-1.18493 2.11667,-1.28776 0.21828,-0.10283 0.99219,-0.51637 1.71979,-0.91898 5.74292,-3.17777 7.43217,-3.7461 8.92147,-3.00156 1.00592,0.50289 1.32867,1.35927 0.51228,1.35927 -0.85837,0 -1.36396,0.29049 -1.36396,0.78367 0,0.67738 2.50353,2.9293 4.58955,4.12829 0.99629,0.57264 2.12738,1.2341 2.51355,1.4699 1.218,0.74377 6.49756,3.37659 7.09599,3.53865 1.6109,0.43623 0.32253,-1.52073 -1.91517,-2.90905 -2.79197,-1.7322 -6.43845,-3.9563 -7.09748,-4.32896 -0.99578,-0.56308 -2.5406,-1.88073 -2.5406,-2.16698 0,-0.31306 1.16017,0.12705 3.175,1.20443 0.94588,0.50579 2.01745,1.06986 2.38125,1.25348 0.3638,0.18362 1.25405,0.72081 1.97834,1.19375 0.72428,0.47295 1.44997,0.8599 1.61264,0.8599 0.16266,0 0.51125,0.23812 0.77464,0.52917 0.26339,0.29104 0.56445,0.52916 0.66903,0.52916 0.31464,0 2.29086,1.9418 2.60773,2.5623 0.61414,1.20265 0.19969,3.25854 -0.6569,3.25854 -0.5466,0 -3.61315,-1.47519 -5.37563,-2.58599 -0.78806,-0.49667 -1.6215,-0.98122 -1.85208,-1.07676 -0.23057,-0.0955 -2.16649,-1.21583 -4.30203,-2.48952 -2.13555,-1.2737 -4.06917,-2.38733 -4.29695,-2.47473 -0.24875,-0.0955 -2.02656,0.74333 -4.45158,2.10029 -2.22058,1.24257 -4.36656,2.38367 -4.76885,2.53578 -0.40228,0.15211 -1.05712,0.49821 -1.4552,0.76911 -1.57203,1.06979 -3.91282,2.56568 -4.16337,2.66061 -0.14552,0.0551 -0.66479,0.51595 -1.15393,1.02403 -0.94235,0.97883 -0.99982,1.5768 -0.32052,3.33518 0.25228,0.65305 0.38973,0.731 1.01541,0.57591 1.07442,-0.26634 3.9351,-1.74618 7.13023,-3.6885 4.92379,-2.99318 6.69027,-4.38421 6.69027,-5.26831 0,-0.92035 -1.69924,-0.30439 -6.08542,2.20591 -5.52711,3.16328 -9.6991,4.95924 -7.75936,3.34025 0.41135,-0.34332 1.10509,-0.8232 1.54165,-1.06638 0.43657,-0.24318 1.15094,-0.67488 1.5875,-0.95933 0.43657,-0.28446 1.03188,-0.63774 1.32292,-0.78508 0.29104,-0.14733 0.70776,-0.37645 0.92604,-0.50915 0.3798,-0.23088 3.49136,-2.02553 5.15938,-2.97575 0.93853,-0.53466 2.35213,-1.2358 3.39135,-1.6821 0.63396,-0.27225 0.95776,-0.23391 2.16373,0.25623 0.78001,0.31702 1.57561,0.69729 1.76801,0.84504 0.1924,0.14775 1.42139,0.78429 2.73107,1.41452 2.13901,1.02932 3.60724,1.90779 8.2989,4.9654 1.72728,1.12569 2.90527,2.32206 3.11699,3.16564 0.20985,0.8361 -0.0725,2.49323 -0.46626,2.7366 -0.35966,0.22228 -2.15549,-0.35606 -3.14009,-1.01126 -0.36618,-0.24368 -1.02297,-0.63856 -1.45954,-0.87753 -2.80464,-1.53517 -3.49603,-1.93125 -4.09351,-2.34505 -0.36794,-0.25483 -2.31138,-1.39195 -4.31876,-2.52694 -3.12296,-1.76574 -3.73615,-2.02425 -4.24819,-1.79095 -0.32913,0.14997 -2.31814,1.25879 -4.42002,2.46404 -2.10188,1.20527 -4.22277,2.40337 -4.71309,2.66246 -0.49032,0.2591 -1.08564,0.6319 -1.32292,0.82845 -0.72788,0.60294 -3.80009,2.09427 -5.12778,2.48916 -1.60317,0.47683 -1.63206,0.97398 -0.18527,3.18822 1.21213,1.85511 1.03803,1.83922 3.86745,0.35293 1.62846,-0.85544 1.8001,-0.95596 3.97162,-2.32627 0.75347,-0.47547 1.59083,-0.95313 1.8608,-1.06147 0.86018,-0.34519 4.19416,-2.69307 4.96155,-3.49406 0.87677,-0.91514 0.76937,-1.74589 -0.18734,-1.44915 -1.3054,0.40489 -4.43641,2.00355 -6.94662,3.54687 -1.78828,1.09947 -6.45426,3.29996 -6.62829,3.12593 -0.28796,-0.28797 3.6029,-2.95272 6.76058,-4.63016 1.09141,-0.57978 2.40109,-1.30024 2.91042,-1.60103 1.50781,-0.89045 5.31558,-2.70684 5.67447,-2.70684 0.1826,0 1.51061,0.59268 2.95115,1.31708 1.44055,0.7244 2.73823,1.32477 2.88375,1.33416 0.14552,0.009 1.09802,0.54475 2.11667,1.18968 1.01865,0.64493 2.64119,1.59946 3.60565,2.12118 2.19145,1.18546 5.20154,3.64482 5.53524,4.52251 0.37341,0.98215 0.30528,2.37081 -0.13422,2.73556 -0.23584,0.19573 -0.69871,0.25171 -1.18965,0.14388 -1.08709,-0.23876 -4.07406,-1.71879 -5.73049,-2.83942 -0.74418,-0.50346 -1.56121,-0.99526 -1.81563,-1.09289 -0.25441,-0.0976 -2.11777,-1.20024 -4.14079,-2.45025 -2.09824,-1.29649 -3.84509,-2.2087 -4.06671,-2.12366 -0.21367,0.082 -2.32535,1.27164 -4.69262,2.64365 -2.36726,1.37201 -5.11638,2.89459 -6.10915,3.38352 -0.99277,0.48892 -2.24293,1.11578 -2.77813,1.393 -0.5352,0.27723 -1.42851,0.5903 -1.98514,0.69571 -0.85954,0.16278 -1.10693,0.0968 -1.64162,-0.4379 -0.34626,-0.34626 -0.82344,-0.62956 -1.06039,-0.62956 -0.64567,0 -6.60556,-3.02809 -9.11823,-4.63277 -2.91066,-1.85885 -13.70725,-8.33182 -13.89707,-8.33182 -0.12392,0 -2.75325,1.51805 -5.84294,3.37344 -5.91826,3.55397 -6.43445,3.85219 -10.591506,6.11919 -3.8182,2.08221 -6.67116,3.47196 -7.12745,3.47196 -0.22027,0 -0.70463,0.30414 -1.07636,0.67586 l -0.67586,0.67586 -1.69696,-0.54823 c -0.93332,-0.30152 -2.27405,-0.90332 -2.97939,-1.33732 -0.70534,-0.434 -1.41408,-0.78909 -1.57498,-0.78909 -0.16089,0 -1.02939,-0.47625 -1.92998,-1.05833 -0.9006,-0.58209 -1.73277,-1.05834 -1.84927,-1.05834 -0.11649,0 -0.64091,-0.29119 -1.16536,-0.6471 -1.33942,-0.90895 -4.23566,-2.29063 -5.30898,-2.53271 -0.76102,-0.17163 -1.06923,-0.0831 -1.96211,0.56371 -0.5826,0.42204 -1.05927,0.84271 -1.05927,0.93482 0,0.0921 0.62507,0.0919 1.38906,-5.2e-4 1.31983,-0.15965 3.29825,0.25173 4.43177,0.9215 0.21828,0.12898 0.57547,0.30839 0.79375,0.39868 1.65558,0.68485 4.13315,1.91644 5.68854,2.82774 4.06612,2.38233 5.54945,3.11259 7.30342,3.59557 l 1.218,0.33538 3.14763,-2.04916 c 1.73119,-1.12705 4.51684,-2.76729 6.19033,-3.64497 1.673476,-0.87769 3.589046,-1.96782 4.256806,-2.42251 0.66775,-0.4547 1.62025,-0.97545 2.11666,-1.15723 0.49641,-0.18178 1.25975,-0.51869 1.69632,-0.74868 3.35583,-1.76791 6.00189,-2.9891 6.47674,-2.9891 0.5366,0 2.44232,0.73345 3.57742,1.37683 0.29105,0.16496 2.37464,1.30533 4.63021,2.53415 2.25557,1.22882 4.41708,2.4589 4.80335,2.7335 0.38626,0.2746 0.81233,0.49927 0.94682,0.49927 0.13449,0 0.83048,0.37506 1.54666,0.83347 0.71617,0.45841 1.71885,1.09527 2.22817,1.41526 3.11918,1.95963 5.82194,3.87064 7.04784,4.98326 1.24758,1.13229 1.50377,1.25807 2.2353,1.09739 0.74944,-0.1646 2.40187,-0.85387 3.41686,-1.42526 0.21828,-0.12288 0.93266,-0.49727 1.5875,-0.83197 0.65484,-0.33471 1.54781,-0.86776 1.98438,-1.18456 0.43656,-0.3168 0.97234,-0.65781 1.19062,-0.7578 0.93014,-0.42607 2.79066,-1.65968 4.16719,-2.76304 1.21085,-0.97056 1.49612,-1.89592 0.58447,-1.89592 -0.56187,0 -3.05498,1.20242 -4.88395,2.3555 -1.23627,0.77942 -1.74512,1.06374 -4.83797,2.70324 -3.58803,1.90199 -5.92789,2.47185 -3.4792,0.84734 0.61904,-0.41069 1.43397,-0.95531 1.81094,-1.21028 0.37697,-0.25496 1.04258,-0.64905 1.47915,-0.87576 1.20294,-0.62467 1.89035,-1.03196 2.28688,-1.35495 0.58889,-0.47968 8.07102,-4.23643 8.80377,-4.42034 0.3723,-0.0934 0.88671,-0.0659 1.14313,0.0613 0.25642,0.12714 1.59731,0.78885 2.97976,1.47047 4.22926,2.08523 9.33767,5.18605 11.50937,6.98622 1.83777,1.52336 2.51717,3.45543 1.63792,4.65787 -0.30014,0.41047 -0.48582,0.43511 -1.38906,0.18434 -1.54152,-0.42798 -1.62207,-0.36706 -0.57543,0.43519 1.30576,1.00086 2.07401,2.46343 2.23676,4.2583 0.1865,2.05674 -0.14396,2.32261 -2.03003,1.63323 -0.77155,-0.28201 -1.596,-0.67784 -1.83211,-0.87962 -0.58154,-0.49697 -5.24495,-3.34242 -6.24253,-3.80897 -1.41761,-0.66299 -3.52424,-2.04698 -4.7701,-3.13382 -1.101,-0.96047 -0.28795,-0.70208 2.55347,0.81151 1.21496,0.6472 2.56622,1.35815 3.00278,1.57989 0.43656,0.22174 1.27,0.69363 1.85208,1.04865 2.12679,1.29714 5.41133,2.83154 5.87151,2.74292 0.79181,-0.15249 0.68912,-0.92705 -0.23365,-1.76244 -1.11771,-1.01185 -3.47942,-2.63286 -4.54713,-3.121 -0.45438,-0.20773 -1.18333,-0.61026 -1.61989,-0.89451 -0.43657,-0.28424 -1.09119,-0.64592 -1.45473,-0.80374 -0.36353,-0.1578 -0.83978,-0.44563 -1.05833,-0.6396 -0.65358,-0.58009 -4.05259,-2.24034 -4.74397,-2.3172 -0.49444,-0.055 -0.67993,0.081 -0.80516,0.59004 -0.16844,0.68471 -4.00063,3.96875 -4.63118,3.96875 -0.18629,0 -0.48844,0.18041 -0.67143,0.40091 -0.183,0.22049 -0.88219,0.68053 -1.55376,1.0223 -2.43255,1.23795 -3.85014,2.03896 -4.2518,2.40245 -0.22538,0.20396 -0.70722,0.49996 -1.07075,0.65777 -0.36354,0.15781 -1.01816,0.51993 -1.45473,0.80471 -0.43656,0.28478 -1.23215,0.75756 -1.76798,1.05062 -0.86536,0.4733 -1.52319,1.06958 -1.17998,1.06958 0.52811,0 5.26831,-2.53234 10.82158,-5.78118 2.2932,-1.34159 4.34866,-2.50802 4.56768,-2.59207 0.23291,-0.0894 2.10565,0.86512 4.51112,2.2992 4.2924,2.55904 4.73351,2.81378 7.01767,4.05273 3.18894,1.72969 4.80322,3.06895 5.38897,4.47085 0.57019,1.36466 0.4707,3.63588 -0.15927,3.63588 -0.2844,0 -3.31077,-1.42587 -4.05495,-1.91049 -0.28587,-0.18615 -1.23837,-0.75691 -2.11667,-1.26835 -0.87831,-0.51144 -1.83504,-1.07792 -2.12608,-1.25884 -1.35236,-0.84069 -7.13322,-3.5645 -8.30129,-3.91138 -0.95305,-0.28302 -1.49667,-0.31561 -2.00988,-0.12049 -1.21917,0.46353 -1.23911,0.30364 -0.13609,-1.09178 0.59093,-0.74758 1.02718,-1.49173 0.96944,-1.65365 -0.16417,-0.4604 -1.45544,-0.24717 -2.95959,0.48874 -0.75552,0.36964 -1.45762,0.67208 -1.56023,0.67208 -0.60669,0 -6.1282,3.63832 -6.36036,4.19106 -0.48325,1.15062 1.84851,1.04167 4.08612,-0.19092 0.80037,-0.44088 1.87193,-1.02975 2.38125,-1.30859 2.50886,-1.37355 2.80099,-0.86781 0.51486,0.89133 -0.95508,0.73492 -1.56932,1.39846 -1.52135,1.64348 0.11689,0.59703 1.92953,1.4529 3.37029,1.59134 1.35372,0.13007 2.13412,-0.3316 2.13412,-1.26252 0,-0.65086 -0.68659,-0.83293 -1.98438,-0.52625 -1.43545,0.33923 -2.31384,0.3251 -2.19371,-0.0353 0.20567,-0.61702 3.76764,-2.58187 4.70839,-2.59724 0.78442,-0.0128 3.60652,1.17564 5.55511,2.33938 3.22993,1.92899 5.51648,3.20173 5.75207,3.20173 0.16105,0 0.83875,0.41672 1.506,0.92604 0.66725,0.50932 1.27035,0.92604 1.34023,0.92604 0.35736,0 3.38707,2.52983 3.60731,3.01213 0.37603,0.82348 3.01341,2.48292 7.56026,4.75692 2.21273,1.10664 4.65351,2.41048 5.42395,2.89741 0.77045,0.48694 1.5794,0.9664 1.79768,1.06548 0.21829,0.0991 0.75407,0.41564 1.19063,0.70348 0.43656,0.28783 0.97234,0.60163 1.19062,0.69733 0.62827,0.27544 4.76194,3.05645 4.91771,3.30849 0.44501,0.72004 -2.74917,-0.56872 -4.68636,-1.89081 -0.81864,-0.55871 -2.21937,-1.38481 -3.11272,-1.83577 -0.89336,-0.45097 -2.27296,-1.23489 -3.06579,-1.74206 -1.74328,-1.11516 -7.40633,-3.88749 -10.4745,-5.12777 -1.22731,-0.49612 -3.12443,-1.28564 -4.21584,-1.75449 -1.89349,-0.81342 -5.79114,-2.12723 -12.43541,-4.19173 -4.3987,-1.36675 -17.00798,-4.00843 -20.90209,-4.37903 -1.81901,-0.17312 -4.14072,-0.47851 -5.15937,-0.67865 -2.96041,-0.58166 -8.06201,-0.7963 -18.12396,-0.76253 -11.989466,0.0402 -17.807766,0.59085 -27.913536,2.64158 -1.74625,0.35436 -3.48745,0.64202 -3.86934,0.63924 -0.38188,-0.003 -1.21532,0.18033 -1.85208,0.40691 -0.63676,0.22658 -2.88415,0.81139 -4.9942,1.29958 -3.62077,0.8377 -12.46122,3.77679 -16.53646,5.49769 -1.01865,0.43016 -2.63884,1.11527 -3.60042,1.52248 -2.58634,1.09524 -10.67412,5.18536 -12.80375,6.47506 -2.61918,1.58617 -7.65331,4.10781 -8.20072,4.10781 -0.2731,0 0.22072,-0.52938 1.21341,-1.30079 z m 25.49492,-13.00025 c 0.13824,-0.13807 0.41873,-0.25104 0.62331,-0.25104 0.20458,0 2.21786,-0.90746 4.47397,-2.01658 4.33382,-2.13054 6.60273,-3.82781 6.27137,-4.69132 -0.092,-0.23972 -0.31797,-0.43585 -0.50218,-0.43585 -0.4728,0 -2.78059,1.03561 -3.61805,1.62358 -0.38626,0.2712 -0.85128,0.49308 -1.03336,0.49308 -0.18208,0 -0.69948,0.28001 -1.14978,0.62225 -0.4503,0.34223 -1.23544,0.83627 -1.74476,1.09786 -1.71444,0.88055 -5.82084,3.6333 -5.82084,3.90204 0,0.32084 2.12774,0.0281 2.50032,-0.34402 z m 109.247036,-0.8659 c -0.99714,-0.77473 -1.99158,-1.49042 -2.20986,-1.59041 -0.21828,-0.1 -0.75406,-0.41686 -1.19062,-0.70414 -0.43657,-0.28727 -1.09119,-0.65144 -1.45473,-0.80925 -0.36353,-0.15781 -0.83978,-0.44547 -1.05833,-0.63926 -0.68683,-0.609 -5.04503,-2.78583 -5.57748,-2.78583 -0.7976,0 -0.6217,0.99518 0.31868,1.80302 0.45491,0.39078 1.43718,1.09429 2.18282,1.56336 1.65554,1.04145 7.78658,4.04195 8.25908,4.04195 0.18779,0 0.41502,0.11906 0.50496,0.26458 0.0899,0.14552 0.58538,0.26459 1.10099,0.26459 h 0.93748 z m 2.70287,-3.67499 c 0.14879,-0.4688 -0.0193,-0.76377 -0.84207,-1.47801 -1.05309,-0.91414 -2.83346,-2.17887 -3.54149,-2.51578 -0.21828,-0.10387 -0.75406,-0.41469 -1.19063,-0.69072 -0.43656,-0.27602 -1.74625,-1.00521 -2.91041,-1.62042 -1.16417,-0.61521 -2.41433,-1.31942 -2.77813,-1.56491 -0.85035,-0.57381 -2.36752,-1.2626 -3.03312,-1.37703 -1.93987,-0.3335 1.19498,2.76712 4.75291,4.701 0.43657,0.2373 1.4209,0.90973 2.18741,1.4943 1.51215,1.15323 2.26357,1.60472 4.69176,2.81906 1.91441,0.9574 2.4197,1.0015 2.66377,0.23251 z m -94.852646,-0.89171 c 0.47588,-0.5734 0.0775,-1.13631 -1.15107,-1.62632 -1.11162,-0.44337 -2.30692,-0.26583 -2.30692,0.34265 0,0.22213 0.29224,0.69611 0.64943,1.05329 0.75986,0.75987 2.26655,0.88346 2.80856,0.23038 z m 10.8352,-3.01253 c -0.30772,-0.43216 -0.67302,-0.8559 -0.81176,-0.94165 -0.44686,-0.27618 -0.26836,-0.91843 0.25526,-0.91843 0.71215,0 1.34456,-0.27369 1.34456,-0.58189 0,-0.70922 -3.20709,-3.45881 -5.5113,-4.72509 -0.53405,-0.29349 -1.40874,-0.79706 -1.94377,-1.11905 -2.90303,-1.74709 -6.56268,-3.62814 -7.05869,-3.62814 -0.97448,0 -0.65893,0.93404 0.68928,2.04023 1.40378,1.15179 4.00068,2.88922 4.74164,3.17235 0.40571,0.15503 6.07572,3.87096 6.41495,4.20415 0.0606,0.0595 0.0539,0.16458 -0.0149,0.23339 -0.24885,0.24885 -2.11074,-0.43389 -3.86228,-1.41628 -3.29975,-1.85073 -5.89038,-3.20883 -5.89038,-3.08794 0,0.2053 4.40872,3.26445 5.74327,3.98517 0.6975,0.37669 2.33457,1.33379 3.63793,2.12691 1.30336,0.79311 2.47233,1.44202 2.59771,1.44202 0.12537,0 -0.0238,-0.35358 -0.33155,-0.78575 z m 8.61984,-1.20214 c 2.23549,-0.92539 3.53992,-1.58185 6.058836,-3.04916 0.7276,-0.42384 1.73309,-0.9558 2.23441,-1.18214 0.50133,-0.22633 1.09664,-0.58803 1.32292,-0.80378 0.22628,-0.21574 1.48298,-1.08496 2.79267,-1.9316 3.8182,-2.46824 4.82371,-3.71802 4.09173,-5.08574 -0.39206,-0.73257 -0.83859,-0.64844 -3.12044,0.58794 -1.11629,0.60485 -2.91772,1.56169 -4.00318,2.12633 -1.08546,0.56464 -2.75233,1.53939 -3.70417,2.16611 -3.497756,2.30306 -6.524276,4.24285 -7.719096,4.94739 -2.22614,1.31269 -3.06858,2.34332 -2.43407,2.97782 0.43555,0.43556 2.41092,0.10349 4.48039,-0.75317 z m 39.925506,0.14158 c 0,-0.54961 -0.61115,-1.06324 -3.77779,-3.175 -6.85687,-4.57269 -9.23007,-6.01382 -13.89439,-8.43741 -2.56415,-1.33233 -3.16498,-1.3098 -3.30461,0.12395 -0.0937,0.96215 0.6318,1.76691 3.40098,3.77255 3.96436,2.87127 5.15149,3.66603 6.5956,4.4156 0.80036,0.41542 2.24916,1.21538 3.21956,1.77768 2.59368,1.50291 4.87517,2.29363 6.43773,2.23118 1.21739,-0.0486 1.32292,-0.10516 1.32292,-0.70855 z m -32.77483,-0.5132 c 0.60051,-0.27269 1.17308,-0.62726 1.27238,-0.78794 0.28481,-0.46082 1.15816,-0.34163 1.73682,0.23704 0.38274,0.38274 0.88195,0.52916 1.80406,0.52916 1.43958,0 3.96708,-0.66388 4.50699,-1.18381 0.86608,-0.83404 -0.69953,-2.1567 -2.12582,-1.79594 -0.33735,0.0853 -0.96338,0.49302 -1.39119,0.90599 -0.71771,0.69282 -2.00029,1.03635 -2.00029,0.53576 0,-0.31079 1.28578,-1.43026 2.51354,-2.18843 1.32442,-0.81784 3.97473,-2.0944 4.34827,-2.0944 0.40406,0 3.71158,1.58254 4.64757,2.22372 1.10962,0.76011 2.24895,1.80327 2.24895,2.05911 0,0.47313 -1.16952,0.17228 -2.07859,-0.53471 -0.53026,-0.41238 -1.17913,-0.82792 -1.44192,-0.92341 -0.72305,-0.26273 -2.30032,0.49024 -2.30032,1.09814 0,0.68994 0.4054,0.97472 2.09854,1.47411 2.01023,0.59292 3.59243,0.55374 4.25146,-0.10529 0.6887,-0.6887 1.12257,-0.66729 2.32078,0.1145 1.12349,0.73303 2.97089,1.17332 2.97089,0.70804 0,-0.27933 -1.40907,-1.35383 -4.36563,-3.32903 -1.56226,-1.04371 -7.92178,-4.63726 -8.20657,-4.63726 -0.10843,0 -1.64006,0.82519 -3.40362,1.83376 -1.76356,1.00857 -3.50413,1.95765 -3.86793,2.10908 -0.3638,0.15143 -1.55443,0.81271 -2.64583,1.46953 -1.09141,0.65681 -2.35104,1.36772 -2.79919,1.57979 -0.44815,0.21208 -0.968736,0.57107 -1.156876,0.79776 -0.30091,0.36258 -0.20289,0.41146 0.814816,0.40635 0.63628,-0.003 1.6482,-0.22892 2.24871,-0.50162 z m 39.95303,-2.20455 c 1.3825,-0.76398 3.23124,-1.75703 4.10832,-2.20677 0.87707,-0.44974 1.67297,-0.93133 1.76866,-1.0702 0.0957,-0.13887 1.00742,-0.77269 2.02607,-1.40848 2.20354,-1.37535 3.30729,-2.36263 3.30729,-2.9583 0,-1.1346 -1.35602,-0.70238 -5.33507,1.70051 -3.76067,2.27101 -4.99437,3.04802 -6.04202,3.80539 -2.53835,1.83503 -3.70416,2.83379 -3.70416,3.17337 0,0.70429 1.40056,0.32962 3.87091,-1.03552 z m -7.04591,-4.99395 c 0,-1.09879 -0.29502,-1.85612 -1.02798,-2.63885 -0.50013,-0.5341 -3.45709,-2.64393 -4.79286,-3.41977 -0.50932,-0.29583 -1.28322,-0.76447 -1.71979,-1.04144 -0.43656,-0.27697 -1.50812,-0.88642 -2.38125,-1.35434 -0.87312,-0.46791 -2.18122,-1.24998 -2.90688,-1.73792 -0.72566,-0.48794 -1.4698,-0.88717 -1.65365,-0.88717 -0.18384,0 -0.33426,-0.11033 -0.33426,-0.24518 0,-0.13486 -0.62508,-0.55005 -1.38906,-0.92266 -0.76399,-0.37261 -1.82423,-0.92292 -2.35611,-1.22292 -0.53187,-0.29999 -1.30578,-0.5694 -1.71979,-0.59869 -0.68946,-0.0488 -0.75962,0.0297 -0.83454,0.93354 -0.0714,0.86147 0.0747,1.15409 1.15051,2.30422 0.67777,0.72459 1.84567,1.69826 2.59534,2.16371 0.74966,0.46545 1.64866,1.03589 1.99777,1.26765 0.34911,0.23176 0.94442,0.62594 1.32292,0.87597 0.37849,0.25002 1.06059,0.62483 1.51577,0.8329 0.45517,0.20806 0.91009,0.51178 1.01091,0.67491 0.10082,0.16314 0.79997,0.60558 1.55365,0.98321 0.75369,0.37762 1.54893,0.83891 1.76721,1.02508 0.21829,0.18618 1.34938,0.84779 2.51355,1.47025 1.16416,0.62247 2.83104,1.51665 3.70416,1.98709 0.87313,0.47043 1.6768,0.80025 1.78594,0.73293 0.10914,-0.0673 0.19844,-0.59945 0.19844,-1.18252 z m -41.996796,0.0358 c 0.90631,-0.43501 2.00503,-1.02652 2.44159,-1.31449 0.43656,-0.28796 1.16884,-0.69492 1.62729,-0.90435 0.45845,-0.20944 1.55537,-0.83831 2.437596,-1.3975 0.88223,-0.55918 2.59073,-1.58866 3.79667,-2.28772 4.42087,-2.56272 5.37564,-3.21214 6.89562,-4.69028 1.43161,-1.39219 1.5444,-1.58722 1.46664,-2.53594 -0.10616,-1.29519 -0.67351,-1.41575 -2.33319,-0.49578 -0.65485,0.36298 -1.78594,0.96393 -2.51355,1.33544 -0.7276,0.37151 -1.79916,0.97065 -2.38125,1.33144 -0.58208,0.36078 -1.43714,0.82863 -1.90013,1.03965 -0.463,0.21103 -0.91636,0.50432 -1.00749,0.65176 -0.0911,0.14745 -0.78387,0.57622 -1.53945,0.95283 -2.791256,1.3913 -6.785286,4.07466 -8.442706,5.6722 -1.11486,1.07459 -1.26542,1.35143 -1.26542,2.32669 0,1.38596 0.39338,1.43171 2.71778,0.31605 z m 77.186376,-0.21787 c 0,-0.75678 -2.55233,-2.83106 -6.08542,-4.94561 -0.94588,-0.56611 -2.25557,-1.39866 -2.91041,-1.85011 -0.65485,-0.45145 -2.10094,-1.28625 -3.21354,-1.85511 -1.73559,-0.88738 -2.08372,-0.98383 -2.45099,-0.67902 -0.39333,0.32644 -0.3902,0.41458 0.0385,1.08634 0.5659,0.88667 3.78667,3.40687 5.64435,4.41663 1.8395,0.99987 2.56797,1.42543 3.87897,2.26601 0.61558,0.39469 1.28034,0.71762 1.47726,0.71762 0.19692,0 0.44729,0.0893 0.55639,0.19844 0.25898,0.2591 2.30776,1.09064 2.73411,1.10969 0.1819,0.008 0.33073,-0.20106 0.33073,-0.46488 z M 59.553654,311.08418 c 4.16127,-2.12012 8.74559,-4.77846 8.74559,-5.07136 0,-0.10347 0.35633,-0.39861 0.79185,-0.65587 1.05152,-0.62116 1.42781,-1.34077 1.06024,-2.02759 -0.42988,-0.80324 -0.0767,-0.94331 -6.02438,2.38919 -0.39737,0.22265 -1.55594,0.97051 -2.57458,1.66193 -5.23133,3.55078 -6.46218,4.59969 -6.0949,5.19396 0.20461,0.33107 1.31245,-0.072 4.09618,-1.49026 z m 111.128486,1.04257 c -0.006,-0.25466 -0.72505,-0.9988 -1.59796,-1.65364 -0.87291,-0.65485 -2.17557,-1.63819 -2.8948,-2.18521 -1.13715,-0.86485 -2.83449,-1.90773 -5.48954,-3.37285 -0.39736,-0.21927 -1.41753,-0.79173 -2.26704,-1.27213 -2.47904,-1.4019 -3.48097,-0.91519 -1.90535,0.92557 1.33222,1.5564 4.9681,3.92145 10.15477,6.60542 2.87179,1.48608 4.01882,1.75932 3.99992,0.95284 z m -35.17873,-2.34811 c 0,-0.5103 -0.13335,-1.18789 -0.29633,-1.50574 -0.36079,-0.70361 -1.84284,-2.29771 -2.13621,-2.29771 -0.11664,0 -0.82914,-0.44648 -1.58334,-0.99219 -1.57352,-1.13853 -2.915,-1.99314 -4.05391,-2.5826 -0.43657,-0.22595 -1.10506,-0.61538 -1.48554,-0.86541 -1.47352,-0.96829 -7.25579,-4.31955 -9.20593,-5.33553 -1.61643,-0.84213 -1.71221,-0.86072 -2.05052,-0.39805 -0.6593,0.90165 -0.42538,1.90704 0.73714,3.16823 0.60062,0.65159 1.19553,1.18472 1.32202,1.18472 0.21763,0 1.51562,0.87251 4.94609,3.32476 0.82772,0.5917 1.89123,1.21047 2.36335,1.37505 0.47212,0.16458 1.24568,0.58513 1.71902,0.93455 0.47334,0.34942 1.93218,1.21893 3.24187,1.93224 4.73214,2.57734 6.06007,3.23281 6.28385,3.10173 0.10914,-0.0639 0.19844,-0.53375 0.19844,-1.04405 z m -41.618666,-0.25798 c 0.98938,-0.52385 2.51325,-1.35768 3.38638,-1.85297 0.87312,-0.49528 2.24234,-1.2649 3.042706,-1.71025 0.80036,-0.44536 1.93145,-1.09567 2.51354,-1.44514 0.58208,-0.34947 1.7317,-0.99276 2.5547,-1.42954 0.823,-0.43677 1.53738,-0.88739 1.5875,-1.00137 0.12269,-0.27902 1.73261,-1.39787 2.0114,-1.39787 0.12205,0 0.91535,-0.661 1.7629,-1.4689 1.44557,-1.37793 1.53139,-1.52808 1.38592,-2.42456 -0.0853,-0.52561 -0.25869,-1.05926 -0.38532,-1.18589 -0.13058,-0.13059 -1.07947,0.22802 -2.19242,0.82858 -1.0792,0.58235 -2.49796,1.33645 -3.15281,1.67579 -1.14745,0.5946 -3.72556,2.06875 -5.76663,3.2973 -0.53913,0.32452 -1.158836,0.67366 -1.377116,0.77588 -0.21828,0.10223 -0.69453,0.38634 -1.05833,0.63138 -0.3638,0.24503 -1.85768,1.21919 -3.31972,2.16479 -3.23151,2.09003 -4.08861,3.02439 -4.08861,4.45718 0,0.92532 0.0704,1.03804 0.64851,1.03804 0.35668,0 1.45801,-0.4286 2.4474,-0.95245 z m -6.5187,-3.57686 c 0.25963,-0.48511 0.18075,-0.67332 -0.586,-1.39826 -0.4873,-0.46074 -1.23117,-1.07169 -1.65304,-1.35767 -0.42187,-0.28599 -1.07672,-0.72858 -1.45521,-0.98355 -0.3785,-0.25496 -1.04536,-0.64693 -1.48192,-0.87104 -1.31535,-0.67525 -3.74314,-2.08529 -4.1327,-2.40025 -0.53903,-0.43581 -4.82889,-2.48284 -5.20316,-2.48284 -0.17679,0 -0.32143,0.23299 -0.32143,0.51776 0,0.62253 2.75759,2.89373 5.42395,4.46726 1.01865,0.60114 2.32834,1.44929 2.91042,1.88478 0.58208,0.43548 1.35577,0.92168 1.71931,1.08045 0.36353,0.15877 0.83978,0.44974 1.05833,0.64661 0.36326,0.32723 2.7863,1.40885 3.23232,1.44288 0.10402,0.008 0.32413,-0.23782 0.48913,-0.54613 z m -28.75354,-0.77528 c 3.63377,-1.81384 6.03126,-3.13641 6.93478,-3.82556 0.47551,-0.36269 0.96415,-0.65944 1.08587,-0.65944 0.34967,0 3.30998,-2.28319 3.57552,-2.75769 0.30138,-0.53855 0.0209,-1.47564 -0.44167,-1.47564 -0.69563,0 -3.90066,1.68744 -5.03963,2.65336 -0.29104,0.24682 -1.42214,0.96511 -2.51354,1.59619 -1.09141,0.63108 -2.36013,1.45115 -2.81938,1.82238 -0.45925,0.37122 -1.56058,1.18067 -2.4474,1.79878 -1.64793,1.14859 -2.06803,1.91887 -1.04653,1.91887 0.31123,0 1.53162,-0.48206 2.71198,-1.07125 z m 112.345066,0.68121 c 0,-0.32166 -3.70295,-3.27386 -5.31845,-4.24016 -0.24328,-0.14553 -1.25952,-0.77677 -2.25829,-1.40277 -0.99878,-0.626 -2.05409,-1.27659 -2.34513,-1.44575 -0.29104,-0.16916 -1.02488,-0.63924 -1.63075,-1.04463 -0.60588,-0.40538 -1.28346,-0.73706 -1.50574,-0.73706 -0.22229,0 -0.47774,-0.11907 -0.56768,-0.26459 -0.28161,-0.45565 -1.14732,-0.28865 -1.31974,0.25459 -0.24503,0.77202 0.26188,1.49793 1.58919,2.2758 0.65217,0.38219 1.18576,0.78876 1.18576,0.90348 0,0.11472 0.20836,0.28065 0.46302,0.36874 0.25466,0.0881 1.47505,0.81155 2.71198,1.60771 1.23693,0.79615 3.43537,2.04766 4.88543,2.78112 2.66603,1.34851 4.1104,1.68006 4.1104,0.94352 z m -80.136226,-0.41181 c 0.63696,-0.2955 1.3367,-0.64613 1.55499,-0.77919 1.59909,-0.97476 4.63374,-2.72097 5.95528,-3.4268 0.87194,-0.4657 2.061586,-1.13397 2.643666,-1.48504 0.58209,-0.35106 1.34178,-0.76316 1.68821,-0.91576 0.34642,-0.1526 0.94174,-0.49941 1.32291,-0.7707 0.65604,-0.4669 3.24909,-1.86872 6.59443,-3.56497 2.47357,-1.25422 3.21363,-1.10768 8.38612,1.66051 1.62269,0.86842 2.8095,1.56392 5.42396,3.17859 0.3638,0.22468 1.22514,0.6733 1.91408,0.99693 0.68893,0.32364 2.11768,1.09935 3.175,1.7238 1.05731,0.62446 2.1605,1.2736 2.45154,1.44254 0.29104,0.16893 1.49981,0.79545 2.68614,1.39226 2.11739,1.06519 3.0024,1.31602 3.0024,0.85095 0,-0.28499 -0.75064,-0.80974 -3.60736,-2.52179 -0.70808,-0.42436 -1.52555,-0.97261 -1.81659,-1.21833 -0.29105,-0.24572 -1.66026,-1.07672 -3.04271,-1.84668 -1.38245,-0.76996 -2.87073,-1.66464 -3.30729,-1.98819 -0.87145,-0.64585 -11.52559,-6.92882 -12.16611,-7.17462 -0.32003,-0.1228 -7.27878,3.68803 -12.44014,6.81261 -0.43657,0.26429 -1.924846,1.07642 -3.307286,1.80473 -1.38245,0.72831 -3.2288,1.72345 -4.103,2.21141 -0.8742,0.48797 -2.18389,1.10686 -2.91042,1.37533 -1.72468,0.63729 -2.247,1.10846 -2.247,2.02694 0,0.92673 0.50655,0.97751 2.14918,0.21547 z m 2.89748,-4.72138 c 1.08064,-0.56392 2.7387,-1.49948 3.68459,-2.07902 0.94588,-0.57954 2.35546,-1.39807 3.132376,-1.81896 2.52606,-1.36845 2.92553,-1.60752 3.80533,-2.27737 0.47712,-0.36327 1.36253,-0.9126 1.96757,-1.22075 0.60504,-0.30815 1.14082,-0.65968 1.19062,-0.78118 0.0498,-0.12151 0.68587,-0.62333 1.41347,-1.11516 2.7349,-1.84871 3.82351,-3.53801 3.05876,-4.74659 -0.31121,-0.49182 -1.53056,0.0229 -5.1004,2.15318 -1.41394,0.84375 -2.70345,1.53408 -2.86558,1.53408 -0.16212,0 -0.91026,0.40844 -1.66252,0.90763 -0.75227,0.4992 -1.66541,1.03781 -2.02921,1.19691 -0.363806,0.1591 -1.137706,0.57638 -1.719796,0.92729 -0.58208,0.3509 -1.59587,0.9312 -2.25285,1.28954 -1.59782,0.87152 -4.35859,2.96362 -5.01936,3.80366 -0.76392,0.97116 -0.68662,3.25206 0.1102,3.25206 0.17711,0 1.20616,-0.46139 2.2868,-1.02532 z m 41.654176,0.4902 c 0.35108,-1.10613 -0.1542,-2.08667 -1.87604,-3.6407 -0.93553,-0.84435 -2.38484,-1.93675 -3.22069,-2.42756 -0.83586,-0.49081 -2.29364,-1.39263 -3.23953,-2.00404 -0.94588,-0.61141 -2.64478,-1.61336 -3.77532,-2.22655 -1.13055,-0.61318 -2.38071,-1.38229 -2.77813,-1.7091 -0.39743,-0.32682 -1.82589,-1.15526 -3.17438,-1.84098 -2.67875,-1.36216 -2.85626,-1.31094 -2.73893,0.79028 0.0387,0.69305 2.26936,2.89307 4.54524,4.4828 0.9371,0.65458 2.08223,1.45428 2.54474,1.77712 0.46251,0.32283 1.8121,1.12275 2.99908,1.7776 1.18699,0.65484 3.07077,1.77703 4.18617,2.49376 2.37827,1.52821 5.28007,3.02323 5.91276,3.04627 0.24486,0.009 0.52162,-0.22458 0.61503,-0.5189 z m -75.474026,-3.19125 c 1.63697,-0.86215 3.21444,-1.68787 3.50548,-1.83493 0.29104,-0.14707 0.88636,-0.50249 1.32292,-0.78982 0.43656,-0.28734 1.0914,-0.66686 1.45521,-0.8434 0.95496,-0.46339 3.91192,-2.8591 4.08473,-3.30943 0.14357,-0.37414 -0.25626,-1.4023 -0.54532,-1.4023 -0.0804,0 -0.92374,0.44648 -1.87414,0.99218 -0.9504,0.54571 -2.31377,1.32045 -3.0297,1.72167 -0.71594,0.40121 -1.90315,1.20488 -2.63823,1.78593 -0.73509,0.58106 -1.44458,1.05647 -1.57663,1.05647 -0.49476,0 -5.26863,3.74677 -5.26863,4.13508 0,0.6481 1.2497,0.23426 4.56431,-1.51145 z m 82.835166,0.26023 c 4.14993,-2.08 5.46967,-2.80222 6.00363,-3.28544 0.23834,-0.2157 0.54303,-0.39434 0.6771,-0.39699 0.37989,-0.008 2.31172,-1.37861 3.43338,-2.43683 0.92904,-0.8765 0.98856,-1.01503 0.7042,-1.63913 -0.17084,-0.37495 -0.40246,-0.67786 -0.51472,-0.67315 -0.33679,0.0142 -4.08927,2.14819 -6.26571,3.5633 -5.02384,3.26649 -5.74183,3.76897 -6.89844,4.82785 -1.11044,1.01661 -1.35315,1.65444 -0.62955,1.65444 0.14839,0 1.71894,-0.72632 3.49011,-1.61405 z m -11.19948,-5.88558 c -3.56526,-2.08412 -8.98006,-5.3116 -12.03288,-7.17219 -3.05283,-1.86058 -5.70088,-3.44054 -5.88457,-3.51103 -0.18368,-0.0705 -3.00754,1.46174 -6.27523,3.40495 -6.15666,3.66121 -7.570436,4.47975 -9.806276,5.67758 -0.7276,0.3898 -1.6801,0.975 -2.11667,1.30044 -0.43656,0.32544 -2.07845,1.26983 -3.64864,2.09864 l -2.85489,1.50694 -1.77532,-0.57128 c -0.97642,-0.3142 -1.95391,-0.71583 -2.17219,-0.89251 -0.21828,-0.17668 -0.87312,-0.55347 -1.45521,-0.8373 -0.58208,-0.28384 -1.71317,-0.94327 -2.51354,-1.46541 -1.73015,-1.12872 -8.25833,-4.94044 -8.8504,-5.16764 -0.24839,-0.0953 -1.8184,0.63692 -3.91798,1.82732 -6.8222,3.86797 -12.44749,6.80321 -13.03815,6.80321 -1.02146,0 -1.18221,-2.76915 -0.23375,-4.02656 0.58663,-0.77771 3.68946,-3.03035 5.53507,-4.01843 0.72761,-0.38954 2.09683,-1.18022 3.04271,-1.75708 0.94589,-0.57686 2.01745,-1.16909 2.38125,-1.31607 0.3638,-0.14697 1.68788,-0.80114 2.94239,-1.45371 1.25451,-0.65257 2.45301,-1.18649 2.66334,-1.18649 0.45606,0 6.40514,2.99596 8.2849,4.17228 0.7276,0.45532 1.79916,1.0527 2.38125,1.3275 0.58208,0.2748 1.22174,0.69759 1.42146,0.93951 0.19972,0.24194 0.51214,0.43988 0.69428,0.43988 0.18213,0 0.85216,0.2859 1.48895,0.63532 2.03752,1.11805 2.66193,1.12006 3.83642,0.0123 0.56406,-0.53198 2.03759,-1.62776 3.27451,-2.43507 1.23693,-0.8073 2.9038,-1.90902 3.70417,-2.44827 0.80036,-0.53923 2.05052,-1.30226 2.77812,-1.6956 0.727606,-0.39334 2.064356,-1.15447 2.970556,-1.69141 4.41807,-2.61779 5.98948,-3.4898 6.2888,-3.4898 0.17961,0 0.61052,-0.216 0.95757,-0.48 1.11674,-0.84951 3.50414,-1.79979 4.18508,-1.66583 0.2085,0.041 0.95264,0.36201 1.65365,0.71333 0.701,0.35131 1.89963,0.94906 2.66361,1.32833 0.76399,0.37928 1.94607,1.08732 2.62686,1.57343 0.68079,0.48611 1.87141,1.20478 2.64583,1.59703 0.77442,0.39226 2.13218,1.20226 3.01725,1.80001 0.88506,0.59775 2.11282,1.38448 2.72835,1.74828 1.5534,0.91812 6.09274,4.15867 6.97338,4.97817 0.40018,0.3724 0.7276,0.89293 0.7276,1.15675 0,0.29675 0.19388,0.47967 0.50843,0.47967 0.53335,0 4.64593,-2.06218 5.92505,-2.97101 0.40971,-0.29111 1.54081,-0.94674 2.51354,-1.45697 0.97273,-0.51022 2.00673,-1.1306 2.29778,-1.37861 0.59114,-0.50375 6.07252,-3.18925 6.50957,-3.18925 0.15371,0 1.51065,0.59532 3.01543,1.32292 1.50477,0.7276 2.83473,1.32798 2.95547,1.33416 0.12074,0.006 1.05296,0.54088 2.07161,1.18821 1.01865,0.64733 2.32833,1.4302 2.91042,1.73971 3.41914,1.81807 6.12922,4.12534 6.37322,5.42594 0.20354,1.085 -0.0957,2.47646 -0.57185,2.65918 -0.53681,0.206 -4.43384,-1.79269 -12.65057,-6.48811 -2.31397,-1.32231 -4.03383,-2.1473 -4.27977,-2.05293 -0.63639,0.24421 -6.9289,3.9272 -11.64687,6.81688 -2.34026,1.43337 -4.36432,2.60474 -4.49792,2.60305 -0.1336,-0.002 -3.15994,-1.70827 -6.7252,-3.79239 z m -71.569786,-0.7456 c 1.74625,-0.88082 3.53219,-1.82498 3.96875,-2.09815 0.43656,-0.27317 1.03187,-0.61735 1.32291,-0.76484 0.88403,-0.448 3.11563,-2.1013 4.16719,-3.08731 1.02423,-0.96039 1.1508,-1.28388 0.74998,-1.91691 -0.19038,-0.30068 -0.59732,-0.18213 -2.17876,0.6347 -1.06956,0.55244 -2.30184,1.2679 -2.73841,1.58991 -0.43656,0.32202 -1.92484,1.26317 -3.30729,2.09145 -2.40571,1.44136 -5.82556,3.75778 -6.40863,4.34085 -0.15192,0.15192 -0.20146,0.47102 -0.11009,0.70912 0.22534,0.58722 0.7282,0.421 4.53435,-1.49882 z m 110.860406,1.26588 c 0,-0.47761 -3.21477,-3.02116 -4.53836,-3.59079 -0.31328,-0.13482 -0.64363,-0.3649 -0.73411,-0.51129 -0.22415,-0.3627 -7.20579,-4.48198 -8.5962,-5.07191 -0.9526,-0.40417 -1.44201,0.50686 -0.74956,1.39529 0.33989,0.43608 3.78583,3.11639 4.0066,3.11639 0.0677,0 0.87573,0.50313 1.79553,1.11807 1.88387,1.25949 2.39061,1.55039 5.37652,3.08653 2.24759,1.1563 3.43958,1.31492 3.43958,0.45771 z m -83.343746,-0.13229 c 0,-0.31424 -2.81468,-2.50711 -4.5334,-3.53189 -0.31055,-0.18517 -1.48791,-0.96175 -2.61634,-1.72574 -1.12844,-0.76398 -2.17466,-1.38906 -2.32494,-1.38906 -0.15028,0 -0.4612,-0.16149 -0.69094,-0.35887 -0.22974,-0.19738 -1.28318,-0.82246 -2.34098,-1.38906 -1.63501,-0.87579 -1.96156,-0.97071 -2.17876,-0.63332 -0.14052,0.21828 -0.25732,0.6001 -0.25954,0.84849 -0.004,0.45315 2.99022,3.00213 4.22928,3.6003 0.3638,0.17563 1.01864,0.55488 1.45521,0.84277 0.43656,0.2879 0.97234,0.60239 1.19062,0.69887 0.21828,0.0965 0.57547,0.3244 0.79375,0.5065 0.21828,0.18209 1.5875,0.93892 3.04271,1.68185 2.64972,1.35277 4.23333,1.67043 4.23333,0.84916 z m 53.358146,0.0515 c 1.10943,-0.4439 4.80895,-2.40712 6.56998,-3.48648 0.50932,-0.31217 1.2237,-0.71741 1.5875,-0.90054 2.13744,-1.07591 4.7625,-3.26063 4.7625,-3.96362 0,-0.70902 -0.7319,-1.1112 -1.3969,-0.7676 -5.73355,2.96242 -12.67377,7.64077 -13.42938,9.05264 -0.22831,0.42659 -0.18536,0.5112 0.25953,0.5112 0.29322,0 1.03427,-0.20052 1.64677,-0.4456 z m -47.174336,-1.20805 c 0.92291,-0.47294 1.9927,-1.02169 2.37731,-1.21945 0.95965,-0.49342 4.261966,-2.40948 5.039256,-2.92386 1.03411,-0.68434 2.45589,-1.53169 3.77124,-2.24758 0.67761,-0.3688 1.27292,-0.76348 1.32291,-0.87707 0.05,-0.11358 0.76321,-0.65903 1.58493,-1.21211 0.82172,-0.55308 2.10164,-1.58816 2.84427,-2.30018 1.23694,-1.18598 1.35023,-1.39574 1.35023,-2.50014 0,-1.40164 -0.27607,-1.50348 -1.79648,-0.66269 -3.89727,2.15519 -7.31751,4.12871 -9.84518,5.6808 -0.800366,0.49145 -1.931056,1.15505 -2.512646,1.47466 -0.58159,0.3196 -1.17691,0.72572 -1.32292,0.90249 -0.2274,0.27528 -1.89148,1.49447 -3.24767,2.3794 -0.77468,0.50549 -1.97295,1.85583 -2.22131,2.50322 -0.33419,0.87111 -0.0595,1.86241 0.51613,1.86241 0.25406,0 1.21702,-0.38695 2.13993,-0.8599 z m 41.677466,0.44138 c 0.95981,-2.50121 -1.48977,-4.65989 -10.94753,-9.6475 -1.25411,-0.66136 -2.80993,-1.55858 -3.45739,-1.99383 -1.78082,-1.19715 -2.07891,-1.3677 -4.18006,-2.39161 -2.21295,-1.0784 -2.59325,-0.97801 -2.30054,0.60722 0.22033,1.19315 2.16988,3.22989 4.58709,4.79221 0.84184,0.5441 1.70459,1.1387 1.91722,1.32134 0.68711,0.59017 2.76049,1.90008 3.01538,1.90504 0.13614,0.003 0.49333,0.22388 0.79375,0.49162 1.1868,1.0577 9.15996,5.33403 9.94523,5.33403 0.25644,0 0.53852,-0.18833 0.62685,-0.41852 z M 89.305054,285.2264 c -0.087,-0.22681 -0.11622,-1.41415 -0.0648,-2.63852 0.0872,-2.07872 0.14635,-2.27599 0.89292,-2.97928 1.38941,-1.30886 6.13544,-4.58962 6.63945,-4.58962 0.10211,0 1.26808,-0.69885 2.59105,-1.55301 1.322966,-0.85416 2.941176,-1.82053 3.596026,-2.14749 0.65484,-0.32697 1.36922,-0.74275 1.5875,-0.92396 0.21828,-0.18121 2.06375,-1.19246 4.10104,-2.24723 2.50586,-1.29736 4.00374,-1.91918 4.63021,-1.92216 0.87709,-0.004 3.00824,0.90164 3.32423,1.41292 0.0806,0.13045 0.33112,0.23718 0.55667,0.23718 0.22555,0 1.91517,0.88657 3.7547,1.97015 1.83953,1.08358 3.91932,2.30398 4.62176,2.71198 0.70243,0.40801 1.65493,1.00668 2.11666,1.33039 0.46174,0.3237 1.08658,0.69979 1.38854,0.83574 0.92055,0.41447 3.60123,2.20746 5.32287,3.56026 2.21726,1.74222 2.99165,2.90858 2.99165,4.50591 0,1.68949 -0.35088,2.28349 -1.34888,2.28349 -0.69632,0 -3.00928,-0.89232 -4.20737,-1.62317 -0.21828,-0.13315 -0.87312,-0.4809 -1.45521,-0.77278 -1.11619,-0.55969 -1.46074,-0.76144 -3.17063,-1.85653 -4.08767,-2.61792 -13.68821,-7.95279 -14.05702,-7.81126 -0.23628,0.0907 -3.27514,1.8003 -6.75302,3.79919 -6.0302,3.46582 -7.909306,4.48826 -13.325576,7.25054 -3.02427,1.54237 -3.5283,1.69998 -3.73273,1.16726 z m 46.198356,-3.17614 c 0,-1.0594 -1.4618,-2.5978 -4.09665,-4.31132 -1.02106,-0.66403 -2.2796,-1.48813 -2.79674,-1.83135 -0.51714,-0.34321 -1.0311,-0.62403 -1.14213,-0.62403 -0.11103,0 -0.58088,-0.27892 -1.04411,-0.61982 -0.46324,-0.3409 -1.79475,-1.13251 -2.95891,-1.75913 -1.16417,-0.62661 -2.77151,-1.57937 -3.57188,-2.11722 -0.80036,-0.53786 -1.76703,-1.14524 -2.14815,-1.34973 -0.38112,-0.20449 -1.18887,-0.6442 -1.79501,-0.97712 -1.22677,-0.67382 -1.61309,-0.5926 -1.61309,0.33912 0,1.45185 1.35871,3.38846 2.99063,4.26266 0.40793,0.21852 0.9503,0.59933 1.20529,0.84625 0.67432,0.653 3.74373,2.64943 6.78429,4.41269 1.45521,0.8439 3.23555,1.90279 3.95632,2.35309 0.72077,0.4503 2.26296,1.2616 3.42709,1.80289 2.34967,1.09252 2.80305,1.02345 2.80305,-0.42698 z m -42.730206,0.81743 c 0.88354,-0.34853 3.27409,-1.62446 5.29167,-2.82435 0.7276,-0.43272 1.59499,-0.90543 1.92754,-1.05047 0.332536,-0.14504 1.642226,-0.93809 2.910406,-1.76235 7.27642,-4.72927 8.87026,-6.05103 9.16018,-7.59646 0.16912,-0.90147 -0.003,-1.75883 -0.35383,-1.75883 -0.10434,0 -1.56835,0.82403 -3.25335,1.83118 -1.68501,1.00715 -3.99792,2.34254 -5.1398,2.96754 -1.14189,0.62499 -2.96912,1.70475 -4.060526,2.39945 -1.0914,0.69471 -2.55399,1.56604 -3.25018,1.9363 -0.69619,0.37025 -1.49987,0.90724 -1.78594,1.19332 -0.28607,0.28607 -0.61327,0.52013 -0.72711,0.52013 -0.11385,0 -0.76869,0.55378 -1.45521,1.23063 -0.96858,0.95493 -1.24822,1.41925 -1.24822,2.07257 0,1.28483 0.41456,1.46059 1.98437,0.84134 z m -3.28307,-7.38569 c -0.81392,-3.64143 -0.8198,-3.69455 -0.48554,-4.38616 0.39136,-0.80977 3.61035,-2.90155 10.2509,-6.6613 0.800366,-0.45315 2.229116,-1.28619 3.174996,-1.8512 0.94589,-0.56502 2.55323,-1.46589 3.57188,-2.00195 1.01864,-0.53606 2.16812,-1.19784 2.55438,-1.47062 0.38627,-0.27277 0.85314,-0.49596 1.0375,-0.49596 0.18436,0 0.52317,-0.15465 0.75291,-0.34368 0.22974,-0.18903 1.02336,-0.617 1.76362,-0.95106 l 1.3459,-0.60737 1.8291,0.90976 c 2.32835,1.15809 8.8404,4.89008 9.39054,5.38163 0.22975,0.20528 0.52024,0.37322 0.64556,0.37322 0.29053,0 3.79271,2.06866 4.49299,2.65391 0.29104,0.24323 0.70776,0.52418 0.92604,0.62434 1.80285,0.82718 5.65791,3.73787 6.35869,4.801 0.98126,1.48862 0.5432,4.88534 -0.63004,4.88534 -0.60101,0 -9.11089,-4.23618 -10.35362,-5.15399 -0.95361,-0.70427 -11.79296,-7.20179 -12.40791,-7.43777 -0.27544,-0.10569 -2.6728,1.15612 -6.71289,3.53325 -6.06884,3.5708 -16.772666,9.58767 -17.056166,9.58767 -0.0761,0 -0.27807,-0.62507 -0.44884,-1.38906 z m 46.013276,-1.80333 c 0,-0.73717 -0.1366,-1.60037 -0.30354,-1.91823 -0.45381,-0.86401 -2.26525,-2.41975 -4.12937,-3.54647 -2.82574,-1.70796 -3.62311,-2.17408 -4.03376,-2.35805 -0.21828,-0.0978 -0.57547,-0.3262 -0.79375,-0.50758 -0.21828,-0.18139 -1.11125,-0.71925 -1.98437,-1.19525 -0.87313,-0.47599 -2.06375,-1.14291 -2.64584,-1.48204 -2.21217,-1.28882 -5.84372,-2.99123 -6.38783,-2.9945 -0.64641,-0.004 -0.91765,0.48831 -0.70894,1.28643 0.0787,0.30091 1.11235,1.26592 2.29701,2.14446 1.18466,0.87854 2.74924,2.07927 3.47685,2.6683 0.7276,0.58902 2.15635,1.59219 3.175,2.22926 1.01864,0.63708 2.2688,1.46771 2.77812,1.84585 2.85778,2.12174 8.11309,5.16813 8.91549,5.16813 0.23812,0 0.34493,-0.41503 0.34493,-1.34031 z m -41.774616,-0.51436 c 0.92964,-0.43799 1.86884,-0.90202 2.08712,-1.03119 0.21828,-0.12917 1.52797,-0.88503 2.91042,-1.67969 1.382436,-0.79466 3.091196,-1.78915 3.797226,-2.20996 0.70603,-0.42081 2.22069,-1.32289 3.36591,-2.00461 2.39521,-1.42581 5.66403,-3.9625 6.0603,-4.70294 0.39569,-0.73935 0.32995,-1.59191 -0.13655,-1.77092 -0.5977,-0.22936 -4.3526,1.29026 -6.34002,2.56584 -0.43656,0.2802 -1.03187,0.6232 -1.32292,0.76224 -0.29104,0.13903 -0.88635,0.4972 -1.32291,0.79593 -0.43657,0.29873 -0.96111,0.54393 -1.16565,0.54489 -0.20455,9.6e-4 -0.74033,0.2784 -1.19063,0.61654 -0.4503,0.33813 -0.997316,0.69663 -1.215596,0.79666 -0.21828,0.10003 -0.75406,0.41551 -1.19062,0.70107 -0.43657,0.28556 -1.32953,0.82462 -1.98438,1.19791 -1.5961,0.90984 -2.81434,1.80093 -4.16719,3.04813 -0.96494,0.88958 -1.12447,1.18774 -1.12447,2.10155 0,0.94286 0.0716,1.06489 0.62486,1.06489 0.34367,0 1.38547,-0.35836 2.3151,-0.79634 z"
       id="path3876-2-5"
       inkscape:connector-curvature="0"
       transform="matrix(0.09223721,0,0,0.13555461,8.5086838,231.21636)"
       inkscape:export-filename="C:\Users\Michu\Documents\Serwis - Praca Inż\img\AddCitySel.png"
       inkscape:export-xdpi="91"
       inkscape:export-ydpi="91" />
  </g>
</svg>
