<?xml version="1.0" encoding="UTF-8" standalone="no"?>
<!-- Created with Inkscape (http://www.inkscape.org/) -->

<svg
   xmlns:dc="http://purl.org/dc/elements/1.1/"
   xmlns:cc="http://creativecommons.org/ns#"
   xmlns:rdf="http://www.w3.org/1999/02/22-rdf-syntax-ns#"
   xmlns:svg="http://www.w3.org/2000/svg"
   xmlns="http://www.w3.org/2000/svg"
   xmlns:sodipodi="http://sodipodi.sourceforge.net/DTD/sodipodi-0.dtd"
   xmlns:inkscape="http://www.inkscape.org/namespaces/inkscape"
   width="210mm"
   height="40mm"
   viewBox="0 0 210 40"
   version="1.1"
   id="svg33483"
   inkscape:version="0.92.4 (5da689c313, 2019-01-14)"
   sodipodi:docname="CreateMapSel.svg">
  <defs
     id="defs33477">
    <filter
       inkscape:label="Inset"
       inkscape:menu="Shadows and Glows"
       inkscape:menu-tooltip="Shadowy outer bevel"
       style="color-interpolation-filters:sRGB"
       id="filter1603-0-1-1-5">
      <feMorphology
         result="result1"
         in="SourceAlpha"
         operator="dilate"
         radius="3.6"
         id="feMorphology1591-3-4-7-7" />
      <feGaussianBlur
         stdDeviation="3.6"
         in="result1"
         result="result0"
         id="feGaussianBlur1593-7-7-0-1" />
      <feDiffuseLighting
         surfaceScale="-5"
         id="feDiffuseLighting1597-6-8-7-1">
        <feDistantLight
           elevation="45"
           azimuth="225"
           id="feDistantLight1595-2-0-3-2" />
      </feDiffuseLighting>
      <feComposite
         in2="result0"
         operator="in"
         result="result91"
         id="feComposite1599-7-1-6-6" />
      <feComposite
         in="SourceGraphic"
         in2="result91"
         id="feComposite1601-5-6-0-8" />
    </filter>
  </defs>
  <sodipodi:namedview
     id="base"
     pagecolor="#ffffff"
     bordercolor="#666666"
     borderopacity="1.0"
     inkscape:pageopacity="0.0"
     inkscape:pageshadow="2"
     inkscape:zoom="2.4200953"
     inkscape:cx="85.409975"
     inkscape:cy="161.00045"
     inkscape:document-units="mm"
     inkscape:current-layer="layer1"
     showgrid="false"
     inkscape:pagecheckerboard="true"
     inkscape:window-width="1920"
     inkscape:window-height="1018"
     inkscape:window-x="-8"
     inkscape:window-y="-8"
     inkscape:window-maximized="1" />
  <metadata
     id="metadata33480">
    <rdf:RDF>
      <cc:Work
         rdf:about="">
        <dc:format>image/svg+xml</dc:format>
        <dc:type
           rdf:resource="http://purl.org/dc/dcmitype/StillImage" />
        <dc:title></dc:title>
      </cc:Work>
    </rdf:RDF>
  </metadata>
  <g
     inkscape:label="Layer 1"
     inkscape:groupmode="layer"
     id="layer1"
     transform="translate(0,-257)">
    <path
       style="display:inline;opacity:0.99500002;fill:#b0b3b3;fill-opacity:0.78039216;stroke:#000000;stroke-width:2.58977938;stroke-miterlimit:4;stroke-dasharray:none;stroke-opacity:1"
       d="M 9.9857296,283.32635 C 8.3407172,283.1934 7.1168264,282.78764 6.0161737,282.01031 5.4055262,281.57905 4.3963146,280.661 4.1709885,280.3318 c -1.1095344,-1.621 -1.6141417,-2.88428 -1.986982,-4.97441 -0.2590435,-1.4522 -0.2594407,-1.58558 -0.00847,-2.90997 0.3468267,-1.83048 0.6912149,-2.87467 1.3108602,-3.97464 0.2804977,-0.49793 0.5455819,-0.9344 0.589086,-0.96998 0.043515,-0.0356 0.2677736,-0.28079 0.4983762,-0.54496 0.7079858,-0.811 1.2108385,-1.21864 2.078814,-1.68521 1.1869932,-0.63806 1.7627369,-0.76318 3.3830821,-0.73528 0.786456,0.0135 1.502766,-0.0138 1.591793,-0.0608 0.08903,-0.047 0.414105,-0.52707 0.722384,-1.06689 0.598429,-1.04789 2.26674,-2.87591 3.109215,-3.40687 1.850007,-1.16594 2.421895,-1.38695 4.168032,-1.61088 1.404734,-0.18015 1.538843,-0.17621 2.698211,0.0789 1.243171,0.27361 2.24604,0.64209 2.62275,0.96367 0.115341,0.0984 0.262232,0.179 0.326429,0.179 0.236196,0 2.135913,1.69775 2.709909,2.42181 0.812602,1.02503 1.589517,2.28917 1.929476,3.13947 0.385884,0.96512 0.479926,1.05283 1.038263,0.96817 0.576891,-0.0875 2.3478,0.3342 2.955855,0.70379 0.242508,0.14741 0.503314,0.26801 0.579584,0.26801 0.166935,0 0.60435,0.41609 1.680973,1.59898 0.860693,0.94564 1.603662,2.38988 1.847287,3.59087 0.522553,2.57609 0.517885,2.49909 0.235639,3.89118 -0.561613,2.76991 -1.261139,4.05559 -3.048447,5.6028 -0.905712,0.78404 -2.08745,1.31042 -3.332721,1.4845 -0.813788,0.11375 -20.530125,0.15271 -21.8846238,0.0432 z"
       id="path3450-4"
       inkscape:connector-curvature="0" />
    <path
       style="display:inline;opacity:0.99500002;fill:#740000;fill-opacity:1;stroke:#740000;stroke-width:1.89919913;stroke-miterlimit:4;stroke-dasharray:none;stroke-opacity:1;filter:url(#filter1603-0-1-1-5)"
       d="m 144.03574,200.95281 c -0.36565,-0.3069 -1.03601,-0.55798 -1.48967,-0.55798 -0.82944,0 -2.57165,-0.76028 -3.92401,-1.7124 -0.40036,-0.28187 -1.60435,-0.71181 -2.67553,-0.95543 -1.57402,-0.35797 -2.43379,-0.79076 -4.4819,-2.25604 -1.39384,-0.99719 -3.27724,-2.09213 -4.18534,-2.4332 -0.9081,-0.34106 -2.39076,-1.1646 -3.29479,-1.83008 l -1.6437,-1.20996 -1.36988,0.40679 c -0.75344,0.22374 -2.05873,0.89441 -2.90064,1.4904 -0.84192,0.59598 -2.11796,1.24399 -2.83566,1.44004 -1.58194,0.43209 -1.89517,0.29596 -4.20525,-1.82767 l -1.64515,-1.51234 -1.31836,0.39675 c -1.69196,0.50918 -2.77572,1.56082 -3.40134,3.30052 -0.71363,1.98445 -0.97889,2.12462 -2.59156,1.36932 -1.16136,-0.54393 -1.50405,-0.59024 -2.4451,-0.33041 -1.44968,0.40025 -1.66045,0.12305 -1.27456,-1.67621 0.34709,-1.61839 0.25339,-2.10204 -1.03305,-5.33193 -0.40097,-1.00671 -1.07075,-2.19097 -1.488413,-2.63168 -0.72739,-0.76757 -0.79358,-0.7834 -1.57187,-0.37602 -0.88489,0.46317 -2.2772,1.87561 -2.99515,3.0384 -0.31266,0.50641 -0.7878,0.78904 -1.52916,0.90959 -0.59156,0.0962 -1.41562,0.25393 -1.83126,0.35054 -0.67185,0.15617 -0.85019,0.0239 -1.60724,-1.19117 -0.52938,-0.84974 -0.923903,-1.94431 -1.042802,-2.89323 -0.155279,-1.23917 -0.395982,-1.74845 -1.279269,-2.70665 -0.883531,-0.95847 -1.087993,-1.39122 -1.087993,-2.30271 0,-1.00146 -0.174511,-1.28717 -1.619265,-2.65111 -1.913443,-1.8064 -3.960833,-3.31541 -5.668377,-4.1778 l -1.233033,-0.62273 -1.311135,1.29136 c -0.721131,0.71025 -1.439123,1.29137 -1.595541,1.29137 -0.237883,0 -3.411392,-4.02192 -4.145403,-5.25364 -0.22759,-0.38192 0.990967,-2.42771 1.890889,-3.17454 0.650735,-0.54004 0.563671,-0.76438 -0.60483,-1.55836 -0.83589,-0.56797 -1.397869,-0.71457 -2.745703,-0.71627 -0.932076,-8.6e-4 -2.505543,-0.13368 -3.496584,-0.29448 -1.481005,-0.24029 -2.028753,-0.49203 -3.075823,-1.41367 -0.700663,-0.61671 -1.379838,-1.0154 -1.509275,-0.88596 -0.206846,0.20683 0.653908,2.76939 1.49809,4.46001 0.538243,1.07793 0.204131,1.64147 -1.074743,1.81269 -0.813326,0.10891 -1.519141,0.47294 -2.320398,1.19679 -0.633333,0.57216 -1.340447,1.04028 -1.571359,1.04028 -0.508218,0 -2.061302,-2.07777 -2.30258,-3.08048 -0.302501,-1.25709 -1.978134,-4.35554 -2.73886,-5.06451 -0.402889,-0.37547 -0.732531,-0.8436 -0.732531,-1.04027 0,-0.63527 1.279897,-1.86797 2.272587,-2.18881 0.786941,-0.25434 0.981526,-0.47154 1.05006,-1.17213 0.106744,-1.09126 -1.780632,-3.3677 -2.965811,-3.57722 -0.428584,-0.0758 -1.983136,-0.34819 -3.454541,-0.60539 -1.471417,-0.25717 -3.661516,-0.67262 -4.866887,-0.9232 l -2.191579,-0.45557 -1.046941,-1.69076 c -0.575816,-0.9299 -1.23976,-2.20955 -1.475429,-2.84366 -0.363168,-0.97715 -0.612142,-1.21131 -1.633144,-1.53597 -1.077424,-0.34262 -1.261025,-0.33208 -1.738261,0.0998 -0.293474,0.26558 -0.572356,0.75476 -0.61973,1.08706 -0.110267,0.77349 -0.952565,0.81306 -0.872728,0.041 0.112651,-1.08944 1.128183,-4.24104 1.867685,-5.79613 0.694513,-1.46048 0.726528,-1.69056 0.450616,-3.23835 -0.172606,-0.96829 -0.98805,-3.08158 -1.946789,-5.04535 -0.907372,-1.85853 -1.785411,-3.80501 -1.951205,-4.32549 -0.423421,-1.32933 0.09473,-3.20914 1.386087,-5.02895 1.357892,-1.91352 1.893017,-3.75689 1.447926,-4.98771 -0.179802,-0.49723 -0.326917,-1.34083 -0.326917,-1.87468 0,-0.57133 -0.289621,-1.39682 -0.704027,-2.00663 -0.908373,-1.33673 -0.974107,-3.60928 -0.140804,-4.86746 0.307726,-0.46463 0.56034,-1.0392 0.561362,-1.2768 10e-4,-0.23761 -0.705187,-1.12464 -1.569347,-1.97118 -0.86417,-0.84654 -1.828038,-2.04603 -2.141938,-2.66555 -0.313899,-0.61951 -1.013584,-1.5883 -1.55485,-2.15287 -1.242464,-1.29595 -1.146214,-1.63107 1.146723,-3.992614 2.109231,-2.172358 3.808855,-5.237388 4.101989,-7.3974 0.181514,-1.337519 0.125125,-1.650435 -0.449818,-2.496512 -0.569078,-0.837425 -0.657345,-1.309646 -0.657345,-3.516625 0,-2.094291 0.07642,-2.549313 0.428456,-2.549313 0.642806,0 2.486618,1.304217 3.19139,2.257428 0.930895,1.259038 1.302834,1.074871 1.34347,-0.665232 0.02108,-0.900804 0.23121,-1.803598 0.523854,-2.250211 0.685902,-1.046774 0.374398,-2.276564 -0.519798,-2.052145 -0.417067,0.104621 -0.977396,-0.0712 -1.607004,-0.504288 -0.878049,-0.604024 -1.036436,-0.62913 -1.727467,-0.273877 -0.598253,0.307563 -0.91411,0.32127 -1.478452,0.06418 -0.584926,-0.266501 -0.717672,-0.523871 -0.717672,-1.391543 0,-1.352994 0.338624,-1.550145 1.618977,-0.94261 0.955981,0.453617 1.155783,0.456512 2.872351,0.04151 1.014702,-0.245321 2.731984,-0.506927 3.816177,-0.581354 1.084204,-0.07439 4.062235,-0.664231 6.617844,-1.310677 2.55561,-0.646447 6.288841,-1.41928 8.296054,-1.717422 3.971955,-0.589965 4.674865,-0.892471 5.427331,-2.335697 0.273858,-0.525275 1.131558,-1.478411 1.905981,-2.118078 2.241041,-1.851067 4.017213,-2.54563 7.997438,-3.127389 1.951728,-0.285264 4.475631,-0.716136 5.608677,-0.957498 1.133037,-0.241353 2.847892,-0.438823 3.810771,-0.438823 1.802111,0 3.035558,-0.285031 6.627263,-1.531457 3.38171,-1.173564 4.82691,-0.934234 7.57612,1.254621 2.02053,1.608693 4.001753,4.539611 2.80659,4.151928 -0.1936,-0.0628 -0.56511,-0.559695 -0.82556,-1.104214 -0.48902,-1.0224 -3.62854,-3.334075 -4.52805,-3.334075 -0.74007,0 -0.80876,0.41562 -0.47531,2.875819 0.17397,1.283548 0.38351,2.923 0.46565,3.643245 0.12687,1.112483 0.36732,1.524772 1.59803,2.740142 1.88072,1.85726 3.29278,2.184672 6.791193,1.574624 2.85344,-0.497572 4.53397,-1.109503 5.50818,-2.005709 0.87941,-0.808987 1.58963,-0.839479 2.37474,-0.10196 0.46071,0.432776 1.35982,0.649916 3.9607,0.956509 1.85058,0.21815 4.01533,0.655525 4.81053,0.971942 0.7952,0.316407 3.32969,0.893195 5.63221,1.281739 2.3025,0.388545 6.13395,1.035226 8.51434,1.437064 5.31532,0.897312 10.1503,1.194743 11.72382,0.721224 1.09402,-0.329231 3.69457,-0.721171 6.93648,-1.045453 1.38502,-0.13853 1.75328,-0.06056 2.90771,0.615986 0.727,0.426029 1.62511,1.255015 1.99579,1.84219 0.37069,0.587165 1.23107,1.450857 1.91196,1.919299 1.63763,1.12666 2.09383,2.192643 2.30869,5.394575 0.0983,1.464778 0.35828,3.14099 0.57775,3.724919 0.21948,0.58393 0.39904,1.733078 0.39904,2.553666 0,0.820576 0.17832,2.116876 0.39625,2.880661 0.21796,0.763786 0.48183,2.127785 0.5864,3.031133 0.10463,0.903337 0.43316,2.348752 0.73018,3.212042 0.29703,0.86329 0.54005,1.9027 0.54005,2.3098 0,0.40711 0.31352,1.68614 0.6967,2.84229 0.38319,1.15615 0.69999,2.64485 0.70403,3.30823 0.004,0.72256 0.29564,1.77509 0.72645,2.6252 0.63133,1.24582 0.68015,1.53713 0.39988,2.3863 -0.35151,1.06505 -2.48332,3.22767 -4.31113,4.37343 -0.64506,0.40436 -2.30221,1.80289 -3.68254,3.10784 -3.19504,3.02054 -3.18489,3.12673 0.53212,5.57172 1.47488,0.97014 2.70123,1.78308 2.72518,1.80651 0.024,0.0234 0.119,4.03424 0.21122,8.9129 l 0.16763,8.87029 0.82222,1.83038 c 0.45223,1.00671 1.22939,2.2739 1.72702,2.81597 0.49764,0.54207 1.37114,1.93597 1.94111,3.09757 0.56996,1.16158 1.21845,2.25266 1.44109,2.4246 0.51601,0.39854 0.52672,1.23615 0.0157,1.23615 -0.21395,0 -0.73285,0.4508 -1.15314,1.0018 l -0.76414,1.00179 0.73476,1.11022 c 0.40411,0.61064 1.1749,1.39534 1.71287,1.74378 1.12667,0.72976 1.16881,1.06168 0.32876,2.58926 -0.43907,0.79842 -0.87026,1.17744 -1.53286,1.34736 -0.68637,0.17605 -2.60511,1.94264 -7.51002,6.91458 -3.62347,3.67298 -7.58859,7.85627 -8.81139,9.2962 -1.22279,1.43993 -2.62714,2.86365 -3.12076,3.16382 -0.4936,0.30017 -0.89746,0.67687 -0.89746,0.8371 0,0.16023 0.32851,0.81171 0.73004,1.44773 0.556,0.88072 0.67823,1.33255 0.51272,1.89518 -0.11953,0.40634 -0.20225,1.72115 -0.18383,2.92183 0.0302,1.96862 0.11994,2.30343 0.91353,3.40844 0.72405,1.00817 0.86433,1.44436 0.79144,2.46085 -0.10229,1.42674 -0.57829,1.66877 -1.59826,0.81274 z m -0.69183,-3.14064 c -0.85177,-1.47834 -1.27988,-4.88075 -0.76925,-6.11347 0.2901,-0.70036 0.22669,-0.95131 -0.56033,-2.21731 -1.06998,-1.72115 -0.95335,-2.38715 0.55255,-3.15538 0.62304,-0.31782 2.02495,-1.68696 3.38314,-3.30404 1.27557,-1.51871 5.34021,-5.81648 9.03251,-9.5506 4.96828,-5.02455 6.93247,-6.83314 7.55655,-6.95795 1.17683,-0.23535 1.43501,-1.1696 0.52171,-1.88797 -0.7711,-0.60651 -2.44925,-3.08912 -2.44925,-3.62334 0,-0.18825 0.31681,-0.8085 0.70402,-1.37831 0.38721,-0.56979 0.70403,-1.26319 0.70403,-1.54087 0,-0.73919 -1.80635,-4.19976 -2.53449,-4.85554 -0.78741,-0.70913 -2.35154,-3.82164 -2.75948,-5.49113 -0.20033,-0.81988 -0.26552,-3.60309 -0.18467,-7.8847 0.0742,-3.9265 0.009,-7.19424 -0.16259,-8.03573 -0.27494,-1.35612 -0.37286,-1.47086 -2.23593,-2.62046 -2.16415,-1.33536 -3.66886,-2.86476 -3.66886,-3.72904 0,-0.31204 0.17978,-0.915 0.39951,-1.3399 0.46487,-0.89894 5.03154,-5.19324 6.40652,-6.02443 1.2965,-0.78376 3.11873,-2.43534 3.55048,-3.218 0.30816,-0.55862 0.27198,-0.82235 -0.25396,-1.85136 -0.33733,-0.65998 -0.70937,-1.96027 -0.82678,-2.88954 -0.11739,-0.92926 -0.36311,-2.19645 -0.54602,-2.81595 -0.18291,-0.61951 -0.50575,-2.03624 -0.71741,-3.14827 -0.21165,-1.11203 -0.56271,-2.44754 -0.7801,-2.96782 -0.2174,-0.52029 -0.48829,-1.814517 -0.60198,-2.876053 -0.11369,-1.061546 -0.38475,-2.43473 -0.60239,-3.051503 -0.21761,-0.616774 -0.39567,-1.872076 -0.39567,-2.789569 0,-0.917492 -0.17252,-2.010349 -0.38339,-2.428567 -0.21086,-0.418217 -0.45889,-2.057487 -0.55119,-3.642819 -0.0923,-1.585331 -0.29685,-3.123525 -0.45458,-3.418208 -0.15772,-0.294685 -0.91812,-0.989355 -1.68979,-1.543717 -0.77167,-0.554364 -1.59539,-1.379911 -1.8305,-1.834549 -0.23512,-0.454638 -0.88174,-1.107343 -1.43694,-1.450452 -0.82965,-0.512738 -1.26973,-0.594829 -2.47091,-0.460917 -3.64927,0.406818 -5.76067,0.725683 -6.66941,1.007212 -1.86286,0.577107 -5.55977,0.329051 -12.39271,-0.831528 -1.78118,-0.302539 -5.24945,-0.875846 -7.70725,-1.274013 -2.4578,-0.398166 -5.30912,-1.024049 -6.33624,-1.390851 -1.12438,-0.401551 -3.19018,-0.800451 -5.19154,-1.002498 -2.04056,-0.205996 -3.47356,-0.485067 -3.71122,-0.722725 -0.52976,-0.529735 -0.98997,-0.485918 -1.6772,0.159666 -0.32015,0.30074 -1.76882,0.887202 -3.21928,1.303238 -2.30584,0.661401 -2.99018,0.739446 -5.446503,0.621169 l -2.80931,-0.135272 -1.85866,-1.85857 c -2.06206,-2.061968 -2.02267,-1.938083 -2.53913,-7.986619 -0.108,-1.264838 -0.28777,-2.391115 -0.39949,-2.502835 -0.24737,-0.247344 -2.529694,0.347059 -3.880221,1.010555 -1.369227,0.672692 -3.647743,1.116815 -5.72965,1.116815 -0.967658,0 -2.893979,0.242725 -4.280694,0.539389 -1.386725,0.296663 -3.725196,0.697192 -5.196612,0.890044 -1.471405,0.192862 -3.182195,0.567294 -3.801734,0.832081 -1.770489,0.756699 -4.024503,2.604167 -4.941742,4.050447 -1.045611,1.648669 -1.839011,1.992725 -5.946417,2.578592 -1.755801,0.250441 -5.430111,1.011981 -8.165138,1.692304 -2.817621,0.700865 -6.051885,1.31584 -7.462675,1.418981 -2.505137,0.183146 -4.250348,0.633303 -2.191494,0.565272 0.981047,-0.03246 1.140647,0.06353 1.579767,0.949528 0.620817,1.25261 0.638655,2.233268 0.05577,3.065393 -0.26626,0.380115 -0.494893,1.361923 -0.543268,2.332929 -0.09664,1.941 -0.439599,2.486391 -1.563302,2.486391 -0.592834,0 -1.124883,-0.337075 -2.000198,-1.26719 -0.655886,-0.696948 -1.29071,-1.26718 -1.410726,-1.26718 -0.543693,0 -0.184314,2.31605 0.525897,3.389186 0.687595,1.038993 0.730104,1.27481 0.559893,3.106133 -0.124679,1.341457 -0.446039,2.500472 -0.994564,3.58705 -0.942081,1.866169 -2.805031,4.423942 -3.656534,5.020335 -1.193929,0.836215 -1.274086,1.446485 -0.331025,2.520515 0.474116,0.53995 0.86203,1.17544 0.86203,1.41217 0,0.23673 0.950437,1.42812 2.112072,2.64754 2.326242,2.44193 2.55479,3.12752 1.548859,4.64635 -0.764494,1.15428 -0.743281,3.01763 0.04651,4.08583 0.389895,0.52732 0.656463,1.38811 0.739333,2.38736 0.07131,0.85949 0.240437,1.63121 0.375898,1.71491 0.755499,0.46691 -0.168593,3.89936 -1.582099,5.87654 -1.403084,1.96262 -1.660551,3.10474 -1.08811,4.82691 0.252912,0.76088 0.623616,1.57374 0.823789,1.80636 0.478512,0.5561 2.043261,4.02569 2.539687,5.63138 0.628862,2.034 0.512401,4.17412 -0.298807,5.49112 -1.046653,1.69928 -0.946168,1.98723 0.907894,2.60166 1.510222,0.50049 1.647705,0.62058 2.041675,1.78345 0.232327,0.68576 0.79139,1.91273 1.242357,2.72662 0.902157,1.62815 1.113133,1.73042 4.812263,2.333 1.084194,0.1766 3.175149,0.56312 4.646565,0.85888 2.575332,0.51768 2.720882,0.58776 3.895312,1.8754 1.346397,1.47621 1.736897,2.24726 1.736897,3.42954 0,0.80049 -1.175791,2.27284 -1.815042,2.27284 -0.18161,0 -0.576177,0.17987 -0.876836,0.3997 -0.537776,0.39323 -0.536583,0.41041 0.07355,1.05989 0.341137,0.36311 1.206968,1.98898 1.924075,3.61306 0.717109,1.62407 1.419274,3.07241 1.560386,3.21852 0.158887,0.16454 0.552048,-0.003 1.032828,-0.44151 0.426954,-0.38893 1.124777,-0.92324 1.55071,-1.18734 0.96175,-0.59632 0.964486,-0.95888 0.02299,-3.05661 -0.878081,-1.95653 -0.715097,-3.00065 0.537137,-3.44102 0.66355,-0.23334 1.006538,-0.0992 2.670283,1.0447 1.587346,1.09134 2.241029,1.35999 3.880209,1.59473 1.084204,0.15526 2.530437,0.28481 3.21387,0.28787 0.900719,0.004 1.614049,0.24393 2.592765,0.87194 1.600182,1.02679 1.926513,1.75576 1.192939,2.66482 -0.287397,0.35615 -0.884042,1.09858 -1.325887,1.64985 l -0.803364,1.0023 1.310411,1.83627 c 0.720717,1.00996 1.405863,1.83627 1.522538,1.83627 0.116674,0 0.642029,-0.4435 1.167457,-0.98558 0.525419,-0.54207 1.200155,-0.98559 1.499409,-0.98559 1.28094,0 6.378939,3.40997 8.584823,5.74225 1.22917,1.2996 1.461784,1.71439 1.461784,2.60652 0,0.82857 0.21252,1.27947 0.97018,2.05843 0.786517,0.80864 1.024487,1.33706 1.257057,2.79132 0.15778,0.98662 0.4938,2.10964 0.74671,2.49561 0.4087,0.62374 0.58985,0.6811 1.62945,0.51609 0.64328,-0.10207 1.21932,-0.32882 1.28006,-0.50377 0.2386,-0.68715 2.45539,-2.82937 3.4562,-3.33993 1.49057,-0.7604 1.95367,-0.68341 3.107243,0.51653 1.33476,1.3884 3.42805,6.61424 3.2637,8.14775 -0.0686,0.64087 0.0492,0.78563 0.76361,0.93771 0.46466,0.0989 1.11666,0.32589 1.44888,0.5044 0.69025,0.3709 0.91427,0.18258 1.47845,-1.24281 0.59402,-1.5008 2.22864,-2.79194 4.21909,-3.33256 l 1.79581,-0.48775 1.30189,1.24838 c 2.24906,2.15664 2.88158,2.48543 4.12232,2.14285 0.59109,-0.16319 1.71899,-0.77313 2.50647,-1.35541 0.83585,-0.61805 2.17206,-1.26002 3.21044,-1.54244 l 1.77866,-0.48376 1.54065,1.16315 c 0.84735,0.63973 2.45471,1.55208 3.57193,2.02744 1.11719,0.47536 3.13551,1.65416 4.48513,2.61954 1.95609,1.39921 2.80412,1.82417 4.18057,2.09495 1.04832,0.20623 2.42536,0.7673 3.50508,1.42813 1.45861,0.89273 3.47671,1.5017 4.03624,1.21796 0.0524,-0.0266 -0.2208,-0.5968 -0.60705,-1.26719 z"
       id="path3273-8-4"
       inkscape:connector-curvature="0"
       transform="matrix(0.09821698,0,0,0.11616924,10.851267,257.10197)" />
  </g>
</svg>
