<?xml version="1.0" encoding="UTF-8" standalone="no"?>
<!-- Created with Inkscape (http://www.inkscape.org/) -->

<svg
   xmlns:dc="http://purl.org/dc/elements/1.1/"
   xmlns:cc="http://creativecommons.org/ns#"
   xmlns:rdf="http://www.w3.org/1999/02/22-rdf-syntax-ns#"
   xmlns:svg="http://www.w3.org/2000/svg"
   xmlns="http://www.w3.org/2000/svg"
   xmlns:sodipodi="http://sodipodi.sourceforge.net/DTD/sodipodi-0.dtd"
   xmlns:inkscape="http://www.inkscape.org/namespaces/inkscape"
   width="210mm"
   height="50mm"
   viewBox="0 0 210 50"
   version="1.1"
   id="svg32886"
   sodipodi:docname="House.svg"
   inkscape:export-filename="C:\Users\Michu\Documents\Serwis - Praca Inż\img\LogoSerwis.png"
   inkscape:export-xdpi="96"
   inkscape:export-ydpi="96"
   inkscape:version="0.92.4 (5da689c313, 2019-01-14)">
  <defs
     id="defs32880" />
  <sodipodi:namedview
     id="base"
     pagecolor="#ffffff"
     bordercolor="#080808"
     borderopacity="1"
     inkscape:pageopacity="0"
     inkscape:pageshadow="2"
     inkscape:zoom="3.3565475"
     inkscape:cx="3.4170273"
     inkscape:cy="180.97277"
     inkscape:document-units="mm"
     inkscape:current-layer="layer1"
     showgrid="false"
     inkscape:pagecheckerboard="true"
     inkscape:window-width="1920"
     inkscape:window-height="1018"
     inkscape:window-x="-8"
     inkscape:window-y="-8"
     inkscape:window-maximized="1" />
  <metadata
     id="metadata32883">
    <rdf:RDF>
      <cc:Work
         rdf:about="">
        <dc:format>image/svg+xml</dc:format>
        <dc:type
           rdf:resource="http://purl.org/dc/dcmitype/StillImage" />
        <dc:title></dc:title>
      </cc:Work>
    </rdf:RDF>
  </metadata>
  <g
     inkscape:label="Layer 1"
     inkscape:groupmode="layer"
     id="layer1"
     transform="translate(0,-247)">
    <path
       style="display:inline;opacity:0.99500002;fill:#b0b3b3;fill-opacity:0.78039216;stroke:#000000;stroke-width:1.04345202;stroke-miterlimit:4;stroke-dasharray:none;stroke-opacity:1"
       d="m 3.2052721,259.96909 c -0.5466192,-0.065 -0.9533132,-0.2632 -1.3190676,-0.64293 -0.2029094,-0.2107 -0.5382713,-0.65918 -0.6131436,-0.82003 -0.36868047,-0.79191 -0.5363704,-1.40906 -0.66027027,-2.43016 -0.0860719,-0.70944 -0.0862024,-0.7746 -0.002785,-1.42161 0.1152532,-0.89424 0.22970545,-1.40436 0.43559587,-1.94174 0.093209,-0.24326 0.1812932,-0.4565 0.1957535,-0.47387 0.014537,-0.0175 0.088978,-0.13717 0.1656032,-0.26624 0.2352766,-0.39619 0.4023708,-0.59535 0.6907929,-0.82328 0.3944324,-0.3117 0.5857511,-0.37285 1.1241895,-0.35921 0.2613278,0.007 0.499344,-0.007 0.5289355,-0.0297 0.02959,-0.023 0.1376146,-0.25748 0.240047,-0.5212 0.1988471,-0.51194 0.7532369,-1.40498 1.0331799,-1.66436 0.6147466,-0.5696 0.8047788,-0.67758 1.3850147,-0.78697 0.4667896,-0.088 0.511345,-0.0861 0.8966091,0.0386 0.4131038,0.13365 0.7463415,0.31368 0.8715268,0.47077 0.038329,0.048 0.087134,0.0875 0.10847,0.0875 0.078488,0 0.7097634,0.82941 0.9004849,1.18316 0.2700307,0.50073 0.52819,1.11831 0.6411699,1.53373 0.1282226,0.47149 0.1594716,0.51434 0.3449946,0.47298 0.191711,-0.0427 0.780165,0.16325 0.982216,0.34383 0.0806,0.0721 0.167262,0.13093 0.192605,0.13093 0.05547,0 0.200821,0.20327 0.558581,0.78115 0.286,0.46199 0.532887,1.16755 0.613834,1.75426 0.173652,1.25851 0.172106,1.22088 0.0783,1.90098 -0.186623,1.35318 -0.419068,1.98129 -1.01298,2.73714 -0.300963,0.38305 -0.693644,0.6402 -1.107438,0.72524 -0.270421,0.0556 -6.8220799,0.0746 -7.272173,0.0212 z"
       id="path3450-4-4-8-5-9-7-2-2-9"
       inkscape:connector-curvature="0" />
    <path
       style="display:inline;opacity:0.99500002;fill:#000000;stroke:#000000;stroke-width:0.29727563;stroke-miterlimit:4;stroke-dasharray:none;stroke-opacity:1"
       d="m 3.7855073,258.28715 c -0.033766,-0.0188 -0.075339,-0.0566 -0.092352,-0.084 -0.071034,-0.11463 -0.066562,-0.008 -0.070195,-1.67204 l -0.00336,-1.53433 -0.045675,0.009 c -0.045651,0.009 -0.1833241,0.046 -0.542967,0.14456 -0.1049482,0.0288 -0.2160648,0.0523 -0.2469418,0.0523 -0.048877,0 -0.061046,-0.007 -0.094178,-0.0517 -0.040513,-0.0552 -0.046941,-0.0991 -0.023458,-0.16074 0.013232,-0.0346 0.2435136,-0.28482 0.6589094,-0.7159 0.084656,-0.0878 0.225606,-0.23612 0.3132614,-0.32953 0.087637,-0.0934 0.2911242,-0.30814 0.4521809,-0.47721 0.1610376,-0.16906 0.3425735,-0.36009 0.4033586,-0.42451 0.060841,-0.0644 0.1364962,-0.14349 0.1681557,-0.1757 0.031643,-0.0322 0.1226701,-0.12775 0.2022567,-0.21231 0.079569,-0.0846 0.1978972,-0.20974 0.2629308,-0.27818 0.065034,-0.0684 0.2057227,-0.21671 0.3126652,-0.32945 0.106924,-0.11274 0.2259784,-0.23792 0.2645327,-0.27818 0.038558,-0.0403 0.170541,-0.17863 0.2933046,-0.30748 0.2994533,-0.31428 0.3575922,-0.37215 0.3841835,-0.38223 0.06345,-0.024 0.099936,0.006 0.3967067,0.32762 0.1615029,0.17499 0.5488731,0.59488 0.8608112,0.93311 0.3119199,0.33821 0.5776457,0.62399 0.5904845,0.63504 0.022809,0.0197 0.023328,0.008 0.023328,-0.51027 v -0.53035 l 0.040566,-0.0484 c 0.054486,-0.065 0.082475,-0.0686 0.4954867,-0.063 l 0.3460581,0.005 0.04004,0.0478 0.040063,0.0479 0.006,1.06623 0.00592,1.06622 0.3370951,0.36462 c 0.4966247,0.53722 0.4906247,0.52996 0.4987487,0.6026 0.0062,0.056 0.003,0.0663 -0.0363,0.11322 -0.05441,0.065 -0.08313,0.0659 -0.2826648,0.009 -0.082029,-0.0233 -0.2263888,-0.0636 -0.3207523,-0.0898 -0.094383,-0.0261 -0.2223826,-0.0623 -0.2844163,-0.0804 -0.062012,-0.0181 -0.115812,-0.0292 -0.1195204,-0.0248 -0.00371,0.004 -0.00674,0.69192 -0.00674,1.52778 0,1.50171 0,1.52067 -0.025343,1.59716 -0.033299,0.10159 -0.098333,0.18012 -0.1760944,0.21257 -0.057263,0.0239 -0.1336461,0.0258 -0.9814135,0.0258 -1.0154588,0 -0.9865196,0.003 -1.0188495,-0.0899 -0.013786,-0.0392 -0.016957,-0.22017 -0.016957,-0.96859 v -0.92034 l -0.028543,-0.032 c -0.028403,-0.0318 -0.030899,-0.032 -0.4623551,-0.0281 l -0.4338069,0.003 -0.015465,0.0366 c -0.011927,0.0283 -0.015465,0.24636 -0.01565,0.96674 0,0.83602 -0.00226,0.93361 -0.020181,0.96424 -0.044498,0.0759 -0.031098,0.075 -1.0367946,0.0748 L 3.846548,258.3205 Z m 1.7805281,-0.29466 c 0.011927,-0.005 0.015279,-0.19068 0.015279,-0.86004 0,-0.77645 0.00203,-0.8598 0.021428,-0.92497 0.031661,-0.10548 0.1005698,-0.19139 0.1831751,-0.2283 0.0663,-0.0296 0.08652,-0.0306 0.5358488,-0.0265 0.4621125,0.004 0.4676099,0.005 0.5316556,0.0393 0.08501,0.0459 0.1623793,0.14912 0.1899029,0.25339 0.019046,0.0722 0.021187,0.1648 0.021187,0.91724 v 0.83695 h 0.8249233 c 0.6252738,0 0.828463,-0.004 0.8396253,-0.0175 0.011179,-0.0134 0.01472,-0.39364 0.01472,-1.62158 0,-1.05483 0.00444,-1.62258 0.012675,-1.65827 0.015468,-0.0661 0.067975,-0.1143 0.1239918,-0.11356 0.02255,4.2e-4 0.1568086,0.0327 0.2983174,0.0721 0.1415465,0.0394 0.2589979,0.0696 0.2610669,0.0671 0.00415,-0.005 -0.2185992,-0.24696 -1.9398886,-2.10903 -0.2084058,-0.22549 -0.5312272,-0.57514 -0.7173654,-0.77701 -0.1861197,-0.20188 -0.3451817,-0.37207 -0.3534928,-0.37819 -0.014535,-0.0107 -0.069059,0.0411 -0.3100938,0.2952 -0.051447,0.0542 -0.2031327,0.21383 -0.3370761,0.35463 -0.1339068,0.14081 -0.3400576,0.35823 -0.4580686,0.48318 -0.1179929,0.12495 -0.2779314,0.29282 -0.3554687,0.37308 -0.077481,0.0802 -0.1932939,0.20231 -0.2573588,0.27124 -0.064027,0.069 -0.1577765,0.168 -0.2083691,0.22013 -0.050554,0.0521 -0.094681,0.0983 -0.098072,0.10257 -0.00336,0.004 -0.07232,0.0763 -0.1532118,0.16017 -0.08091,0.0838 -0.174771,0.18242 -0.2086109,0.21917 -0.082475,0.0895 -0.2206679,0.23541 -0.3560648,0.37599 -0.2726759,0.28307 -0.3985318,0.41925 -0.3932584,0.42553 0.00522,0.006 0.1345396,-0.0254 0.386103,-0.094 0.087041,-0.0237 0.09155,-0.0236 0.1345397,0.004 0.024485,0.0157 0.051429,0.0451 0.059909,0.0652 0.012112,0.0288 0.015465,0.38389 0.01565,1.65695 0,1.06437 0.00429,1.62203 0.012483,1.62523 0.018691,0.008 1.6464728,-0.002 1.6639517,-0.01 z m 3.3861352,-5.04437 v -0.80529 H 8.7376332 8.5231528 v 0.57559 0.57558 l 0.211406,0.22962 c 0.1162965,0.12628 0.2128603,0.22964 0.2145183,0.2297 0.00185,4e-5 0.00318,-0.3623 0.00318,-0.8052 z"
       id="path5840-7-1"
       inkscape:connector-curvature="0"
       inkscape:transform-center-x="11.455293"
       inkscape:transform-center-y="11.629632" />
  </g>
</svg>
