<?xml version="1.0" encoding="UTF-8" standalone="no"?>
<!-- Created with Inkscape (http://www.inkscape.org/) -->

<svg
   xmlns:dc="http://purl.org/dc/elements/1.1/"
   xmlns:cc="http://creativecommons.org/ns#"
   xmlns:rdf="http://www.w3.org/1999/02/22-rdf-syntax-ns#"
   xmlns:svg="http://www.w3.org/2000/svg"
   xmlns="http://www.w3.org/2000/svg"
   xmlns:sodipodi="http://sodipodi.sourceforge.net/DTD/sodipodi-0.dtd"
   xmlns:inkscape="http://www.inkscape.org/namespaces/inkscape"
   width="210mm"
   height="40mm"
   viewBox="0 0 210 40"
   version="1.1"
   id="svg33483"
   inkscape:version="0.92.4 (5da689c313, 2019-01-14)"
   sodipodi:docname="Information.svg"
   inkscape:export-filename="C:\Users\Michu\Documents\Serwis - Praca Inż\img\InformationSel.png"
   inkscape:export-xdpi="96"
   inkscape:export-ydpi="96">
  <defs
     id="defs33477" />
  <sodipodi:namedview
     id="base"
     pagecolor="#ffffff"
     bordercolor="#666666"
     borderopacity="1.0"
     inkscape:pageopacity="0.0"
     inkscape:pageshadow="2"
     inkscape:zoom="2.8517579"
     inkscape:cx="54.769898"
     inkscape:cy="166.8535"
     inkscape:document-units="mm"
     inkscape:current-layer="layer1"
     showgrid="false"
     inkscape:pagecheckerboard="true"
     inkscape:window-width="1920"
     inkscape:window-height="1018"
     inkscape:window-x="-8"
     inkscape:window-y="-8"
     inkscape:window-maximized="1" />
  <metadata
     id="metadata33480">
    <rdf:RDF>
      <cc:Work
         rdf:about="">
        <dc:format>image/svg+xml</dc:format>
        <dc:type
           rdf:resource="http://purl.org/dc/dcmitype/StillImage" />
        <dc:title></dc:title>
      </cc:Work>
    </rdf:RDF>
  </metadata>
  <g
     inkscape:label="Layer 1"
     inkscape:groupmode="layer"
     id="layer1"
     transform="translate(0,-257)">
    <path
       style="display:inline;fill:#b0b3b3;fill-opacity:0.78039216;stroke:#000000;stroke-width:1.04250658;stroke-miterlimit:4;stroke-dasharray:none;stroke-opacity:1"
       d="m 3.7091558,269.87084 c -0.5516926,-0.0642 -0.962161,-0.2603 -1.3313104,-0.63587 -0.2047924,-0.20837 -0.5432668,-0.65194 -0.6188343,-0.81101 -0.3721021,-0.7832 -0.5413485,-1.39358 -0.6663981,-2.40343 -0.086871,-0.70167 -0.087003,-0.7661 -0.00282,-1.40601 0.1163231,-0.88442 0.2318374,-1.38892 0.4396388,-1.92039 0.094074,-0.24059 0.1829759,-0.45149 0.1975704,-0.46867 0.01467,-0.0173 0.089804,-0.13566 0.1671403,-0.2633 0.2374606,-0.39185 0.4061054,-0.58882 0.6972045,-0.81425 0.3980933,-0.30826 0.5911876,-0.36874 1.1346237,-0.35526 0.2637526,0.007 0.5039783,-0.007 0.5338444,-0.0293 0.029867,-0.0227 0.1388913,-0.25464 0.2422749,-0.51547 0.2006924,-0.50631 0.7602273,-1.38954 1.0427687,-1.64606 0.620452,-0.56335 0.8122485,-0.67015 1.3978693,-0.77834 0.4711222,-0.0871 0.5160907,-0.0851 0.9049312,0.0382 0.4169385,0.13219 0.7532682,0.31023 0.8796156,0.46559 0.038685,0.0476 0.087943,0.0865 0.1094772,0.0865 0.079217,0 0.7163502,0.82029 0.9088431,1.17015 0.2725369,0.49523 0.5330929,1.10603 0.6471209,1.51687 0.129411,0.46631 0.160952,0.5087 0.348197,0.4678 0.19349,-0.0423 0.787405,0.16145 0.991331,0.34004 0.08134,0.0712 0.168814,0.12949 0.194393,0.12949 0.05599,0 0.202685,0.20103 0.563767,0.77257 0.288654,0.45691 0.537831,1.15471 0.61953,1.73498 0.175264,1.24467 0.173703,1.20745 0.07902,1.88007 -0.188356,1.33832 -0.422959,1.95954 -1.022381,2.70706 -0.303759,0.37884 -0.700084,0.63316 -1.117717,0.71728 -0.272932,0.0549 -6.8853985,0.0738 -7.3396695,0.0209 z"
       id="path3450-4-4-8-5-9-7-2-2-9-3-3-4"
       inkscape:connector-curvature="0"
       inkscape:export-filename="C:\Users\Michu\Documents\Serwis - Praca Inż\img\Information.png"
       inkscape:export-xdpi="96"
       inkscape:export-ydpi="96" />
    <path
       style="display:inline;opacity:1;fill:#000000;fill-opacity:1;stroke:#000000;stroke-width:0.29700628;stroke-miterlimit:4;stroke-dasharray:none;stroke-opacity:1"
       d="m 6.8000931,268.44649 c -0.011471,-0.0117 -0.093565,-0.0301 -0.1827694,-0.041 -0.2466005,-0.0303 -0.3618895,-0.0528 -0.410977,-0.0804 -0.02458,-0.0137 -0.06765,-0.0249 -0.095804,-0.0249 -0.028266,0 -0.056441,-0.01 -0.062817,-0.0194 -0.00639,-0.0106 -0.041093,-0.0259 -0.07711,-0.034 -0.035998,-0.009 -0.079555,-0.0215 -0.096782,-0.03 -0.017301,-0.009 -0.068026,-0.0317 -0.112975,-0.0521 -0.04493,-0.0202 -0.098419,-0.0456 -0.1189184,-0.0565 -0.020291,-0.0109 -0.075606,-0.0398 -0.122492,-0.0643 -0.046904,-0.0245 -0.1620996,-0.0959 -0.2559479,-0.15861 -0.4551736,-0.30424 -0.7824388,-0.65206 -1.0769419,-1.14455 -0.095786,-0.16019 -0.1303906,-0.22807 -0.2052999,-0.40282 -0.018431,-0.0432 -0.040286,-0.0929 -0.048448,-0.11057 -0.00827,-0.0175 -0.021197,-0.0623 -0.02917,-0.0992 -0.0079,-0.0369 -0.022887,-0.0725 -0.033232,-0.079 -0.010346,-0.007 -0.018939,-0.0356 -0.018939,-0.0644 0,-0.0289 -0.010907,-0.0731 -0.024319,-0.0982 -0.028738,-0.0543 -0.050874,-0.17027 -0.078369,-0.41107 -0.010907,-0.0973 -0.029397,-0.18635 -0.040511,-0.19777 -0.026877,-0.0275 -0.026877,-0.66706 0,-0.69458 0.010908,-0.0114 0.029358,-0.10043 0.040511,-0.19776 0.027402,-0.24081 0.049633,-0.35681 0.078369,-0.41109 0.013166,-0.0251 0.024319,-0.0693 0.024319,-0.0982 0,-0.0289 0.00847,-0.0578 0.018939,-0.0644 0.010531,-0.007 0.025446,-0.0421 0.033232,-0.079 0.0079,-0.0369 0.021009,-0.0816 0.02917,-0.0992 0.00827,-0.0176 0.031202,-0.0697 0.05123,-0.1158 0.080194,-0.18456 0.1029889,-0.23052 0.1176397,-0.2372 0.00846,-0.004 0.015233,-0.0184 0.015233,-0.0324 0,-0.0361 0.2484632,-0.41554 0.3806784,-0.58145 0.252149,-0.31638 0.670272,-0.66396 1.0217233,-0.84929 0.046925,-0.0247 0.1020668,-0.0539 0.1225293,-0.0647 0.020314,-0.0109 0.073989,-0.0363 0.1189556,-0.0565 0.044876,-0.0202 0.09573,-0.0436 0.1129571,-0.0521 0.017301,-0.009 0.060729,-0.0218 0.096726,-0.03 0.036053,-0.009 0.070714,-0.0235 0.077128,-0.034 0.00658,-0.0106 0.0347,-0.0194 0.062854,-0.0194 0.028249,0 0.071242,-0.0112 0.095805,-0.0248 0.052943,-0.0294 0.1660869,-0.0521 0.4010838,-0.0803 0.094958,-0.0115 0.1818099,-0.0301 0.1929439,-0.0414 0.026854,-0.0275 0.6508252,-0.0275 0.6777009,0 0.01091,0.0114 0.097986,0.0301 0.1929439,0.0414 0.2349784,0.0283 0.3481223,0.0509 0.4010835,0.0803 0.024603,0.0136 0.067647,0.0248 0.095786,0.0248 0.028267,0 0.056425,0.01 0.062872,0.0194 0.00641,0.0106 0.041094,0.026 0.077092,0.034 0.036018,0.009 0.079555,0.0215 0.096782,0.03 0.017302,0.009 0.068043,0.0317 0.1129555,0.0521 0.04493,0.0202 0.098438,0.0456 0.1189186,0.0565 0.02029,0.0109 0.075624,0.04 0.1225293,0.0647 0.6532909,0.34451 1.235168,0.99063 1.5406916,1.7108 0.0173,0.0403 0.03773,0.0876 0.0459,0.10533 0.0083,0.0176 0.02123,0.0623 0.0292,0.0992 0.0079,0.0369 0.02292,0.0725 0.03319,0.079 0.01053,0.007 0.01894,0.0356 0.01894,0.0644 0,0.0289 0.0109,0.0731 0.02402,0.0982 0.02875,0.0543 0.05087,0.17027 0.0784,0.41107 0.01091,0.0973 0.02936,0.18635 0.04053,0.19778 0.02684,0.0275 0.02684,0.66705 0,0.69456 -0.01091,0.0115 -0.02938,0.10044 -0.04053,0.19779 -0.02745,0.24079 -0.04967,0.3568 -0.0784,0.41107 -0.01318,0.0251 -0.02402,0.0693 -0.02402,0.0982 0,0.0289 -0.0085,0.0578 -0.01894,0.0644 -0.01035,0.007 -0.02543,0.0421 -0.03319,0.079 -0.0079,0.0369 -0.0212,0.0816 -0.0292,0.0992 -0.0083,0.0175 -0.02996,0.0674 -0.04847,0.11057 -0.07487,0.17474 -0.109497,0.24263 -0.2053,0.40282 -0.2944653,0.49249 -0.6217304,0.84032 -1.076905,1.14456 -0.093886,0.0627 -0.209043,0.13409 -0.2559293,0.15859 -0.046906,0.0246 -0.102067,0.0535 -0.1225293,0.0643 -0.020311,0.0109 -0.073987,0.0363 -0.1189185,0.0565 -0.044915,0.0202 -0.095766,0.0436 -0.1129555,0.0521 -0.017302,0.009 -0.060764,0.0218 -0.096784,0.0299 -0.035997,0.009 -0.070714,0.0234 -0.077092,0.034 -0.0064,0.0106 -0.034701,0.0194 -0.062872,0.0194 -0.028287,0 -0.071222,0.0111 -0.095786,0.0247 -0.052959,0.0294 -0.1661051,0.0521 -0.4010836,0.0803 -0.094958,0.0114 -0.1817913,0.0302 -0.1929439,0.0415 -0.027142,0.0278 -0.6508819,0.0274 -0.6780023,-6.8e-4 z m 0.8700802,-0.33716 c 0.061781,-0.012 0.1490486,-0.0312 0.1939781,-0.0426 0.044915,-0.0114 0.1138411,-0.0282 0.153167,-0.0372 0.039306,-0.01 0.09902,-0.0285 0.1327225,-0.043 0.033704,-0.0146 0.084238,-0.0357 0.1123176,-0.0469 0.1388534,-0.0558 0.3557952,-0.16138 0.4739427,-0.23058 0.1409981,-0.0826 0.4566786,-0.33264 0.5957399,-0.47194 0.139926,-0.14012 0.4419895,-0.53014 0.5180454,-0.66885 0.072271,-0.13176 0.1737595,-0.35158 0.2246905,-0.48653 0.01091,-0.0288 0.0348,-0.0879 0.05318,-0.13151 0.01842,-0.0435 0.0335,-0.0983 0.0335,-0.12172 0,-0.0234 0.009,-0.0595 0.01985,-0.0803 0.06237,-0.11944 0.104811,-0.6901 0.08067,-1.08443 -0.01787,-0.28951 -0.05037,-0.50639 -0.08104,-0.53787 -0.01072,-0.0109 -0.01919,-0.0459 -0.01919,-0.0778 0,-0.0319 -0.01506,-0.0936 -0.03346,-0.13709 -0.01843,-0.0435 -0.04231,-0.10275 -0.05323,-0.13151 -0.0496,-0.13159 -0.1422025,-0.33135 -0.2279636,-0.49184 -0.1234879,-0.2312 -0.4386036,-0.61154 -0.675745,-0.8156 -0.1078219,-0.0928 -0.3582403,-0.27795 -0.4281665,-0.31654 -0.1730637,-0.0955 -0.3476707,-0.18049 -0.4805248,-0.23392 -0.028007,-0.0113 -0.078634,-0.0324 -0.1123367,-0.0469 -0.033684,-0.0146 -0.093396,-0.0338 -0.1327224,-0.0429 -0.039327,-0.01 -0.1128061,-0.0269 -0.1633604,-0.0395 -0.050516,-0.0127 -0.1354878,-0.033 -0.1888059,-0.0452 -0.121288,-0.0278 -0.9542811,-0.0282 -1.0425625,-2.9e-4 -0.035922,0.0113 -0.1087625,0.0265 -0.1618363,0.0339 -0.053112,0.008 -0.1018796,0.0222 -0.1084053,0.0331 -0.00639,0.0109 -0.042993,0.0197 -0.080965,0.0197 -0.03799,0 -0.074307,0.01 -0.08072,0.0194 -0.00658,0.0106 -0.041094,0.026 -0.077111,0.034 -0.035998,0.009 -0.079554,0.0215 -0.096726,0.03 -0.017301,0.009 -0.063494,0.0294 -0.1027817,0.0468 -0.069474,0.0308 -0.2952741,0.14582 -0.3778008,0.19239 -0.164074,0.0926 -0.4610975,0.33093 -0.6304759,0.50591 -0.1501945,0.15522 -0.3958553,0.47961 -0.4741312,0.62607 -0.08482,0.1588 -0.1758102,0.35489 -0.2282636,0.49183 -0.010903,0.0288 -0.031596,0.0806 -0.045814,0.11511 -0.014104,0.0346 -0.033064,0.0958 -0.041939,0.13604 -0.00865,0.0403 -0.026313,0.11564 -0.03863,0.16744 -0.0126,0.0518 -0.03231,0.13934 -0.044367,0.19451 -0.028699,0.13127 -0.028906,0.9441 0,1.0748 0.012037,0.0558 0.03233,0.14394 0.044668,0.19573 0.0126,0.0518 0.029749,0.12715 0.038649,0.16743 0.00902,0.0403 0.027683,0.10151 0.041922,0.13604 0.014104,0.0345 0.034831,0.0863 0.045851,0.11512 0.052415,0.13694 0.1433868,0.33303 0.2282448,0.49183 0.078257,0.14646 0.3238993,0.47085 0.4741501,0.62605 0.1693595,0.17499 0.4663455,0.41334 0.6304383,0.50594 0.1516058,0.0855 0.3511511,0.18274 0.4798865,0.23376 0.027983,0.0111 0.085799,0.0357 0.1282845,0.0546 0.042522,0.0189 0.1027067,0.0342 0.1337573,0.0342 0.031067,0 0.065243,0.01 0.075926,0.0197 0.080231,0.0816 0.9938702,0.12429 1.3161136,0.0615 z m -1.2933004,-1.09981 c -0.00733,-0.008 -0.013538,-0.0783 -0.013538,-0.15698 v -0.14301 h 0.2103212 c 0.1363724,0 0.2189734,-0.01 0.234828,-0.025 0.037259,-0.0382 0.035169,-2.20013 -0.00264,-2.23187 -0.014667,-0.0125 -0.1180531,-0.0254 -0.2297307,-0.0287 l -0.2030623,-0.007 -0.00621,-0.11157 c -0.00356,-0.0643 0.00377,-0.12417 0.017868,-0.14128 0.019842,-0.0244 0.1278893,-0.0297 0.6023017,-0.0297 0.3645228,0 0.5829698,0.008 0.5909626,0.021 0.00696,0.0116 0.012035,0.57798 0.01147,1.25873 0,0.88878 0.00546,1.24577 0.02169,1.26618 0.016737,0.0206 0.081399,0.0285 0.234902,0.0285 h 0.2119028 v 0.15697 0.15697 H 7.2241486 c -0.4586333,0 -0.8399518,-0.007 -0.8474744,-0.0139 z m 0.7493951,-3.22941 c -0.2056203,-0.0492 -0.3260432,-0.26182 -0.2715776,-0.47953 0.031766,-0.12691 0.095654,-0.20207 0.2172429,-0.2555 0.098325,-0.0431 0.2204964,-0.0528 0.2408652,-0.0192 0.00714,0.0115 0.029378,0.021 0.049819,0.021 0.02029,0 0.074363,0.037 0.1198396,0.0822 0.091516,0.091 0.1221534,0.20371 0.097779,0.35974 -0.031971,0.20514 -0.2443818,0.34138 -0.4539691,0.29121 z"
       id="path2809-1-4-6"
       inkscape:connector-curvature="0"
       inkscape:export-filename="C:\Users\Michu\Documents\Serwis - Praca Inż\img\Information.png"
       inkscape:export-xdpi="96"
       inkscape:export-ydpi="96" />
  </g>
</svg>
