<?xml version="1.0" encoding="UTF-8" standalone="no"?>
<!-- Created with Inkscape (http://www.inkscape.org/) -->

<svg
   xmlns:dc="http://purl.org/dc/elements/1.1/"
   xmlns:cc="http://creativecommons.org/ns#"
   xmlns:rdf="http://www.w3.org/1999/02/22-rdf-syntax-ns#"
   xmlns:svg="http://www.w3.org/2000/svg"
   xmlns="http://www.w3.org/2000/svg"
   xmlns:xlink="http://www.w3.org/1999/xlink"
   xmlns:sodipodi="http://sodipodi.sourceforge.net/DTD/sodipodi-0.dtd"
   xmlns:inkscape="http://www.inkscape.org/namespaces/inkscape"
   width="210mm"
   height="50mm"
   viewBox="0 0 210 50"
   version="1.1"
   id="svg32886"
   sodipodi:docname="Logo.svg"
   inkscape:export-filename="C:\Users\Michu\Documents\Serwis - Praca Inż\img\LogoSerwis.png"
   inkscape:export-xdpi="96"
   inkscape:export-ydpi="96"
   inkscape:version="0.92.4 (5da689c313, 2019-01-14)">
  <defs
     id="defs32880">
    <linearGradient
       gradientTransform="matrix(0.17964006,0,0,0.25251791,-82.680677,447.62051)"
       inkscape:collect="always"
       xlink:href="#linearGradient25155"
       id="linearGradient25157"
       x1="462.25629"
       y1="-736.17639"
       x2="572.30316"
       y2="-736.17639"
       gradientUnits="userSpaceOnUse" />
    <linearGradient
       inkscape:collect="always"
       id="linearGradient25155">
      <stop
         style="stop-color:#740000;stop-opacity:1;"
         offset="0"
         id="stop25151" />
      <stop
         style="stop-color:#740000;stop-opacity:0;"
         offset="1"
         id="stop25153" />
    </linearGradient>
  </defs>
  <sodipodi:namedview
     id="base"
     pagecolor="#ffffff"
     bordercolor="#080808"
     borderopacity="1"
     inkscape:pageopacity="0"
     inkscape:pageshadow="2"
     inkscape:zoom="0.59404297"
     inkscape:cx="41.036262"
     inkscape:cy="597.66688"
     inkscape:document-units="mm"
     inkscape:current-layer="layer1"
     showgrid="false"
     inkscape:pagecheckerboard="true"
     inkscape:window-width="1920"
     inkscape:window-height="1018"
     inkscape:window-x="-8"
     inkscape:window-y="-8"
     inkscape:window-maximized="1" />
  <metadata
     id="metadata32883">
    <rdf:RDF>
      <cc:Work
         rdf:about="">
        <dc:format>image/svg+xml</dc:format>
        <dc:type
           rdf:resource="http://purl.org/dc/dcmitype/StillImage" />
        <dc:title></dc:title>
      </cc:Work>
    </rdf:RDF>
  </metadata>
  <g
     inkscape:label="Layer 1"
     inkscape:groupmode="layer"
     id="layer1"
     transform="translate(0,-247)">
    <ellipse
       style="display:inline;opacity:1;fill:url(#linearGradient25157);fill-opacity:1;stroke:#b0b3b3;stroke-width:0.4611111;stroke-miterlimit:4;stroke-dasharray:none;stroke-opacity:0.78039216"
       id="path24761"
       cx="10.243457"
       cy="261.72278"
       rx="9.6899529"
       ry="11.874763"
       inkscape:export-filename="C:\Users\Michu\Documents\Serwis - Praca Inż\img\LogoSerwis.png"
       inkscape:export-xdpi="96"
       inkscape:export-ydpi="96" />
    <text
       xml:space="preserve"
       style="font-style:normal;font-variant:normal;font-weight:bold;font-stretch:normal;font-size:11.20904541px;line-height:1.25;font-family:SansSerif;-inkscape-font-specification:'SansSerif Bold';font-variant-ligatures:normal;font-variant-caps:normal;font-variant-numeric:normal;font-feature-settings:normal;text-align:start;letter-spacing:0px;word-spacing:0px;writing-mode:lr-tb;text-anchor:start;display:inline;opacity:1;fill:#000000;fill-opacity:1;stroke:none;stroke-width:0.05838044;paint-order:stroke fill markers"
       x="31.349079"
       y="231.58908"
       id="text21395"
       transform="scale(0.87380135,1.1444249)"
       inkscape:export-filename="C:\Users\Michu\Documents\Serwis - Praca Inż\img\LogoSerwis.png"
       inkscape:export-xdpi="96"
       inkscape:export-ydpi="96"><tspan
         sodipodi:role="line"
         id="tspan21393"
         x="31.349079"
         y="231.58908"
         style="font-style:normal;font-variant:normal;font-weight:bold;font-stretch:normal;font-family:'Tw Cen MT';-inkscape-font-specification:'Tw Cen MT Bold';fill:#000000;fill-opacity:1;stroke-width:0.05838044;paint-order:stroke fill markers">ATLAS METEOROLOGICZNY</tspan></text>
    <g
       id="g24809"
       style="display:inline;opacity:1;fill:#585858;fill-opacity:1;stroke:#585858;stroke-opacity:1"
       transform="matrix(0.06608258,0,0,0.11917385,-28.508287,250.10913)"
       inkscape:export-filename="C:\Users\Michu\Documents\Serwis - Praca Inż\img\LogoSerwis.png"
       inkscape:export-xdpi="96"
       inkscape:export-ydpi="96">
      <path
         style="fill:#585858;fill-opacity:1;stroke:#585858;stroke-width:0.26458335;stroke-opacity:1"
         d="m 730.21713,264.15117 c -8.13262,-0.27043 -17.26793,-3.44434 -24.20501,-8.40964 -15.99735,-11.4503 -22.85614,-31.12727 -17.56892,-50.40297 0.48157,-1.7557 2.9987,-6.93862 7.96681,-16.40417 0.64922,-1.23692 2.41189,-4.63021 3.91706,-7.54062 12.73543,-24.62547 31.26155,-60.17692 31.61589,-60.67059 0.89298,-1.24413 0.84782,-1.30737 5.53826,7.75392 1.28055,2.47385 3.07454,5.92667 3.98663,7.67292 0.91209,1.74625 6.44654,12.40234 12.29876,23.68021 5.85223,11.27786 11.26439,21.69583 12.02703,23.15104 10.01872,19.11696 10.83312,20.87655 11.87844,25.66458 1.08439,4.96698 1.21309,12.60474 0.29815,17.69421 -0.94523,5.25796 -3.3446,11.51318 -6.20341,16.17246 -4.47144,7.28754 -11.751,13.78926 -19.37666,17.30622 -7.15632,3.3005 -13.85348,4.60907 -22.17303,4.33243 z m -9.59115,-15.06322 c 0.76399,-0.0918 1.38906,-0.24322 1.38906,-0.33656 0,-0.0933 -0.92273,-0.62584 -2.05052,-1.18334 -4.33901,-2.14492 -9.40261,-6.47181 -12.5734,-10.74407 -3.10044,-4.17747 -6.34309,-10.44722 -8.65514,-16.7349 -0.62874,-1.70987 -1.2368,-3.10885 -1.35125,-3.10885 -0.39021,0 -0.63743,2.50785 -0.61295,6.21771 0.0193,2.92143 0.15177,4.20735 0.62703,6.08541 1.85771,7.34107 6.40235,13.69317 12.18082,17.02527 2.32929,1.34317 3.69518,1.8666 6.35,2.43339 2.59197,0.55338 2.82585,0.57061 4.69635,0.34594 z"
         id="path24823"
         inkscape:connector-curvature="0" />
      <path
         style="fill:#585858;fill-opacity:1;stroke:#585858;stroke-width:0.26458335;stroke-opacity:1"
         d="m 729.15879,263.91996 c -3.66012,-0.43375 -5.49352,-0.74682 -7.8043,-1.33268 -15.06131,-3.81852 -27.33482,-15.26714 -32.15372,-29.9927 -2.88073,-8.80293 -3.08612,-17.54583 -0.62787,-26.72685 0.72506,-2.70794 1.96473,-5.20327 15.1818,-30.55938 0.9861,-1.89177 3.24996,-6.23755 5.0308,-9.65729 1.78084,-3.41974 3.92037,-7.5274 4.75452,-9.12813 2.13583,-4.09867 13.99489,-26.95596 16.54149,-31.88229 1.27607,-2.46849 2.27472,-4.10104 2.50868,-4.10104 0.51604,0 0.32791,-0.35113 16.01814,29.89792 3.01927,5.82083 6.94686,13.3813 8.72798,16.80104 1.78111,3.41974 4.25807,8.18224 5.50434,10.58333 1.24627,2.4011 3.94265,7.58032 5.99195,11.50938 6.36865,12.21043 7.374,14.34073 8.07084,17.10185 0.99409,3.93888 1.46831,7.75461 1.46301,11.77169 -0.01,7.59477 -1.386,13.45205 -4.77795,20.33896 -7.55167,15.33267 -22.58123,24.91907 -39.7995,25.38557 -2.03729,0.0552 -4.12088,0.051 -4.63021,-0.009 z m -6.76443,-14.8981 c 0.60454,-0.23674 0.66873,-0.19094 -2.46898,-1.76168 -5.79198,-2.89947 -11.19026,-8.17589 -15.21113,-14.86772 -1.5565,-2.59044 -4.46828,-8.88204 -5.72467,-12.36952 -0.6291,-1.74625 -1.24709,-3.29307 -1.37332,-3.43738 -0.36874,-0.42155 -0.65817,0.29959 -0.97488,2.42899 -1.42433,9.57654 2.95207,20.37374 10.53722,25.99685 3.93904,2.92013 7.66223,4.22152 12.05832,4.21483 1.45521,-0.002 2.87605,-0.0942 3.15744,-0.20437 z"
         id="path24821"
         inkscape:connector-curvature="0" />
      <path
         style="fill:#585858;fill-opacity:1;stroke:#585858;stroke-width:0.26458335;stroke-opacity:1"
         d="m 726.11608,263.39744 c -17.48642,-2.66407 -31.38509,-14.43071 -36.87869,-31.22156 -1.41276,-4.31802 -1.91562,-7.39219 -2.07448,-12.68211 -0.14945,-4.97682 0.22052,-8.42983 1.3977,-13.04495 0.77802,-3.05022 1.36574,-4.26475 11.2281,-23.20297 4.09224,-7.85812 8.49181,-16.31156 9.77683,-18.78542 1.28501,-2.47385 4.59522,-8.84369 7.35602,-14.1552 2.76079,-5.31151 6.65602,-12.81245 8.65605,-16.66875 5.555,-10.7107 6.77301,-12.96459 7.00613,-12.96459 0.35545,0 0.64659,0.48651 2.92917,4.89479 2.05681,3.97224 6.21921,11.97741 10.31805,19.84375 1.71796,3.29705 11.55275,22.22426 19.14416,36.84323 1.98362,3.81993 5.2133,10.03694 7.17705,13.8156 2.38147,4.58243 3.78588,7.61365 4.21735,9.10256 3.23388,11.15946 2.32139,22.57351 -2.62561,32.84278 -6.64333,13.79063 -19.59471,23.24262 -34.79553,25.39399 -3.40674,0.48216 -9.62981,0.47675 -12.8323,-0.0112 z m -4.03489,-14.15196 c 0.5457,-0.15155 0.99219,-0.36185 0.99219,-0.46734 0,-0.10549 -1.05312,-0.68773 -2.34027,-1.29387 -9.36152,-4.4085 -16.22845,-13.15024 -21.62377,-27.52748 -0.83279,-2.21919 -1.61104,-4.0349 -1.72945,-4.0349 -0.75248,0 -1.3897,5.851 -1.02629,9.42358 1.18198,11.61988 9.22118,21.58804 19.17465,23.7755 1.96281,0.43137 5.22483,0.49335 6.55294,0.12451 z"
         id="path24819"
         inkscape:connector-curvature="0" />
      <path
         style="fill:#585858;fill-opacity:1;stroke:#585858;stroke-width:0.26458335;stroke-opacity:1"
         d="m 728.10046,263.51445 c -2.97507,-0.29992 -6.9025,-1.14249 -9.88442,-2.12057 -3.38867,-1.11149 -8.83863,-3.86913 -11.81141,-5.97649 -3.22483,-2.28604 -8.63446,-7.69567 -10.9205,-10.9205 -2.01534,-2.84298 -4.83996,-8.35608 -5.89024,-11.49662 -1.97476,-5.90491 -2.7912,-12.46852 -2.2755,-18.29349 0.57872,-6.53671 1.64445,-10.31847 4.39225,-15.58593 1.06276,-2.03729 4.40022,-8.46667 7.41656,-14.2875 3.01634,-5.82083 6.11035,-11.77396 6.87558,-13.22917 0.76524,-1.4552 5.65538,-10.86114 10.867,-20.90208 15.1255,-29.1415 15.38479,-29.63001 15.76408,-29.70047 0.23257,-0.0432 2.08243,3.25776 5.18951,9.26042 4.25481,8.21994 15.55913,29.9895 21.87999,42.13588 12.69987,24.40451 15.7554,30.40547 16.23364,31.8823 3.72432,11.50106 2.64715,24.41455 -2.91324,34.925 -8.78279,16.60154 -26.46519,26.16997 -44.9233,24.30922 z m -5.35781,-14.28637 c 0.32742,-0.1211 0.59531,-0.31894 0.59531,-0.43966 0,-0.12072 -1.05713,-0.716 -2.34918,-1.32284 -3.20821,-1.50681 -5.97094,-3.40655 -8.67118,-5.96256 -5.85895,-5.54598 -9.55964,-11.94427 -14.2295,-24.60203 -1.03514,-2.80578 -1.82066,-0.26007 -1.82055,5.90007 7e-5,3.88733 0.0772,4.6555 0.70399,7.01146 0.84249,3.16673 3.06483,7.8132 4.87204,10.18646 4.87799,6.40585 12.05022,10.10544 18.58396,9.58599 0.94589,-0.0752 1.98769,-0.2358 2.31511,-0.35689 z"
         id="path24817"
         inkscape:connector-curvature="0" />
      <path
         style="fill:#585858;fill-opacity:1;stroke:#585858;stroke-width:0.26458335;stroke-opacity:1"
         d="m 727.04213,263.27506 c -6.94051,-0.96052 -13.36546,-3.27856 -18.71866,-6.75346 -10.65022,-6.91334 -17.64241,-17.11725 -20.20598,-29.48721 -0.55611,-2.68337 -0.62922,-3.73012 -0.61915,-8.86354 0.0165,-8.40702 0.93694,-12.51127 4.21297,-18.78541 1.06377,-2.0373 4.34187,-8.34761 7.28467,-14.02292 2.9428,-5.67531 6.09722,-11.7475 7.00982,-13.49375 0.9126,-1.74625 4.84122,-9.30672 8.73028,-16.80104 7.44127,-14.33954 9.81546,-18.90853 12.30497,-23.68021 0.83514,-1.60073 2.32278,-4.45823 3.30587,-6.35 2.32227,-4.46878 2.32001,-4.46655 3.05698,-3.01055 0.3225,0.63715 2.93805,5.68284 5.81232,11.21263 2.87427,5.52979 11.5625,22.25807 19.30717,37.17396 7.74467,14.91589 14.70711,28.31042 15.47208,29.76563 1.60151,3.04656 2.00739,4.188 2.91651,8.20208 3.15021,13.90918 -0.62777,28.86709 -9.9982,39.5852 -6.61358,7.56478 -15.74609,12.86207 -25.51353,14.79908 -3.21693,0.63796 -11.3457,0.92642 -14.35812,0.50951 z m -4.02209,-13.90644 c 1.01266,-0.29581 0.54674,-0.90541 -1.29004,-1.68784 -3.48375,-1.48401 -6.83854,-3.79434 -9.89956,-6.8175 -5.1119,-5.04867 -8.72059,-11.12328 -12.45903,-20.97264 -0.95508,-2.51627 -1.80088,-4.36562 -1.99662,-4.36562 -0.45777,0 -0.97487,1.88204 -1.29856,4.72621 -0.68186,5.99135 1.30402,13.45733 5.04469,18.96572 3.60971,5.31553 9.39579,9.29193 15.01069,10.31587 1.32944,0.24243 5.86663,0.13428 6.88843,-0.1642 z"
         id="path24815"
         inkscape:connector-curvature="0" />
      <path
         style="fill:#585858;fill-opacity:1;stroke:#585858;stroke-width:0.26458335;stroke-opacity:1"
         d="m 729.95254,263.24938 c -9.97601,-0.42963 -19.44976,-4.30217 -27.25589,-11.14127 -10.54489,-9.23858 -16.30771,-23.48404 -15.09358,-37.3107 0.72119,-8.21294 1.19277,-9.50091 8.91689,-24.35362 9.56807,-18.39842 11.68768,-22.47916 28.26985,-54.42606 4.04103,-7.78537 7.49185,-14.31077 7.6685,-14.5009 0.2568,-0.2764 0.92062,0.81068 3.3121,5.42396 1.64502,3.1733 3.6161,6.96027 4.38019,8.41548 0.76409,1.45521 5.34457,10.26583 10.17885,19.57916 4.83427,9.31334 9.7196,18.71928 10.85627,20.90209 14.83377,28.48605 14.72915,28.26639 15.69874,32.96046 1.485,7.18937 1.19659,15.08288 -0.80536,22.04153 -3.88336,13.4983 -14.14286,24.62802 -27.34747,29.66709 -3.96824,1.51434 -9.19006,2.61113 -13.48742,2.8329 -0.80036,0.0413 -3.18161,8e-4 -5.29167,-0.0901 z m -7.0776,-13.75378 c 0.5457,-0.14113 0.99219,-0.42142 0.99219,-0.62287 0,-0.20444 -1.22663,-0.95221 -2.77621,-1.69243 -3.61877,-1.72865 -6.31544,-3.61388 -9.1369,-6.38757 -5.17184,-5.08427 -8.83178,-11.29399 -12.63839,-21.44318 -0.835,-2.22627 -1.66685,-4.09731 -1.84856,-4.15788 -0.93481,-0.31161 -1.78559,4.49916 -1.57021,8.87884 0.26169,5.32155 1.80759,10.13279 4.6533,14.48235 2.7437,4.19364 5.44195,6.74598 9.34061,8.83549 4.40959,2.36335 9.06961,3.11965 12.98417,2.10725 z"
         id="path24813"
         inkscape:connector-curvature="0" />
      <path
         style="fill:#585858;fill-opacity:1;stroke:#585858;stroke-width:0.26458335;stroke-opacity:1"
         d="m 728.4478,263.02246 c -8.03628,-0.70965 -16.62444,-4.0842 -23.35808,-9.17811 -2.05555,-1.55499 -7.04805,-6.67564 -8.56637,-8.78624 -6.601,-9.17597 -9.65417,-19.96269 -8.6552,-30.57838 0.74139,-7.87844 1.28372,-9.34846 8.71523,-23.62347 3.46694,-6.65958 8.06236,-15.50161 10.21203,-19.64895 6.61042,-12.75345 15.21181,-29.31 17.25062,-33.20521 1.06635,-2.03729 3.3971,-6.5307 5.17944,-9.98535 1.78234,-3.45465 3.31591,-6.28238 3.40794,-6.28385 0.092,-0.002 3.89208,7.17084 8.44457,15.93847 4.55249,8.76763 10.41272,20.0488 13.02274,25.06927 2.61002,5.02047 5.64139,10.85453 6.73638,12.96459 1.09499,2.11005 3.57098,6.87255 5.5022,10.58333 1.93122,3.71078 4.65766,8.94953 6.05876,11.64167 2.70887,5.20493 3.48347,7.26865 4.44022,11.82983 0.5139,2.44998 0.59796,3.64201 0.59308,8.41079 -0.006,5.95858 -0.28222,8.16888 -1.57952,12.64366 -4.33381,14.94855 -16.77294,27.09161 -31.64085,30.88772 -4.90571,1.25254 -10.87145,1.75219 -15.76319,1.32023 z m -7.1449,-12.99256 c 1.86535,-0.28216 3.09339,-0.79818 3.09339,-1.29984 0,-0.13891 -1.25461,-0.84436 -2.78802,-1.56766 -3.79531,-1.79025 -6.15049,-3.40523 -9.08609,-6.23049 -5.56675,-5.35752 -9.00845,-11.11738 -13.02306,-21.79479 -0.84628,-2.25078 -1.66365,-4.2173 -1.81639,-4.37004 -0.46669,-0.46669 -1.05899,0.40028 -1.52759,2.23595 -0.31636,1.23931 -0.42946,2.83872 -0.41937,5.93032 0.012,3.65919 0.10472,4.57688 0.68406,6.7664 0.93809,3.54534 2.12098,6.24642 3.96605,9.05631 4.04726,6.16364 9.67953,10.10428 15.94062,11.15291 2.73919,0.45877 2.7425,0.45885 4.9764,0.12093 z"
         id="path24811"
         inkscape:connector-curvature="0" />
    </g>
    <path
       style="display:inline;opacity:1;fill:#585858;fill-opacity:1;stroke-width:0.0776471"
       d="m 14.985005,268.59965 c -0.732504,-0.0919 -1.277484,-0.37225 -1.76758,-0.90939 -0.271909,-0.29801 -0.721298,-0.93239 -0.821641,-1.15987 -0.494056,-1.12012 -0.718737,-1.99305 -0.884761,-3.43735 -0.115363,-1.00349 -0.115495,-1.09565 -0.004,-2.01082 0.154434,-1.26487 0.307785,-1.98642 0.583707,-2.74651 0.124867,-0.34407 0.242937,-0.64568 0.262313,-0.67026 0.01941,-0.0246 0.119191,-0.19403 0.22191,-0.37657 0.315256,-0.56041 0.539171,-0.8421 0.925665,-1.1645 0.528547,-0.4409 0.784921,-0.52736 1.50643,-0.50808 0.350195,0.009 0.66916,-0.01 0.708799,-0.042 0.03959,-0.0324 0.184396,-0.36421 0.32167,-0.73723 0.266471,-0.7241 1.009338,-1.98728 1.38448,-2.35417 0.823779,-0.80568 1.078437,-0.9584 1.855965,-1.11314 0.625509,-0.12448 0.685224,-0.12176 1.201469,0.0546 0.553559,0.18906 1.000123,0.44368 1.167862,0.6659 0.05134,0.068 0.116815,0.1237 0.145366,0.1237 0.1052,0 0.951088,1.17315 1.20667,1.67348 0.361837,0.70831 0.707795,1.58183 0.859167,2.1694 0.17183,0.66691 0.213699,0.72752 0.462324,0.66902 0.256875,-0.0604 1.045438,0.23093 1.316199,0.48632 0.107972,0.10187 0.224114,0.1852 0.258076,0.1852 0.07431,0 0.269111,0.28751 0.748503,1.1049 0.38326,0.65345 0.714091,1.65144 0.822578,2.48132 0.23268,1.7801 0.230608,1.72689 0.104935,2.68884 -0.250077,1.91403 -0.561571,2.80245 -1.357421,3.87157 -0.403309,0.54179 -0.929506,0.90553 -1.484016,1.02581 -0.362365,0.0786 -9.14173,0.10553 -9.744867,0.0299 z"
       id="path3450"
       inkscape:connector-curvature="0"
       inkscape:export-filename="C:\Users\Michu\Documents\Serwis - Praca Inż\img\LogoSerwis.png"
       inkscape:export-xdpi="96"
       inkscape:export-ydpi="96" />
  </g>
</svg>
