<?xml version="1.0" encoding="UTF-8" standalone="no"?>
<!-- Created with Inkscape (http://www.inkscape.org/) -->

<svg
   xmlns:dc="http://purl.org/dc/elements/1.1/"
   xmlns:cc="http://creativecommons.org/ns#"
   xmlns:rdf="http://www.w3.org/1999/02/22-rdf-syntax-ns#"
   xmlns:svg="http://www.w3.org/2000/svg"
   xmlns="http://www.w3.org/2000/svg"
   xmlns:sodipodi="http://sodipodi.sourceforge.net/DTD/sodipodi-0.dtd"
   xmlns:inkscape="http://www.inkscape.org/namespaces/inkscape"
   width="210mm"
   height="40mm"
   viewBox="0 0 210 40"
   version="1.1"
   id="svg33483"
   inkscape:version="0.92.4 (5da689c313, 2019-01-14)"
   sodipodi:docname="MeasureSel.svg">
  <defs
     id="defs33477" />
  <sodipodi:namedview
     id="base"
     pagecolor="#ffffff"
     bordercolor="#666666"
     borderopacity="1.0"
     inkscape:pageopacity="0.0"
     inkscape:pageshadow="2"
     inkscape:zoom="4.0329947"
     inkscape:cx="150.54741"
     inkscape:cy="149.81625"
     inkscape:document-units="mm"
     inkscape:current-layer="layer1"
     showgrid="false"
     inkscape:pagecheckerboard="true"
     inkscape:window-width="1920"
     inkscape:window-height="1018"
     inkscape:window-x="-8"
     inkscape:window-y="-8"
     inkscape:window-maximized="1" />
  <metadata
     id="metadata33480">
    <rdf:RDF>
      <cc:Work
         rdf:about="">
        <dc:format>image/svg+xml</dc:format>
        <dc:type
           rdf:resource="http://purl.org/dc/dcmitype/StillImage" />
        <dc:title></dc:title>
      </cc:Work>
    </rdf:RDF>
  </metadata>
  <g
     inkscape:label="Layer 1"
     inkscape:groupmode="layer"
     id="layer1"
     transform="translate(0,-257)">
    <path
       style="display:inline;opacity:0.99500002;fill:#b0b3b3;fill-opacity:0.78039216;stroke:#000000;stroke-width:1.13500106;stroke-miterlimit:4;stroke-dasharray:none;stroke-opacity:1"
       d="m 4.1934765,270.67188 c -0.5949224,-0.0706 -1.0375551,-0.28612 -1.4356305,-0.69893 -0.2208396,-0.22905 -0.5858366,-0.7166 -0.6673256,-0.89145 -0.4012596,-0.86089 -0.5837682,-1.53181 -0.7186164,-2.64184 -0.093678,-0.77125 -0.093819,-0.84207 -0.00304,-1.54545 0.1254379,-0.97214 0.2500038,-1.52669 0.4740885,-2.11088 0.1014456,-0.26445 0.1973139,-0.49627 0.2130518,-0.51515 0.01582,-0.019 0.096842,-0.14911 0.1802373,-0.28942 0.2560678,-0.43071 0.4379275,-0.64722 0.7518366,-0.89501 0.4292877,-0.33884 0.6375126,-0.40532 1.2235319,-0.39049 0.2844204,0.007 0.5434695,-0.007 0.5756758,-0.0323 0.032205,-0.0249 0.1497751,-0.27992 0.2612597,-0.56661 0.2164185,-0.55652 0.819798,-1.52736 1.1244796,-1.80933 0.6690698,-0.61922 0.8758954,-0.73661 1.5074048,-0.85553 0.508039,-0.0957 0.556531,-0.0936 0.9758403,0.042 0.4496086,0.14529 0.8122944,0.341 0.9485425,0.51178 0.041719,0.0523 0.094833,0.0951 0.1180548,0.0951 0.085419,0 0.7724814,0.90166 0.9800584,1.28622 0.29389,0.54436 0.574864,1.21572 0.697828,1.66733 0.139553,0.51256 0.173564,0.55914 0.375482,0.51418 0.208652,-0.0465 0.849103,0.17747 1.069013,0.37377 0.08771,0.0783 0.18204,0.14234 0.209622,0.14234 0.06038,0 0.218568,0.22098 0.607944,0.84921 0.311272,0.50222 0.579976,1.26922 0.668076,1.90705 0.188999,1.36813 0.187315,1.32723 0.08522,2.06656 -0.203114,1.47106 -0.456099,2.15389 -1.102495,2.97557 -0.327559,0.41641 -0.75494,0.69596 -1.2053,0.78842 -0.294319,0.0604 -7.4249305,0.0811 -7.9147971,0.023 z"
       id="path3450-4-4-8-5-9-7-2-2-9-3-3"
       inkscape:connector-curvature="0" />
    <path
       style="display:inline;opacity:0.99500002;fill:#740000;stroke:#740000;stroke-width:0.32335764;stroke-miterlimit:4;stroke-dasharray:none;stroke-opacity:1;fill-opacity:1"
       d="M 5.264455,268.59691 C 5.0097662,268.50271 4.79783,268.2299 4.7056528,267.87752 l -0.03385,-0.12956 -0.00467,-1.74281 c -0.00506,-1.80646 0,-2.01782 0.057375,-2.38094 0.2083262,-1.32416 1.0004408,-2.37675 1.972894,-2.62167 0.2286882,-0.0575 0.6640203,-0.0531 0.8902744,0.009 0.6643854,0.18311 1.2092745,0.68174 1.5902125,1.45529 l 0.087107,0.17687 0.6282647,0.005 c 0.7314336,0.006 0.6827596,-0.009 0.6827596,0.21189 0,0.16253 -0.02979,0.31575 -0.09488,0.48813 -0.05931,0.15689 -0.281501,0.47007 -0.42359,0.59694 -0.1043056,0.0932 -0.3765775,0.28931 -0.4357566,0.314 -0.029009,0.0121 -0.032205,0.0329 -0.04083,0.26806 -0.035488,0.96926 -0.3561952,1.83976 -0.9119756,2.4756 -0.1109368,0.12687 -0.1185621,0.14081 -0.1185621,0.21625 v 0.0807 l 1.2040817,0.006 c 1.1797666,0.005 1.2051786,0.006 1.2566096,0.0479 0.09518,0.0765 0.104955,0.13258 0.105016,0.60156 0,0.34254 -0.0042,0.42362 -0.02332,0.46164 -0.02245,0.0442 -0.03265,0.0461 -0.251321,0.0458 -0.125377,-1.3e-4 -0.235423,-0.007 -0.244508,-0.0156 -0.03501,-0.0324 -0.05099,-0.11148 -0.05099,-0.25262 v -0.14675 l -1.001111,0.005 -1.0011299,0.005 -0.01075,0.0866 c -0.021313,0.17269 -0.1067996,0.32884 -0.2288305,0.41787 l -0.076358,0.0557 -1.4404165,0.004 c -1.2268986,0.003 -1.4526464,-4.6e-4 -1.5229402,-0.0265 z m 2.965994,-0.29065 c 0.023305,-0.0239 0.057557,-0.0743 0.076115,-0.112 0.032594,-0.0662 0.033744,-0.0851 0.033847,-0.5479 0,-0.28708 0.00689,-0.51259 0.016834,-0.56225 0.017441,-0.0872 0.062466,-0.15526 0.2482598,-0.37541 0.5414624,-0.6417 0.8346236,-1.63556 0.7707795,-2.61261 -0.0723,-1.10609 -0.5383385,-2.05295 -1.2534264,-2.54663 -0.5111826,-0.35292 -1.154637,-0.41384 -1.7029541,-0.16123 -0.7946296,0.36607 -1.3950078,1.34152 -1.5223726,2.4734 -0.020866,0.18679 -0.023547,0.44846 -0.019673,2.06053 l 0.00425,1.84655 0.042712,0.11844 c 0.023528,0.0652 0.052204,0.1293 0.063783,0.14259 0.0261,0.0299 0.027927,0.0685 0.00224,0.0481 -0.010951,-0.009 -0.013384,-0.007 -0.00609,0.004 0.00689,0.0104 0.020402,0.0193 0.030015,0.0199 0.00973,4.7e-4 0.015616,0.0129 0.013388,0.0275 -0.00224,0.0147 0.00326,0.0202 0.012167,0.0125 0.00913,-0.008 0.031151,0.004 0.049099,0.0262 0.059524,0.0735 0.1396349,0.1292 0.229216,0.15939 0.074148,0.025 0.3142337,0.0292 1.4790925,0.0261 1.3853542,-0.004 1.3907081,-0.004 1.4328727,-0.0471 z m -1.4280463,-1.77064 c -0.6070505,-0.17634 -1.0779751,-0.80054 -1.2376269,-1.64049 -0.051271,-0.26968 -0.058105,-0.69014 -0.015821,-0.97354 0.062587,-0.41966 0.1923041,-0.77186 0.3944042,-1.07059 0.3218392,-0.47562 0.7178256,-0.71533 1.1816317,-0.71533 0.4491832,0 0.8453927,0.23036 1.1494253,0.66827 0.2011672,0.28974 0.3139496,0.5546 0.3970615,0.93229 0.041796,0.18998 0.048111,0.25214 0.054616,0.53647 0.00607,0.26794 0.00248,0.35447 -0.022213,0.5187 -0.067309,0.44694 -0.2013088,0.78984 -0.4384136,1.12202 -0.2223814,0.3115 -0.4476829,0.49327 -0.7467262,0.60237 -0.1721047,0.0628 -0.5338358,0.0728 -0.7162028,0.0199 z m 0.5535296,-0.26093 c 0.3116786,-0.0752 0.5708896,-0.2653 0.7830896,-0.57439 0.1318263,-0.19204 0.1883291,-0.30465 0.2617263,-0.52148 0.08159,-0.24121 0.1200431,-0.46014 0.1298994,-0.74013 0.019471,-0.55688 -0.1223754,-1.06286 -0.4097163,-1.46019 -0.1748831,-0.24179 -0.4007728,-0.42174 -0.6465986,-0.51503 -0.1620854,-0.0615 -0.5008397,-0.0656 -0.6644462,-0.008 -0.2794517,0.0983 -0.4767653,0.25298 -0.6751945,0.52949 -0.3889488,0.542 -0.5154007,1.28667 -0.3393414,1.99793 0.071024,0.28679 0.1706439,0.5067 0.3318579,0.73246 0.3310871,0.46371 0.7793575,0.66783 1.2287238,0.55948 z m -0.3693372,-1.20145 c -0.097673,-0.0389 -0.1915541,-0.11872 -0.256088,-0.21752 -0.2482397,-0.37994 -0.1588813,-0.96054 0.1817779,-1.18138 0.071287,-0.0462 0.1059688,-0.0552 0.2126676,-0.0552 0.1082796,0 0.1411756,0.009 0.2175945,0.0582 0.1496331,0.0967 0.2534919,0.2605 0.2987995,0.47152 0.097268,0.45278 -0.1386003,0.91472 -0.4819777,0.94404 -0.060623,0.005 -0.1306505,-0.002 -0.1727738,-0.0196 z m 0.2701631,-0.29332 c 0.2066225,-0.11937 0.2714411,-0.48187 0.1276076,-0.7142 -0.1361666,-0.22003 -0.3620962,-0.23277 -0.5024409,-0.0283 -0.1526959,0.22253 -0.1001889,0.60694 0.1005118,0.73542 0.073862,0.0472 0.1991594,0.0505 0.2743209,0.007 z m 3.6609428,3.1081 0.0042,-0.29566 H 9.7360247 8.5502967 v 0.0934 0.0934 l 1.0690313,2.3e-4 c 0.587966,1.2e-4 1.076473,0.007 1.08556,0.0156 0.03511,0.0324 0.05104,0.11158 0.05104,0.25357 v 0.14768 l 0.07876,-0.006 0.0788,-0.006 0.0042,-0.29566 z m -1.2067603,-3.98763 c 0.2838524,-0.18994 0.5150353,-0.46501 0.6021233,-0.71641 0.02771,-0.0802 0.05449,-0.17145 0.05943,-0.20283 l 0.0091,-0.0571 H 9.8927214 c -0.3026523,0 -0.4997633,-0.008 -0.517408,-0.0211 -0.024598,-0.0182 -0.022214,-0.002 0.017231,0.11929 0.05853,0.17976 0.1390268,0.56877 0.1631816,0.78877 0.010342,0.0942 0.021982,0.17117 0.025873,0.17117 0.00385,0 0.06218,-0.0368 0.1294745,-0.0818 z"
       id="path2745-5-4"
       inkscape:connector-curvature="0" />
  </g>
</svg>
