<?xml version="1.0" encoding="UTF-8" standalone="no"?>
<!-- Created with Inkscape (http://www.inkscape.org/) -->

<svg
   xmlns:dc="http://purl.org/dc/elements/1.1/"
   xmlns:cc="http://creativecommons.org/ns#"
   xmlns:rdf="http://www.w3.org/1999/02/22-rdf-syntax-ns#"
   xmlns:svg="http://www.w3.org/2000/svg"
   xmlns="http://www.w3.org/2000/svg"
   xmlns:sodipodi="http://sodipodi.sourceforge.net/DTD/sodipodi-0.dtd"
   xmlns:inkscape="http://www.inkscape.org/namespaces/inkscape"
   width="210mm"
   height="40mm"
   viewBox="0 0 210 40"
   version="1.1"
   id="svg33483"
   inkscape:version="0.92.4 (5da689c313, 2019-01-14)"
   sodipodi:docname="MovingSel.svg">
  <defs
     id="defs33477" />
  <sodipodi:namedview
     id="base"
     pagecolor="#ffffff"
     bordercolor="#666666"
     borderopacity="1.0"
     inkscape:pageopacity="0.0"
     inkscape:pageshadow="2"
     inkscape:zoom="1.6802072"
     inkscape:cx="285.31239"
     inkscape:cy="230.91133"
     inkscape:document-units="mm"
     inkscape:current-layer="layer1"
     showgrid="false"
     inkscape:pagecheckerboard="true"
     inkscape:window-width="1920"
     inkscape:window-height="1018"
     inkscape:window-x="-8"
     inkscape:window-y="-8"
     inkscape:window-maximized="1" />
  <metadata
     id="metadata33480">
    <rdf:RDF>
      <cc:Work
         rdf:about="">
        <dc:format>image/svg+xml</dc:format>
        <dc:type
           rdf:resource="http://purl.org/dc/dcmitype/StillImage" />
        <dc:title></dc:title>
      </cc:Work>
    </rdf:RDF>
  </metadata>
  <g
     inkscape:label="Layer 1"
     inkscape:groupmode="layer"
     id="layer1"
     transform="translate(0,-257)">
    <path
       style="display:inline;opacity:0.99500002;fill:#b0b3b3;fill-opacity:0.78039216;stroke:#000000;stroke-width:1.28811777;stroke-miterlimit:4;stroke-dasharray:none;stroke-opacity:1"
       d="m 3.7500456,272.85566 c -0.6794834,-0.0796 -1.1850308,-0.32266 -1.6396877,-0.7882 -0.2522292,-0.2583 -0.6691061,-0.80813 -0.7621777,-1.00531 -0.4582934,-0.97084 -0.66674339,-1.72745 -0.8207587,-2.97924 -0.10699263,-0.86975 -0.10715468,-0.94963 -0.003475,-1.74284 0.14326743,-1.0963 0.28553877,-1.72168 0.5414742,-2.38047 0.1158643,-0.29822 0.2253594,-0.55965 0.2433345,-0.58094 0.018067,-0.0215 0.1106066,-0.16817 0.2058556,-0.32639 0.2924645,-0.48571 0.5001735,-0.72988 0.858701,-1.00931 0.4903056,-0.38213 0.7281271,-0.45709 1.3974416,-0.44037 0.3248474,0.008 0.6207172,-0.008 0.6575013,-0.0364 0.036784,-0.0281 0.1710636,-0.31567 0.2983941,-0.63898 0.2471797,-0.6276 0.9363228,-1.72242 1.2843105,-2.04041 0.7641701,-0.6983 1.0003929,-0.83068 1.7216634,-0.9648 0.5802502,-0.1079 0.635635,-0.10555 1.1145438,0.0473 0.513515,0.16385 0.927752,0.38455 1.0833652,0.57714 0.047651,0.059 0.1083133,0.10721 0.1348373,0.10721 0.09757,0 0.882282,1.01681 1.119361,1.45048 0.335665,0.61389 0.656573,1.37101 0.797016,1.88028 0.15939,0.57803 0.198234,0.63056 0.428851,0.57986 0.238309,-0.0525 0.969796,0.20013 1.22096,0.4215 0.100181,0.0883 0.207916,0.16052 0.23942,0.16052 0.06896,0 0.249633,0.2492 0.694352,0.95766 0.355518,0.56637 0.662414,1.43134 0.763037,2.15063 0.21586,1.54286 0.213939,1.49673 0.09734,2.33049 -0.231985,1.65894 -0.52093,2.42898 -1.259202,3.3556 -0.374117,0.4696 -0.862246,0.78485 -1.376618,0.88911 -0.33615,0.0681 -8.4802929,0.0915 -9.0397883,0.0259 z"
       id="path3450-4-4-8-5-9-7-2-2-9-3-5"
       inkscape:connector-curvature="0"
       inkscape:export-filename="C:\Users\Michu\Documents\Serwis - Praca Inż\img\Moving.png"
       inkscape:export-xdpi="77.880379"
       inkscape:export-ydpi="77.880379" />
    <path
       style="display:inline;opacity:0.99500002;fill:#740000;stroke-width:0.01205182;fill-opacity:1"
       d="m 7.7109892,271.15374 c -0.075653,-0.0409 -0.1265895,-0.0938 -0.8542533,-0.88842 -0.2229513,-0.24342 -0.4145839,-0.46297 -0.4259345,-0.4879 -0.029465,-0.0648 -0.028211,-0.22929 0.00281,-0.29767 0.077088,-0.17257 0.2840097,-0.25701 0.4374225,-0.17849 0.043459,0.0223 0.1259418,0.10417 0.336476,0.33424 0.1533894,0.16764 0.2816015,0.3048 0.2849132,0.3048 0.0035,0 0.00577,-0.52238 0.00577,-1.16085 v -1.16084 H 6.4391628 c -0.5824736,0 -1.0590201,0.004 -1.0590201,0.009 0,0.004 0.064372,0.0799 0.143059,0.16718 0.4488428,0.49789 0.4704312,0.52863 0.4704312,0.67006 0,0.0721 -0.00534,0.0952 -0.036575,0.15477 -0.095411,0.18283 -0.2681197,0.25103 -0.4299642,0.1698 -0.057122,-0.0287 -0.1372449,-0.11208 -0.6170575,-0.64264 -0.303282,-0.33532 -0.5651243,-0.62767 -0.5819179,-0.64966 -0.08362,-0.1096 -0.1050015,-0.25993 -0.053531,-0.37641 0.020616,-0.0468 0.1144282,-0.15893 0.36411,-0.43532 0.1849386,-0.20472 0.4442562,-0.49221 0.5762661,-0.63886 0.1319867,-0.14666 0.2579739,-0.27995 0.2799564,-0.29621 0.084685,-0.0626 0.2494265,-0.0671 0.3272101,-0.009 0.1179958,0.0884 0.1700447,0.18429 0.1708085,0.3144 0,0.15336 -0.00275,0.15841 -0.4762914,0.68725 -0.075074,0.0838 -0.1365035,0.15623 -0.1365035,0.16088 0,0.004 0.4765465,0.008 1.0590205,0.008 h 1.0590186 v -1.18608 c 0,-0.65234 -0.00276,-1.18607 -0.00577,-1.18607 -0.00302,0 -0.1340258,0.14005 -0.2906352,0.31122 -0.3163927,0.34581 -0.3373089,0.36215 -0.46325,0.36215 -0.09349,0 -0.1645083,-0.0329 -0.2327029,-0.10772 -0.09664,-0.10604 -0.1252459,-0.24273 -0.079057,-0.3774 0.022006,-0.0643 0.06173,-0.11137 0.4586408,-0.54425 0.7324129,-0.79886 0.748349,-0.81534 0.8296306,-0.85813 0.062035,-0.0326 0.081884,-0.0374 0.1336783,-0.0315 0.1280943,0.0145 0.1409509,0.0265 0.7733645,0.72004 0.5544231,0.60802 0.589702,0.64939 0.6086962,0.71358 0.065901,0.22249 -0.049342,0.43559 -0.2562374,0.4739 -0.061295,0.0113 -0.168144,-0.0122 -0.2273269,-0.0502 -0.025384,-0.0163 -0.1651343,-0.16052 -0.3106947,-0.32059 -0.1455614,-0.16008 -0.2686062,-0.29104 -0.2734477,-0.29104 -0.00488,0 -0.00739,0.53231 -0.006,1.18292 l 0.00301,1.18293 1.0571214,0.003 c 0.66906,0.002 1.0557304,-0.002 1.0532754,-0.009 -0.0029,-0.007 -0.127424,-0.15206 -0.2784509,-0.32318 -0.3065479,-0.34732 -0.331866,-0.38721 -0.3312861,-0.52214 0,-0.0968 0.048343,-0.20423 0.1234159,-0.27669 0.065274,-0.063 0.1235082,-0.0821 0.2257521,-0.0742 0.06088,0.004 0.08874,0.0142 0.132359,0.0451 0.03044,0.0215 0.315001,0.32464 0.632415,0.67363 0.548954,0.60357 0.578349,0.63823 0.6026,0.71024 0.0197,0.0582 0.02428,0.0931 0.0197,0.15142 -0.01154,0.15575 -0.0038,0.14517 -0.63897,0.84172 -0.641564,0.70336 -0.633318,0.69592 -0.7677595,0.69553 -0.1215169,-2.6e-4 -0.2376828,-0.0854 -0.2996454,-0.21941 -0.026522,-0.0575 -0.030208,-0.0787 -0.026522,-0.15594 0.00553,-0.1223 0.028496,-0.15631 0.3434489,-0.51214 0.142457,-0.16092 0.260776,-0.29775 0.262885,-0.30406 0.0029,-0.007 -0.422853,-0.0102 -1.0532764,-0.008 l -1.0571205,0.003 -0.00302,1.15769 c -0.00284,0.63672 0,1.15769 0.006,1.15769 0.00488,0 0.1330748,-0.13667 0.2849588,-0.30373 0.3127095,-0.34389 0.345116,-0.36955 0.4661226,-0.36946 0.1018278,6e-5 0.1798199,0.0386 0.2511881,0.12424 0.091286,0.10951 0.1106754,0.24574 0.054296,0.38151 -0.026522,0.0636 -0.1029636,0.15242 -0.6081864,0.70563 -0.6256507,0.68509 -0.6366769,0.69527 -0.7671109,0.70687 -0.054044,0.005 -0.074842,-1.4e-4 -0.1331219,-0.0317 z"
       id="path2400"
       inkscape:connector-curvature="0"
       inkscape:export-filename="C:\Users\Michu\Documents\Serwis - Praca Inż\img\Moving.png"
       inkscape:export-xdpi="77.880379"
       inkscape:export-ydpi="77.880379" />
  </g>
</svg>
