<?xml version="1.0" encoding="UTF-8" standalone="no"?>
<!-- Created with Inkscape (http://www.inkscape.org/) -->

<svg
   xmlns:dc="http://purl.org/dc/elements/1.1/"
   xmlns:cc="http://creativecommons.org/ns#"
   xmlns:rdf="http://www.w3.org/1999/02/22-rdf-syntax-ns#"
   xmlns:svg="http://www.w3.org/2000/svg"
   xmlns="http://www.w3.org/2000/svg"
   xmlns:sodipodi="http://sodipodi.sourceforge.net/DTD/sodipodi-0.dtd"
   xmlns:inkscape="http://www.inkscape.org/namespaces/inkscape"
   width="210mm"
   height="40mm"
   viewBox="0 0 210 40"
   version="1.1"
   id="svg33483"
   inkscape:version="0.92.4 (5da689c313, 2019-01-14)"
   sodipodi:docname="SaveParamsSel.svg">
  <defs
     id="defs33477">
    <filter
       inkscape:label="Inset"
       inkscape:menu="Shadows and Glows"
       inkscape:menu-tooltip="Shadowy outer bevel"
       style="color-interpolation-filters:sRGB"
       id="filter1603-0-1-1-5">
      <feMorphology
         result="result1"
         in="SourceAlpha"
         operator="dilate"
         radius="3.6"
         id="feMorphology1591-3-4-7-7" />
      <feGaussianBlur
         stdDeviation="3.6"
         in="result1"
         result="result0"
         id="feGaussianBlur1593-7-7-0-1" />
      <feDiffuseLighting
         surfaceScale="-5"
         id="feDiffuseLighting1597-6-8-7-1">
        <feDistantLight
           elevation="45"
           azimuth="225"
           id="feDistantLight1595-2-0-3-2" />
      </feDiffuseLighting>
      <feComposite
         in2="result0"
         operator="in"
         result="result91"
         id="feComposite1599-7-1-6-6" />
      <feComposite
         in="SourceGraphic"
         in2="result91"
         id="feComposite1601-5-6-0-8" />
    </filter>
    <filter
       inkscape:label="Inset"
       inkscape:menu="Shadows and Glows"
       inkscape:menu-tooltip="Shadowy outer bevel"
       style="color-interpolation-filters:sRGB"
       id="filter1589-0-1-6-6">
      <feMorphology
         result="result1"
         in="SourceAlpha"
         operator="dilate"
         radius="3.6"
         id="feMorphology1577-3-8-5-5" />
      <feGaussianBlur
         stdDeviation="3.6"
         in="result1"
         result="result0"
         id="feGaussianBlur1579-7-1-4-5" />
      <feDiffuseLighting
         surfaceScale="-5"
         id="feDiffuseLighting1583-4-5-7-6">
        <feDistantLight
           elevation="45"
           azimuth="225"
           id="feDistantLight1581-2-0-2-7" />
      </feDiffuseLighting>
      <feComposite
         in2="result0"
         operator="in"
         result="result91"
         id="feComposite1585-5-4-7-6" />
      <feComposite
         in="SourceGraphic"
         in2="result91"
         id="feComposite1587-6-0-2-8" />
    </filter>
    <filter
       inkscape:label="Inset"
       inkscape:menu="Shadows and Glows"
       inkscape:menu-tooltip="Shadowy outer bevel"
       style="color-interpolation-filters:sRGB"
       id="filter1630-2-4-1-6">
      <feMorphology
         result="result1"
         in="SourceAlpha"
         operator="dilate"
         radius="3.6"
         id="feMorphology1618-1-5-1-8" />
      <feGaussianBlur
         stdDeviation="3.6"
         in="result1"
         result="result0"
         id="feGaussianBlur1620-8-3-1-9" />
      <feDiffuseLighting
         surfaceScale="-5"
         id="feDiffuseLighting1624-6-9-1-6">
        <feDistantLight
           elevation="45"
           azimuth="225"
           id="feDistantLight1622-2-6-8-8" />
      </feDiffuseLighting>
      <feComposite
         in2="result0"
         operator="in"
         result="result91"
         id="feComposite1626-3-6-5-0" />
      <feComposite
         in="SourceGraphic"
         in2="result91"
         id="feComposite1628-2-9-6-8" />
    </filter>
  </defs>
  <sodipodi:namedview
     id="base"
     pagecolor="#ffffff"
     bordercolor="#666666"
     borderopacity="1.0"
     inkscape:pageopacity="0.0"
     inkscape:pageshadow="2"
     inkscape:zoom="6.8450634"
     inkscape:cx="115.57997"
     inkscape:cy="45.544422"
     inkscape:document-units="mm"
     inkscape:current-layer="layer1"
     showgrid="false"
     inkscape:pagecheckerboard="true"
     inkscape:window-width="1920"
     inkscape:window-height="1018"
     inkscape:window-x="-8"
     inkscape:window-y="-8"
     inkscape:window-maximized="1" />
  <metadata
     id="metadata33480">
    <rdf:RDF>
      <cc:Work
         rdf:about="">
        <dc:format>image/svg+xml</dc:format>
        <dc:type
           rdf:resource="http://purl.org/dc/dcmitype/StillImage" />
        <dc:title></dc:title>
      </cc:Work>
    </rdf:RDF>
  </metadata>
  <g
     inkscape:label="Layer 1"
     inkscape:groupmode="layer"
     id="layer1"
     transform="translate(0,-257)">
    <path
       style="display:inline;opacity:0.99500002;fill:#b0b3b3;fill-opacity:0.78039216;stroke:#000000;stroke-width:2.59957647;stroke-miterlimit:4;stroke-dasharray:none;stroke-opacity:1"
       d="m 9.3465536,283.82883 c -1.649697,-0.13359 -2.877074,-0.54126 -3.980863,-1.32226 -0.61239,-0.43329 -1.624474,-1.35568 -1.850445,-1.68643 -1.112693,-1.62864 -1.61874,-2.89788 -1.992643,-4.99787 -0.259781,-1.45906 -0.26018,-1.59306 -0.0085,-2.9237 0.347815,-1.83912 0.693184,-2.88823 1.314595,-3.99339 0.2813,-0.50027 0.547139,-0.93882 0.590764,-0.97456 0.04364,-0.0358 0.26854,-0.28212 0.499799,-0.54752 0.71,-0.81484 1.214286,-1.2244 2.084735,-1.69317 1.190377,-0.64106 1.767761,-0.76679 3.392723,-0.73875 0.7886954,0.0137 1.5070454,-0.0139 1.5963294,-0.0611 0.08928,-0.0472 0.415281,-0.52956 0.724439,-1.07194 0.600137,-1.05282 2.273202,-2.88946 3.118077,-3.42293 1.855278,-1.17143 2.428795,-1.3935 4.179907,-1.61848 1.408736,-0.18099 1.543227,-0.17704 2.705899,0.0793 1.24671,0.2749 2.252439,0.64512 2.630222,0.96822 0.115667,0.0989 0.262979,0.17984 0.327356,0.17984 0.236872,0 2.142001,1.70577 2.717634,2.43324 0.814913,1.02986 1.594042,2.29996 1.934969,3.15428 0.386984,0.96968 0.481294,1.0578 1.041221,0.97274 0.578535,-0.0879 2.35449,0.33576 2.964278,0.70711 0.243198,0.1481 0.504747,0.26928 0.581234,0.26928 0.167412,0 0.606073,0.41804 1.685762,1.60651 0.863146,0.9501 1.608232,2.40116 1.852551,3.60781 0.524042,2.58824 0.519362,2.51088 0.236311,3.90954 -0.563214,2.78297 -1.264733,4.07472 -3.057133,5.62922 -0.908292,0.78774 -2.093398,1.31661 -3.342216,1.49152 -0.816107,0.11428 -20.588615,0.15343 -21.9469774,0.0434 z"
       id="path3450-4-4-8"
       inkscape:connector-curvature="0"
       inkscape:export-filename="C:\Users\Michu\Documents\Serwis - Praca Inż\img\SaveParamsSel.png"
       inkscape:export-xdpi="91"
       inkscape:export-ydpi="91" />
    <path
       style="display:inline;opacity:0.99500002;fill:#740000;fill-opacity:1;stroke-width:0.19520169;filter:url(#filter1630-2-4-1-6)"
       d="m 41.498881,530.56617 0.0495,-55.84667 0.4978,-1.53594 c 0.74494,-2.29843 1.78618,-4.09467 3.29466,-5.68361 1.55868,-1.64181 3.00662,-2.59681 5.1494,-3.39634 1.45965,-0.54463 1.68769,-0.57014 5.84585,-0.65404 l 4.32695,-0.0873 v 17.64945 17.64945 l 33.997479,-0.0506 33.99748,-0.0506 0.0486,-17.57979 0.0486,-17.57978 h 15.88196 15.88196 l -0.0492,55.84462 -0.0492,55.84462 -0.51817,1.60272 c -0.72636,2.24665 -1.73618,3.97032 -3.28574,5.60846 -1.53253,1.62014 -3.00694,2.6015 -5.14789,3.42642 l -1.50896,0.58141 -54.25531,0.0521 -54.255309,0.0521 z m 88.490529,36.35055 c 1.55732,-0.76414 2.99605,-2.4111 3.51194,-4.02022 0.37949,-1.18366 0.38707,-1.61626 0.38707,-22.08719 0,-13.7345 -0.065,-20.90273 -0.19009,-20.94666 -0.10456,-0.0367 -15.48901,-0.0217 -34.18768,0.0334 l -33.997579,0.10017 -1.04607,0.51816 c -1.38358,0.68533 -2.73582,2.15747 -3.27775,3.56838 l -0.43107,1.12229 -0.0509,21.18858 -0.0509,21.18859 34.095959,-0.0528 34.09597,-0.0528 z m -29.00484,-89.19213 v -14.32427 h 7.51273 7.51273 v 14.32427 14.32427 h -7.51273 -7.51273 z"
       id="path1616-6-3"
       inkscape:connector-curvature="0"
       transform="matrix(0.07588936,0,0,0.11777881,12.69197,212.8993)"
       inkscape:export-filename="C:\Users\Michu\Documents\Serwis - Praca Inż\img\SaveParamsSel.png"
       inkscape:export-xdpi="91"
       inkscape:export-ydpi="91" />
  </g>
</svg>
