<?xml version="1.0" encoding="UTF-8" standalone="no"?>
<!-- Created with Inkscape (http://www.inkscape.org/) -->

<svg
   xmlns:dc="http://purl.org/dc/elements/1.1/"
   xmlns:cc="http://creativecommons.org/ns#"
   xmlns:rdf="http://www.w3.org/1999/02/22-rdf-syntax-ns#"
   xmlns:svg="http://www.w3.org/2000/svg"
   xmlns="http://www.w3.org/2000/svg"
   xmlns:sodipodi="http://sodipodi.sourceforge.net/DTD/sodipodi-0.dtd"
   xmlns:inkscape="http://www.inkscape.org/namespaces/inkscape"
   width="210mm"
   height="50mm"
   viewBox="0 0 210 50"
   version="1.1"
   id="svg32886"
   sodipodi:docname="ZoomoutSel.svg"
   inkscape:export-filename="C:\Users\Michu\Documents\Serwis - Praca Inż\img\LogoSerwis.png"
   inkscape:export-xdpi="96"
   inkscape:export-ydpi="96"
   inkscape:version="0.92.4 (5da689c313, 2019-01-14)">
  <defs
     id="defs32880" />
  <sodipodi:namedview
     id="base"
     pagecolor="#ffffff"
     bordercolor="#080808"
     borderopacity="1"
     inkscape:pageopacity="0"
     inkscape:pageshadow="2"
     inkscape:zoom="3.3565475"
     inkscape:cx="3.4170273"
     inkscape:cy="180.97277"
     inkscape:document-units="mm"
     inkscape:current-layer="layer1"
     showgrid="false"
     inkscape:pagecheckerboard="true"
     inkscape:window-width="1920"
     inkscape:window-height="1018"
     inkscape:window-x="-8"
     inkscape:window-y="-8"
     inkscape:window-maximized="1" />
  <metadata
     id="metadata32883">
    <rdf:RDF>
      <cc:Work
         rdf:about="">
        <dc:format>image/svg+xml</dc:format>
        <dc:type
           rdf:resource="http://purl.org/dc/dcmitype/StillImage" />
        <dc:title></dc:title>
      </cc:Work>
    </rdf:RDF>
  </metadata>
  <g
     inkscape:label="Layer 1"
     inkscape:groupmode="layer"
     id="layer1"
     transform="translate(0,-247)">
    <path
       style="display:inline;fill:#b0b3b3;fill-opacity:0.78039216;stroke:#000000;stroke-width:1.04081547;stroke-miterlimit:4;stroke-dasharray:none;stroke-opacity:1"
       d="m 3.3338833,259.95127 c -0.5466636,-0.0646 -0.9533916,-0.26185 -1.3191756,-0.63963 -0.2029261,-0.20962 -0.5383158,-0.65581 -0.6131946,-0.81583 -0.3687099,-0.78785 -0.53641404,-1.40184 -0.66032366,-2.41768 -0.086079,-0.70582 -0.08621,-0.77063 -0.002824,-1.41434 0.11526258,-0.88965 0.22972416,-1.39716 0.43563146,-1.93178 0.093217,-0.242 0.1813081,-0.45415 0.1957695,-0.47143 0.014536,-0.0174 0.088986,-0.13647 0.1656172,-0.26487 0.2352962,-0.39416 0.4024037,-0.5923 0.6908496,-0.81907 0.3944652,-0.3101 0.5857993,-0.37093 1.1242822,-0.35736 0.2613492,0.007 0.4993851,-0.007 0.5289785,-0.0295 0.029595,-0.0228 0.1376259,-0.25616 0.2400667,-0.51853 0.1988636,-0.50931 0.7532988,-1.39777 1.0332651,-1.65582 0.6147967,-0.56668 0.8048449,-0.67411 1.3851279,-0.78295 0.4668287,-0.0876 0.5113871,-0.0856 0.8966831,0.0384 0.4131377,0.13297 0.7464032,0.31207 0.8715988,0.46836 0.038332,0.0479 0.087141,0.087 0.108479,0.087 0.078494,0 0.7098213,0.82516 0.9005587,1.17709 0.2700528,0.49817 0.5282341,1.11258 0.6412232,1.52587 0.1282326,0.46906 0.1594846,0.5117 0.3450236,0.47056 0.191727,-0.0425 0.780227,0.1624 0.982296,0.34205 0.0806,0.0717 0.167275,0.13026 0.19262,0.13026 0.05547,0 0.200839,0.20223 0.558629,0.77715 0.286022,0.45962 0.53293,1.16155 0.613883,1.74526 0.173667,1.25205 0.17212,1.21462 0.0783,1.89122 -0.186639,1.34625 -0.419102,1.97114 -1.013063,2.72311 -0.300989,0.38108 -0.693702,0.63691 -1.107529,0.72152 -0.270443,0.0553 -6.8226409,0.0742 -7.2727716,0.021 z"
       id="path3450-4-4-8-5-9-7-2-2-2"
       inkscape:connector-curvature="0"
       inkscape:export-filename="C:\Users\Michu\Documents\Serwis - Praca Inż\img\Zoomout.png"
       inkscape:export-xdpi="96"
       inkscape:export-ydpi="96" />
    <path
       style="display:inline;opacity:1;fill:#740000;stroke-width:0.04811552;fill-opacity:1"
       d="m 3.260067,258.02601 -0.4401047,-0.55194 1.0783451,-1.35328 1.0783454,-1.35327 -0.065281,-0.1583 c -0.1115171,-0.2705 -0.2010621,-0.79927 -0.2010621,-1.18727 0,-1.2711 0.702777,-2.39347 1.6795191,-2.68225 0.8959932,-0.26489 1.8406073,0.19412 2.3394887,1.13679 0.2522732,0.4767 0.3613114,0.92924 0.3617595,1.5015 0,0.56758 -0.064499,0.91445 -0.2553861,1.36366 -0.5190833,1.22153 -1.760268,1.77903 -2.7599323,1.23965 l -0.2126536,-0.11474 -1.0814943,1.3557 -1.0815507,1.3557 z m 4.1419854,-3.01221 c 0.2962173,-0.13901 0.6221769,-0.52412 0.7580692,-0.89571 0.1444095,-0.39484 0.1331539,-1.01883 -0.025701,-1.4246 -0.1467944,-0.37486 -0.4728846,-0.75615 -0.7468504,-0.87324 -0.304714,-0.13022 -0.7621126,-0.11185 -1.0232196,0.0411 -0.4167163,0.2441 -0.6456767,0.58087 -0.775382,1.14041 -0.1932168,0.83361 0.2246363,1.78607 0.8998324,2.05112 0.27322,0.10727 0.6343453,0.0918 0.9132493,-0.039 z m -1.3599133,-1.58192 v -0.29638 h 0.8592615 0.8592431 v 0.29638 0.29638 H 6.9014006 6.0421391 Z"
       id="path2178-2"
       inkscape:connector-curvature="0"
       inkscape:export-filename="C:\Users\Michu\Documents\Serwis - Praca Inż\img\ZoomoutSel.png"
       inkscape:export-xdpi="96"
       inkscape:export-ydpi="96" />
  </g>
</svg>
