<?xml version="1.0" encoding="UTF-8" standalone="no"?>
<!-- Created with Inkscape (http://www.inkscape.org/) -->

<svg
   xmlns:dc="http://purl.org/dc/elements/1.1/"
   xmlns:cc="http://creativecommons.org/ns#"
   xmlns:rdf="http://www.w3.org/1999/02/22-rdf-syntax-ns#"
   xmlns:svg="http://www.w3.org/2000/svg"
   xmlns="http://www.w3.org/2000/svg"
   xmlns:sodipodi="http://sodipodi.sourceforge.net/DTD/sodipodi-0.dtd"
   xmlns:inkscape="http://www.inkscape.org/namespaces/inkscape"
   width="210mm"
   height="50mm"
   viewBox="0 0 210 50"
   version="1.1"
   id="svg32886"
   sodipodi:docname="ZoominSel.svg"
   inkscape:export-filename="C:\Users\Michu\Documents\Serwis - Praca Inż\img\LogoSerwis.png"
   inkscape:export-xdpi="96"
   inkscape:export-ydpi="96"
   inkscape:version="0.92.4 (5da689c313, 2019-01-14)">
  <defs
     id="defs32880" />
  <sodipodi:namedview
     id="base"
     pagecolor="#ffffff"
     bordercolor="#080808"
     borderopacity="1"
     inkscape:pageopacity="0"
     inkscape:pageshadow="2"
     inkscape:zoom="2.4518531"
     inkscape:cx="59.325331"
     inkscape:cy="194.55357"
     inkscape:document-units="mm"
     inkscape:current-layer="layer1"
     showgrid="false"
     inkscape:pagecheckerboard="true"
     inkscape:window-width="1006"
     inkscape:window-height="688"
     inkscape:window-x="2"
     inkscape:window-y="1"
     inkscape:window-maximized="1" />
  <metadata
     id="metadata32883">
    <rdf:RDF>
      <cc:Work
         rdf:about="">
        <dc:format>image/svg+xml</dc:format>
        <dc:type
           rdf:resource="http://purl.org/dc/dcmitype/StillImage" />
        <dc:title></dc:title>
      </cc:Work>
    </rdf:RDF>
  </metadata>
  <g
     inkscape:label="Layer 1"
     inkscape:groupmode="layer"
     id="layer1"
     transform="translate(0,-247)">
    <path
       style="display:inline;opacity:0.99500002;fill:#b0b3b3;fill-opacity:0.78039216;stroke:#000000;stroke-width:1.04190004;stroke-miterlimit:4;stroke-dasharray:none;stroke-opacity:1"
       d="m 3.2886002,260.11224 c -0.5467115,-0.0648 -0.9534744,-0.26238 -1.3192904,-0.64092 -0.2029437,-0.21003 -0.5383622,-0.65711 -0.6132476,-0.81745 -0.36874231,-0.78942 -0.53646081,-1.40464 -0.66038141,-2.42251 -0.086087,-0.70723 -0.086217,-0.77218 -0.00281,-1.41717 0.115273,-0.89143 0.2297443,-1.39995 0.43566951,-1.93564 0.093224,-0.24249 0.1813241,-0.45506 0.1957866,-0.47237 0.014539,-0.0174 0.088994,-0.13675 0.1656315,-0.26541 0.2353166,-0.39494 0.4024387,-0.59348 0.6909096,-0.8207 0.3944993,-0.31072 0.5858504,-0.37167 1.12438,-0.35808 0.2613716,0.007 0.4994281,-0.007 0.5290245,-0.0296 0.029597,-0.0229 0.1376377,-0.25668 0.2400879,-0.51957 0.1988806,-0.51033 0.753364,-1.40057 1.0333544,-1.65913 0.6148506,-0.56782 0.8049153,-0.67546 1.3852487,-0.78451 0.466869,-0.0877 0.5114315,-0.0858 0.8967607,0.0384 0.4131744,0.13324 0.7464681,0.31269 0.8716748,0.46929 0.038339,0.0479 0.087149,0.0871 0.1084886,0.0871 0.078502,0 0.709883,0.8268 0.9006376,1.17943 0.270076,0.49918 0.528278,1.11481 0.641278,1.52893 0.1282438,0.47001 0.1594988,0.51272 0.3450538,0.4715 0.191743,-0.0426 0.780295,0.16273 0.982381,0.34274 0.08061,0.0717 0.16729,0.13052 0.192638,0.13052 0.05548,0 0.200855,0.20263 0.558675,0.77871 0.286049,0.46053 0.532977,1.16386 0.613938,1.74874 0.173682,1.25455 0.172135,1.21704 0.07832,1.895 -0.186653,1.34893 -0.419137,1.97507 -1.013151,2.72855 -0.301014,0.38184 -0.693761,0.63817 -1.107625,0.72296 -0.270466,0.0554 -6.8232342,0.0743 -7.2734036,0.0211 z"
       id="path3450-4-4-8-5-9-7-2-2-9-3"
       inkscape:connector-curvature="0"
       inkscape:export-filename="C:\Users\Michu\Documents\Serwis - Praca Inż\img\ZoomInSel.png"
       inkscape:export-xdpi="96"
       inkscape:export-ydpi="96" />
    <path
       style="display:inline;opacity:0.99500002;fill:#740000;stroke-width:0.04610407;fill-opacity:1"
       d="m 3.2977327,258.44684 -0.4707824,-0.45034 1.2316759,-1.1812 1.2316575,-1.18119 -0.1127196,-0.26087 c -0.5551916,-1.28478 0.1750807,-2.7148 1.5883973,-3.11043 0.314004,-0.0879 0.9331035,-0.0925 1.2609554,-0.009 0.7785987,0.19758 1.4131674,0.76722 1.6796644,1.50782 0.138085,0.38378 0.146379,1.02997 0.01789,1.40014 -0.278108,0.80147 -0.9798463,1.41327 -1.8094751,1.57752 -0.3783592,0.0749 -1.0087529,0.0317 -1.3524467,-0.0925 l -0.2774365,-0.10029 -1.2341547,1.17554 c -0.6787768,0.64655 -1.2450577,1.17554 -1.2583274,1.17554 -0.013231,0 -0.2360252,-0.20266 -0.4949555,-0.45035 z m 4.5073609,-2.59048 c 0.4925136,-0.13175 0.9199828,-0.53401 1.0484697,-0.98669 0.076133,-0.26822 0.028012,-0.77463 -0.095424,-1.00414 -0.157785,-0.2934 -0.4098194,-0.53305 -0.7062482,-0.67155 -0.2244886,-0.10489 -0.3278519,-0.1249 -0.6451361,-0.1249 -0.3172846,0 -0.4206476,0.02 -0.6451549,0.1249 -0.4973223,0.23238 -0.7960439,0.65782 -0.832163,1.18536 -0.048048,0.70093 0.3277212,1.22802 1.0435119,1.46373 0.3042568,0.1002 0.4957571,0.10325 0.8321446,0.0133 z m -0.6580893,-0.78485 v -0.31506 H 6.8163942 6.4858215 v -0.27004 -0.27005 h 0.3305727 0.3306101 v -0.31505 -0.31506 h 0.2597506 0.2597504 v 0.31506 0.31505 H 7.9970967 8.327688 v 0.27005 0.27004 H 7.9970967 7.6665053 v 0.31506 0.31506 H 7.4067549 7.1470043 Z"
       id="path2206-5"
       inkscape:connector-curvature="0"
       inkscape:export-filename="C:\Users\Michu\Documents\Serwis - Praca Inż\img\ZoomInSel.png"
       inkscape:export-xdpi="96"
       inkscape:export-ydpi="96" />
  </g>
</svg>
